<svg width="120" height="121" viewBox="0 0 120 121" fill="none" xmlns="http://www.w3.org/2000/svg">
<path fill-rule="evenodd" clip-rule="evenodd" d="M54.8342 0.201356C36.6877 1.66762 19.9935 11.6847 9.73223 27.2638C7.58525 30.5234 4.84882 35.988 3.50663 39.6958C0.780752 47.2263 -0.435468 55.9582 0.139686 63.8701C1.20109 78.475 6.81212 91.2007 16.7173 101.468C21.9001 106.84 26.9477 110.549 33.4887 113.792C44.4406 119.221 56.7302 121.15 68.8633 119.344C88.0317 116.491 105.036 104.166 113.582 86.9325C119.523 74.9526 121.373 62.0172 118.992 49.1223C115.993 32.8878 106.677 18.9185 92.7164 9.72329C89.5772 7.65584 84.0851 4.88679 80.519 3.5737C72.6416 0.673301 63.6327 -0.509611 54.8342 0.201356ZM63.0669 25.0322C74.9805 26.1916 85.242 32.9971 91.0135 43.5661C93.7753 48.6236 95.4655 56.2626 95.0616 61.8622C93.9983 76.6048 84.6744 88.7065 70.8557 93.2796C67.1132 94.5183 64.1558 94.9816 59.9946 94.9816C57.9035 94.9816 55.6899 94.8303 54.2478 94.5887C49.7049 93.828 44.1767 91.6222 40.4119 89.0682C28.6372 81.0806 22.7719 66.7078 25.6334 52.8547C27.6966 42.8662 34.3545 34.0017 43.575 28.9668C47.1873 26.9941 52.2263 25.4879 56.6333 25.0636C59.5189 24.7859 60.4881 24.7812 63.0669 25.0322ZM49.9341 49.054C48.7669 49.7007 48.7526 49.8309 48.7437 59.916C48.7378 66.7435 48.8129 69.5161 49.0158 69.9613C49.5898 71.2211 49.7924 71.2448 59.9946 71.2448C70.1968 71.2448 70.3994 71.2211 70.9734 69.9613C71.1758 69.5172 71.2537 66.7433 71.2537 59.9857C71.2537 49.9245 71.2256 49.6704 70.0469 49.0608C69.1309 48.5872 50.7875 48.5809 49.9341 49.054Z" fill="#1B53E5"/>
</svg>
