<svg width="50" height="50" viewBox="0 0 50 50" fill="none" xmlns="http://www.w3.org/2000/svg">
<path d="M18.7494 45.8332H31.2494C41.666 45.8332 45.8327 41.6665 45.8327 31.2498V18.7498C45.8327 8.33317 41.666 4.1665 31.2494 4.1665H18.7494C8.33268 4.1665 4.16602 8.33317 4.16602 18.7498V31.2498C4.16602 41.6665 8.33268 45.8332 18.7494 45.8332Z" stroke="#8E8EA9" stroke-width="2" stroke-linecap="round" stroke-linejoin="round"/>
<path d="M4.16602 27.0833H11.9993C13.5827 27.0833 15.0202 27.9792 15.7285 29.3958L17.5827 33.125C18.7493 35.4167 20.8327 35.4167 21.3327 35.4167H28.6868C30.2702 35.4167 31.7077 34.5208 32.416 33.1042L34.2702 29.375C34.9785 27.9583 36.416 27.0625 37.9993 27.0625H45.791" stroke="#8E8EA9" stroke-width="2" stroke-linecap="round" stroke-linejoin="round"/>
</svg>
