<svg width="27" height="26" viewBox="0 0 27 26" fill="none" xmlns="http://www.w3.org/2000/svg">
<path d="M26.5251 16.1448C24.7887 23.1091 17.7341 27.3475 10.7681 25.6108C3.80508 23.8746 -0.433765 16.8204 1.30344 9.85657C3.03911 2.89145 10.0937 -1.34724 17.0575 0.389004C24.0229 2.12525 28.2615 9.18022 26.5249 16.1449L26.525 16.1448H26.5251Z" fill="#6179EE"/>
<path d="M13.9408 4.87827V4.88636C13.9489 4.92681 13.9489 4.97534 13.9489 5.02388V10.8562C13.9408 10.8885 13.9165 10.8966 13.8923 10.9128C13.7224 10.9937 13.5606 11.0665 13.3907 11.1393C13.1561 11.2445 12.9134 11.3577 12.6788 11.4629L11.8293 11.8512C11.5947 11.9563 11.3601 12.0615 11.1335 12.1666C10.8585 12.2961 10.5753 12.4174 10.3003 12.5468C10.0657 12.652 9.83104 12.7652 9.58834 12.8704C9.39417 12.9594 9.20001 13.0403 9.01394 13.1292C8.99776 13.1373 8.98158 13.1454 8.9654 13.1454C8.95731 13.1454 8.95731 13.1454 8.94922 13.1373L9.16765 12.7733C9.58834 12.0777 10.0009 11.3901 10.4216 10.6944C10.8666 9.95019 11.3196 9.20599 11.7646 8.46178C12.1772 7.7742 12.5979 7.08662 13.0104 6.39904C13.3098 5.89751 13.6172 5.39598 13.9165 4.89445C13.9246 4.87827 13.9327 4.87018 13.9327 4.854H13.9408C13.9327 4.86209 13.9408 4.87018 13.9408 4.87827Z" fill="white"/>
<path d="M18.9093 13.1372L18.9174 13.1453L17.7281 13.849L13.9905 16.0574C13.9743 16.0655 13.9581 16.0735 13.9501 16.0816C13.9258 16.0816 13.9258 16.0574 13.9258 16.0493V15.9765V10.9774C13.9258 10.9531 13.9258 10.9207 13.9339 10.8965C13.942 10.8641 13.9662 10.8722 13.9905 10.8803C14.0957 10.9288 14.2089 10.9774 14.3141 11.0259C14.6296 11.1715 14.9451 11.3171 15.2606 11.4546C15.5357 11.576 15.8027 11.7054 16.0777 11.8267C16.3528 11.9481 16.6279 12.0775 16.9029 12.1988C17.1376 12.304 17.3803 12.4172 17.6149 12.5224C17.8495 12.6275 18.0922 12.7408 18.3268 12.846C18.5129 12.9268 18.6989 13.0158 18.885 13.0967C18.885 13.121 18.8931 13.1291 18.9093 13.1372Z" fill="#7F93EE"/>
<path d="M13.9408 21.1051C13.9408 21.1131 13.9327 21.1212 13.9327 21.1293H13.9246C13.9246 21.1131 13.9084 21.1051 13.9004 21.0889C13.3988 20.3851 12.8972 19.6733 12.3956 18.9695C11.8859 18.2496 11.3682 17.5215 10.8585 16.8016C10.365 16.1059 9.8634 15.4022 9.3699 14.7065C9.24046 14.5205 9.11102 14.3425 8.98158 14.1564C8.97349 14.1403 8.9654 14.1322 8.94922 14.1079C8.97349 14.1079 8.98967 14.1241 8.99776 14.1322C9.7016 14.5447 10.3973 14.9573 11.1012 15.3698C11.9102 15.8471 12.7111 16.3243 13.5201 16.8016L13.9327 17.0443C13.9489 17.0605 13.9489 17.0766 13.9489 17.0928V20.9918C13.9489 21.0323 13.9489 21.0727 13.9408 21.1051Z" fill="white"/>
<path d="M8.94141 13.1537V13.1456C9.20029 13.0324 9.45108 12.911 9.70997 12.7978C10.0417 12.6441 10.3734 12.4985 10.705 12.3448C10.9558 12.2315 11.2147 12.1102 11.4655 11.997C11.8377 11.8271 12.2017 11.6653 12.5739 11.4954C12.8247 11.3822 13.0754 11.2689 13.3343 11.1476C13.5123 11.0667 13.6984 10.9858 13.8764 10.9049C13.8925 10.8968 13.9168 10.8887 13.9249 10.8726C13.933 10.8726 13.933 10.8806 13.9249 10.8887V16.0254C13.9249 16.0496 13.9168 16.0739 13.933 16.0901C13.9168 16.1143 13.9006 16.0901 13.8925 16.082C13.8197 16.0415 13.7469 16.0011 13.6741 15.9526C12.1127 15.0304 10.5432 14.1001 8.98186 13.178C8.97377 13.1699 8.95759 13.1618 8.94141 13.1537Z" fill="#BFCAF9"/>
<path d="M18.8928 14.1079H18.9009C18.9009 14.1241 18.8847 14.1403 18.8766 14.1564C17.3881 16.2515 15.8995 18.3547 14.4109 20.4498C14.2572 20.6682 14.0954 20.8867 13.9417 21.1051C13.9336 21.097 13.9336 21.0889 13.9336 21.0808V21.0323V17.109V17.0362C14.2734 16.834 14.6051 16.6398 14.9449 16.4376C16.2555 15.661 17.5661 14.8926 18.8686 14.116C18.8766 14.1241 18.8847 14.116 18.8928 14.1079Z" fill="#C0CAF9"/>
<path d="M13.9341 10.8884V10.8722V10.8237V4.95094C13.9341 4.92668 13.9261 4.9105 13.9422 4.88623C15.5845 7.61229 17.2268 10.3303 18.861 13.0563C18.8772 13.0806 18.9015 13.1129 18.9096 13.1453C18.7963 13.1048 18.6911 13.0482 18.586 12.9997C18.4565 12.9431 18.319 12.8783 18.1895 12.8217C18.1086 12.7813 18.0197 12.7489 17.9388 12.7085C17.8012 12.6438 17.6637 12.5871 17.5262 12.5224C17.4453 12.4901 17.3644 12.4496 17.2835 12.4092L16.7495 12.1665C16.6605 12.1261 16.5715 12.0856 16.4744 12.0452L16.0861 11.8753C16.0052 11.8429 15.9243 11.8025 15.8434 11.762L15.3095 11.5194C15.2205 11.4789 15.1315 11.4385 15.0344 11.398L14.6461 11.2282C14.5571 11.1877 14.4762 11.1473 14.3872 11.1068C14.2335 11.034 14.0798 10.9612 13.918 10.8965C13.9422 10.8884 13.9341 10.8884 13.9341 10.8884Z" fill="#BFCAF8"/>
</svg>
