<svg width="22" height="20" viewBox="0 0 22 20" fill="none" xmlns="http://www.w3.org/2000/svg">
<path d="M21.4908 0L12.0508 6.77325L13.8062 2.78158L21.4908 0Z" fill="#E17726"/>
<path d="M0.531508 0.0078125L8.1955 2.78189L9.86234 6.82589L0.531508 0.0078125ZM17.6906 14.4046L21.8629 14.4816L20.4047 19.2851L15.3135 17.9259L17.6906 14.4046ZM4.30829 14.4046L6.67647 17.9259L1.59387 19.2852L0.144531 14.4816L4.30829 14.4046Z" fill="#E27625"/>
<path d="M9.63677 5.79591L9.80727 11.1362L4.70508 10.9111L6.15639 8.78791L6.17478 8.76749L9.63677 5.79591ZM12.3114 5.73633L15.8262 8.76766L15.8445 8.78799L17.2958 10.9112L12.1947 11.1362L12.3114 5.73633ZM6.82696 14.4202L9.61288 16.5252L6.37665 18.0402L6.82696 14.4202ZM15.1746 14.4199L15.6155 18.0403L12.3883 16.525L15.1746 14.4199Z" fill="#E27625"/>
<path d="M12.4597 16.3267L15.7345 17.8643L12.6883 19.2682L12.7199 18.3403L12.4597 16.3267ZM9.54063 16.3273L9.29063 18.3252L9.31117 19.2671L6.25781 17.8643L9.54063 16.3273Z" fill="#D5BFB2"/>
<path d="M8.59488 11.833L9.45065 13.577L6.53711 12.7493L8.59488 11.833ZM13.4061 11.8332L15.4736 12.7493L12.5505 13.5768L13.4061 11.8332Z" fill="#233447"/>
<path d="M7.04987 14.4023L6.57893 18.1556L4.05469 14.4844L7.04987 14.4023ZM14.9518 14.4024L17.9471 14.4844L15.4134 18.1558L14.9518 14.4024ZM17.3698 10.6987L15.19 12.853L13.5093 12.1082L12.7046 13.7486L12.1772 10.9278L17.3698 10.6987ZM4.63064 10.6987L9.82427 10.9278L9.2967 13.7486L8.4919 12.1085L6.82016 12.8531L4.63064 10.6987Z" fill="#CC6228"/>
<path d="M4.48242 10.2568L6.94866 12.6835L7.03408 15.0793L4.48242 10.2568ZM17.5189 10.2524L14.9626 15.0835L15.0588 12.6835L17.5189 10.2524ZM9.70235 10.4046L9.80161 11.0104L10.0469 12.5197L9.88918 17.1551L9.14367 13.4314L9.14341 13.3929L9.70235 10.4046ZM12.2952 10.3962L12.8556 13.3929L12.8553 13.4314L12.1079 17.1644L12.0784 16.2307L11.9617 12.4922L12.2952 10.3962Z" fill="#E27525"/>
<path d="M15.2788 12.5874L15.1953 14.6689L12.5936 16.6345L12.0677 16.2742L12.6572 13.3296L15.2788 12.5874ZM6.73047 12.5874L9.34288 13.3296L9.93241 16.2742L9.40648 16.6345L6.80472 14.6687L6.73047 12.5874Z" fill="#F5841F"/>
<path d="M5.75977 17.4048L9.0883 18.9341L9.0742 18.281L9.35273 18.044H12.6471L12.9356 18.2802L12.9143 18.9328L16.2218 17.4086L14.6124 18.6983L12.6663 19.9944H9.326L7.38123 18.693L5.75977 17.4048Z" fill="#C0AC9D"/>
<path d="M12.2199 16.123L12.6905 16.4455L12.9663 18.5791L12.5672 18.2524H9.43255L9.04102 18.5857L9.30777 16.4456L9.77853 16.123H12.2199Z" fill="#161616"/>
<path d="M20.8668 0.1875L22 3.48392L21.2923 6.817L21.7962 7.19392L21.1143 7.69842L21.6269 8.08225L20.9482 8.6815L21.3648 8.97409L20.2592 10.2263L15.7242 8.94584L15.685 8.92542L12.417 6.25225L20.8668 0.1875ZM1.13317 0.1875L9.58306 6.25225L6.31503 8.92542L6.27576 8.94584L1.74084 10.2263L0.635164 8.97409L1.05145 8.68175L0.373227 8.08225L0.884727 7.69883L0.192586 7.19292L0.715516 6.81575L0 3.48408L1.13317 0.1875Z" fill="#763E1A"/>
<path d="M15.5029 8.66578L20.3079 10.0224L21.869 14.6879H17.7505L14.9129 14.7225L16.9766 10.8219L15.5029 8.66578ZM6.49802 8.66578L5.02411 10.8219L7.08807 14.7225L4.2517 14.6879H0.140625L1.69291 10.0224L6.49802 8.66578ZM14.0413 2.75928L12.6973 6.27919L12.4121 11.0342L12.3029 12.5246L12.2942 16.3319H9.70659L9.69816 12.5318L9.58868 11.0329L9.30337 6.27919L7.95956 2.75928H14.0413Z" fill="#F5841F"/>
</svg>
