<svg width="21" height="21" viewBox="0 0 21 21" fill="none" xmlns="http://www.w3.org/2000/svg">
<path fill-rule="evenodd" clip-rule="evenodd" d="M10.5259 4.0415C10.8711 4.04196 11.1505 4.32215 11.1501 4.66732L11.1348 16.334C11.1343 16.6792 10.8541 16.9586 10.5089 16.9582C10.1638 16.9577 9.88431 16.6775 9.88477 16.3324L9.90006 4.66568C9.90051 4.32051 10.1807 4.04105 10.5259 4.0415Z" fill="white"/>
<path fill-rule="evenodd" clip-rule="evenodd" d="M4.04102 10.5C4.04102 10.1548 4.32084 9.875 4.66602 9.875H16.3327C16.6779 9.875 16.9577 10.1548 16.9577 10.5C16.9577 10.8452 16.6779 11.125 16.3327 11.125H4.66602C4.32084 11.125 4.04102 10.8452 4.04102 10.5Z" fill="white"/>
</svg>
