<svg width="26" height="26" viewBox="0 0 26 26" fill="none" xmlns="http://www.w3.org/2000/svg">
<circle cx="13" cy="13" r="13" fill="#A6D6C8"/>
<g clip-path="url(#clip0_4803_51245)">
<path fill-rule="evenodd" clip-rule="evenodd" d="M7.50941 6.57449L4.34893 13.252C4.3369 13.2768 4.33309 13.3049 4.33805 13.3321C4.34302 13.3592 4.35649 13.3841 4.37651 13.403L12.9122 21.6302C12.9364 21.6536 12.9687 21.6667 13.0023 21.6667C13.0359 21.6667 13.0682 21.6536 13.0925 21.6302L21.6281 13.4035C21.6482 13.3846 21.6616 13.3597 21.6666 13.3326C21.6716 13.3054 21.6677 13.2773 21.6557 13.2525L18.4952 6.575C18.485 6.55258 18.4686 6.53358 18.448 6.52028C18.4273 6.50698 18.4033 6.49994 18.3788 6.50001H7.62686C7.60222 6.4997 7.57803 6.50657 7.55719 6.51979C7.53635 6.533 7.51975 6.552 7.50941 6.57449Z" fill="#50AF95"/>
<path fill-rule="evenodd" clip-rule="evenodd" d="M14.1047 13.9079C14.0432 13.9124 13.7251 13.9309 13.0157 13.9309C12.4514 13.9309 12.0508 13.9144 11.9102 13.9079C9.72962 13.8142 8.10198 13.4433 8.10198 12.9992C8.10198 12.5551 9.72962 12.1847 11.9102 12.0895V13.5385C12.0528 13.5485 12.4612 13.5721 13.0254 13.5721C13.7025 13.5721 14.0416 13.5445 14.1027 13.539V12.0905C16.2787 12.1852 17.9027 12.5561 17.9027 12.9992C17.9027 13.4423 16.2792 13.8132 14.1027 13.9074L14.1047 13.9079ZM14.1047 11.9406V10.644H17.1415V8.66675H8.87348V10.644H11.9097V11.9401C9.44185 12.0509 7.58594 12.5286 7.58594 13.1009C7.58594 13.6733 9.44185 14.1505 11.9097 14.2617V18.4167H14.1042V14.2602C16.5664 14.1495 18.4193 13.6723 18.4193 13.1004C18.4193 12.5286 16.568 12.0514 14.1042 11.9401L14.1047 11.9406Z" fill="white"/>
</g>
<defs>
<clipPath id="clip0_4803_51245">
<rect width="17.3333" height="15.1667" fill="white" transform="translate(4.33594 6.5)"/>
</clipPath>
</defs>
</svg>
