<svg width="18" height="19" viewBox="0 0 18 19" fill="none" xmlns="http://www.w3.org/2000/svg">
<path d="M12.5234 14.735H5.47344C5.15844 14.735 4.80594 14.4875 4.70094 14.1875L1.59594 5.50252C1.15344 4.25752 1.67094 3.87502 2.73594 4.64002L5.66094 6.73252C6.14844 7.07002 6.70344 6.89752 6.91344 6.35002L8.23344 2.83252C8.65344 1.70752 9.35094 1.70752 9.77094 2.83252L11.0909 6.35002C11.3009 6.89752 11.8559 7.07002 12.3359 6.73252L15.0809 4.77502C16.2509 3.93502 16.8134 4.36252 16.3334 5.72002L13.3034 14.2025C13.1909 14.4875 12.8384 14.735 12.5234 14.735Z" stroke="#1A203F" stroke-width="1.5" stroke-linecap="round" stroke-linejoin="round"/>
<path d="M4.875 17H13.125" stroke="#1A203F" stroke-width="1.5" stroke-linecap="round" stroke-linejoin="round"/>
<path d="M7.125 11H10.875" stroke="#1A203F" stroke-width="1.5" stroke-linecap="round" stroke-linejoin="round"/>
</svg>
