<svg width="18" height="19" viewBox="0 0 18 19" fill="none" xmlns="http://www.w3.org/2000/svg">
<path d="M14.4737 6.43999V10.3025C14.4737 12.6125 13.1538 13.6025 11.1738 13.6025H4.58125C4.24375 13.6025 3.92125 13.5725 3.62125 13.505C3.43375 13.475 3.25375 13.4225 3.08875 13.3625C1.96375 12.9425 1.28125 11.9675 1.28125 10.3025V6.43999C1.28125 4.12999 2.60125 3.14001 4.58125 3.14001H11.1738C12.8538 3.14001 14.0613 3.85251 14.3838 5.48001C14.4363 5.78001 14.4737 6.08749 14.4737 6.43999Z" stroke="#1A203F" stroke-width="1.5" stroke-miterlimit="10" stroke-linecap="round" stroke-linejoin="round"/>
<path d="M16.7236 8.69008V12.5526C16.7236 14.8626 15.4036 15.8526 13.4236 15.8526H6.83109C6.27609 15.8526 5.7736 15.7776 5.3386 15.6126C4.4461 15.2826 3.83859 14.6001 3.62109 13.5051C3.92109 13.5726 4.24359 13.6026 4.58109 13.6026H11.1736C13.1536 13.6026 14.4736 12.6126 14.4736 10.3026V6.44008C14.4736 6.08758 14.4436 5.7726 14.3836 5.4801C15.8086 5.7801 16.7236 6.78508 16.7236 8.69008Z" stroke="#1A203F" stroke-width="1.5" stroke-miterlimit="10" stroke-linecap="round" stroke-linejoin="round"/>
<path d="M7.87064 10.3549C8.96416 10.3549 9.85065 9.46843 9.85065 8.37491C9.85065 7.28138 8.96416 6.3949 7.87064 6.3949C6.77711 6.3949 5.89062 7.28138 5.89062 8.37491C5.89062 9.46843 6.77711 10.3549 7.87064 10.3549Z" stroke="#1A203F" stroke-width="1.5" stroke-miterlimit="10" stroke-linecap="round" stroke-linejoin="round"/>
<path d="M3.58203 6.72498V10.025" stroke="#1A203F" stroke-width="1.5" stroke-miterlimit="10" stroke-linecap="round" stroke-linejoin="round"/>
<path d="M12.1641 6.72522V10.0252" stroke="#1A203F" stroke-width="1.5" stroke-miterlimit="10" stroke-linecap="round" stroke-linejoin="round"/>
</svg>
