<svg width="18" height="19" viewBox="0 0 18 19" fill="none" xmlns="http://www.w3.org/2000/svg">
<path d="M16.5 8.375V12.125C16.5 14.75 15 15.875 12.75 15.875H5.25C3 15.875 1.5 14.75 1.5 12.125V6.875C1.5 4.25 3 3.125 5.25 3.125H10.5" stroke="#1A203F" stroke-width="1.5" stroke-miterlimit="10" stroke-linecap="round" stroke-linejoin="round"/>
<path d="M5.25 7.25L7.5975 9.125C8.37 9.74 9.6375 9.74 10.41 9.125L11.295 8.42" stroke="#1A203F" stroke-width="1.5" stroke-miterlimit="10" stroke-linecap="round" stroke-linejoin="round"/>
<path d="M14.625 6.5C15.6605 6.5 16.5 5.66053 16.5 4.625C16.5 3.58947 15.6605 2.75 14.625 2.75C13.5895 2.75 12.75 3.58947 12.75 4.625C12.75 5.66053 13.5895 6.5 14.625 6.5Z" stroke="#1A203F" stroke-width="1.5" stroke-miterlimit="10" stroke-linecap="round" stroke-linejoin="round"/>
</svg>
