<svg width="18" height="19" viewBox="0 0 18 19" fill="none" xmlns="http://www.w3.org/2000/svg">
<path d="M3.75 8H5.25C6.75 8 7.5 7.25 7.5 5.75V4.25C7.5 2.75 6.75 2 5.25 2H3.75C2.25 2 1.5 2.75 1.5 4.25V5.75C1.5 7.25 2.25 8 3.75 8Z" stroke="white" stroke-width="1.5" stroke-miterlimit="10" stroke-linecap="round" stroke-linejoin="round"/>
<path d="M12.75 8H14.25C15.75 8 16.5 7.25 16.5 5.75V4.25C16.5 2.75 15.75 2 14.25 2H12.75C11.25 2 10.5 2.75 10.5 4.25V5.75C10.5 7.25 11.25 8 12.75 8Z" stroke="white" stroke-width="1.5" stroke-miterlimit="10" stroke-linecap="round" stroke-linejoin="round"/>
<path d="M15.0914 16.6517L16.1521 15.591C17.2128 14.5303 17.2128 13.4697 16.1521 12.409L15.0914 11.3483C14.0308 10.2877 12.9701 10.2877 11.9095 11.3483L10.8488 12.409C9.78814 13.4697 9.78814 14.5303 10.8488 15.591L11.9095 16.6517C12.9701 17.7123 14.0308 17.7123 15.0914 16.6517Z" stroke="white" stroke-width="1.5" stroke-miterlimit="10" stroke-linecap="round" stroke-linejoin="round"/>
<path d="M3.75 17H5.25C6.75 17 7.5 16.25 7.5 14.75V13.25C7.5 11.75 6.75 11 5.25 11H3.75C2.25 11 1.5 11.75 1.5 13.25V14.75C1.5 16.25 2.25 17 3.75 17Z" stroke="white" stroke-width="1.5" stroke-miterlimit="10" stroke-linecap="round" stroke-linejoin="round"/>
</svg>
