<svg width="18" height="19" viewBox="0 0 18 19" fill="none" xmlns="http://www.w3.org/2000/svg">
<path d="M6 9.05002C6 9.62752 6.45 10.1 6.9975 10.1H8.1225C8.6025 10.1 8.9925 9.68752 8.9925 9.18502C8.9925 8.63752 8.7525 8.44252 8.4 8.31502L6.6 7.68502C6.24 7.55752 6 7.36252 6 6.81502C6 6.31252 6.39 5.90002 6.87 5.90002H7.995C8.55 5.90752 9 6.37252 9 6.95002" stroke="#1A203F" stroke-width="1.5" stroke-linecap="round" stroke-linejoin="round"/>
<path d="M7.5 10.1375V10.6925" stroke="#1A203F" stroke-width="1.5" stroke-linecap="round" stroke-linejoin="round"/>
<path d="M7.5 5.3075V5.8925" stroke="#1A203F" stroke-width="1.5" stroke-linecap="round" stroke-linejoin="round"/>
<path d="M7.4925 13.985C10.8021 13.985 13.485 11.3021 13.485 7.9925C13.485 4.68293 10.8021 2 7.4925 2C4.18293 2 1.5 4.68293 1.5 7.9925C1.5 11.3021 4.18293 13.985 7.4925 13.985Z" stroke="#1A203F" stroke-width="1.5" stroke-linecap="round" stroke-linejoin="round"/>
<path d="M9.73438 15.41C10.4094 16.3625 11.5119 16.985 12.7719 16.985C14.8194 16.985 16.4844 15.32 16.4844 13.2725C16.4844 12.0275 15.8694 10.925 14.9319 10.25" stroke="#1A203F" stroke-width="1.5" stroke-linecap="round" stroke-linejoin="round"/>
</svg>
