<svg width="18" height="19" viewBox="0 0 18 19" fill="none" xmlns="http://www.w3.org/2000/svg">
<path d="M16.5 6.875C16.5 9.5675 14.3175 11.75 11.625 11.75C11.4975 11.75 11.3625 11.7425 11.235 11.735C11.0475 9.35751 9.14249 7.45249 6.76499 7.26499C6.75749 7.13749 6.75 7.0025 6.75 6.875C6.75 4.1825 8.9325 2 11.625 2C14.3175 2 16.5 4.1825 16.5 6.875Z" stroke="#1A203F" stroke-width="1.5" stroke-linecap="round" stroke-linejoin="round"/>
<path d="M11.25 12.125C11.25 14.8175 9.0675 17 6.375 17C3.6825 17 1.5 14.8175 1.5 12.125C1.5 9.4325 3.6825 7.25 6.375 7.25C6.5025 7.25 6.63749 7.25749 6.76499 7.26499C9.14249 7.45249 11.0475 9.35751 11.235 11.735C11.2425 11.8625 11.25 11.9975 11.25 12.125Z" stroke="#1A203F" stroke-width="1.5" stroke-linecap="round" stroke-linejoin="round"/>
<path d="M4.1925 2H2.25C1.8375 2 1.5 2.3375 1.5 2.75V4.6925C1.5 5.36 2.30999 5.69749 2.78249 5.22499L4.72499 3.28249C5.18999 2.80999 4.86 2 4.1925 2Z" stroke="#1A203F" stroke-width="1.5" stroke-linecap="round" stroke-linejoin="round"/>
<path d="M13.8083 16.9999H15.7508C16.1633 16.9999 16.5008 16.6624 16.5008 16.2499V14.3074C16.5008 13.6399 15.6908 13.3025 15.2183 13.775L13.2758 15.7174C12.8108 16.1899 13.1408 16.9999 13.8083 16.9999Z" stroke="#1A203F" stroke-width="1.5" stroke-linecap="round" stroke-linejoin="round"/>
</svg>
