<svg width="21" height="18" viewBox="0 0 21 18" fill="none" xmlns="http://www.w3.org/2000/svg">
<path d="M5.5 10.2857C5.5 10.6267 5.6317 10.9537 5.86612 11.1949C6.10054 11.436 6.41848 11.5714 6.75 11.5714C7.08152 11.5714 7.39946 11.436 7.63388 11.1949C7.8683 10.9537 8 10.6267 8 10.2857C8 9.94472 7.8683 9.6177 7.63388 9.37658C7.39946 9.13546 7.08152 9 6.75 9C6.41848 9 6.10054 9.13546 5.86612 9.37658C5.6317 9.6177 5.5 9.94472 5.5 10.2857ZM13.0603 13.0339C12.5446 13.4518 11.5223 13.9018 10.5 13.9018C9.47768 13.9018 8.45536 13.4518 7.93973 13.0339C7.6183 12.7745 7.15179 12.8296 6.89732 13.1602C6.64286 13.4908 6.69866 13.9707 7.02009 14.2324C7.91741 14.9602 9.28348 15.4286 10.5 15.4286C11.7165 15.4286 13.0826 14.9602 13.9799 14.2324C14.1344 14.107 14.2342 13.9235 14.2572 13.7225C14.2802 13.5214 14.2246 13.3191 14.1027 13.1602C13.9807 13.0013 13.8024 12.8987 13.6069 12.875C13.4114 12.8513 13.2148 12.9085 13.0603 13.0339ZM20.5 7.71429C20.5 6.29311 19.3817 5.14286 18 5.14286C17.0603 5.14286 16.2433 5.67551 15.8147 6.46531C14.529 5.74209 12.9643 5.27602 11.2589 5.16811L12.7522 1.72194L15.6071 2.56913C15.8638 3.3176 16.558 3.85714 17.375 3.85714C18.4107 3.85714 19.25 2.99388 19.25 1.92857C19.25 0.863265 18.4107 0 17.375 0C16.6607 0 16.0402 0.410969 15.7232 1.0148L12.5424 0.0688775C12.3703 0.0174621 12.1859 0.0319293 12.0234 0.1096C11.8609 0.187271 11.7313 0.322884 11.6585 0.491326L9.6317 5.1727C7.96875 5.29209 6.44196 5.75587 5.18527 6.46301C4.96856 6.06253 4.65166 5.72894 4.26743 5.49682C3.8832 5.2647 3.4456 5.14249 3 5.14286C1.6183 5.14286 0.5 6.29311 0.5 7.71429C0.5 8.76582 1.11384 9.66811 1.99107 10.0676C1.83259 10.5497 1.75 11.0548 1.75 11.5714C1.75 15.1209 5.66741 18 10.5 18C15.3326 18 19.25 15.1209 19.25 11.5714C19.25 11.0526 19.1652 10.5497 19.0089 10.0676C19.8862 9.66811 20.5 8.76582 20.5 7.71429ZM17.375 1.20536C17.4673 1.20536 17.5588 1.22406 17.6441 1.26041C17.7294 1.29675 17.8069 1.35003 17.8722 1.41718C17.9375 1.48434 17.9893 1.56406 18.0246 1.65181C18.0599 1.73955 18.0781 1.8336 18.0781 1.92857C18.0781 2.02355 18.0599 2.11759 18.0246 2.20533C17.9893 2.29308 17.9375 2.3728 17.8722 2.43996C17.8069 2.50712 17.7294 2.56039 17.6441 2.59673C17.5588 2.63308 17.4673 2.65179 17.375 2.65179C17.1885 2.65179 17.0097 2.57559 16.8778 2.43996C16.746 2.30433 16.6719 2.12038 16.6719 1.92857C16.6719 1.73676 16.746 1.55281 16.8778 1.41718C17.0097 1.28155 17.1885 1.20536 17.375 1.20536ZM1.75 7.71429C1.75 7.00485 2.31027 6.42857 3 6.42857C3.2368 6.42876 3.46867 6.49813 3.66863 6.62861C3.86859 6.75908 4.0284 6.94529 4.12946 7.16556C3.47545 7.67526 2.93527 8.26301 2.53348 8.90816C2.30234 8.81176 2.10436 8.6467 1.96482 8.43406C1.82527 8.22142 1.75048 7.97084 1.75 7.71429ZM10.5 16.4732C6.48661 16.4732 3.23438 14.2783 3.23438 11.5714C3.23438 8.86454 6.48661 6.66964 10.5 6.66964C14.5134 6.66964 17.7656 8.86454 17.7656 11.5714C17.7656 14.2783 14.5134 16.4732 10.5 16.4732ZM18.4643 8.90816C18.0647 8.26301 17.5223 7.67526 16.8683 7.16556C17.0692 6.73163 17.5 6.42857 17.9978 6.42857C18.6875 6.42857 19.2478 7.00485 19.2478 7.71429C19.25 8.25383 18.9241 8.7176 18.4643 8.90816ZM13 10.2857C13 10.6267 13.1317 10.9537 13.3661 11.1949C13.6005 11.436 13.9185 11.5714 14.25 11.5714C14.5815 11.5714 14.8995 11.436 15.1339 11.1949C15.3683 10.9537 15.5 10.6267 15.5 10.2857C15.5 9.94472 15.3683 9.6177 15.1339 9.37658C14.8995 9.13546 14.5815 9 14.25 9C13.9185 9 13.6005 9.13546 13.3661 9.37658C13.1317 9.6177 13 9.94472 13 10.2857Z" fill="#8E8EA9"/>
</svg>
