<svg width="20" height="16" viewBox="0 0 20 16" fill="none" xmlns="http://www.w3.org/2000/svg">
<path fill-rule="evenodd" clip-rule="evenodd" d="M12.1092 2.55029C10.456 3.23737 7.15087 4.66112 2.19537 6.82012C1.39071 7.14029 0.968539 7.45337 0.930289 7.75937C0.865122 8.27787 1.51396 8.48187 2.39512 8.75812C2.51554 8.79637 2.64021 8.83462 2.76771 8.87712C3.63612 9.15904 4.80346 9.48912 5.40979 9.50187C5.96087 9.51321 6.57571 9.28654 7.25429 8.82187C11.884 5.69529 14.2739 4.11571 14.424 4.08171C14.5303 4.05762 14.6776 4.02646 14.7768 4.11571C14.876 4.20354 14.866 4.37071 14.8561 4.41604C14.791 4.68946 12.2495 7.05387 10.932 8.27787C10.5211 8.65896 10.2307 8.92954 10.1712 8.99187C10.038 9.12929 9.90204 9.26104 9.7717 9.38712C8.9642 10.1635 8.36071 10.7471 9.80571 11.6991C10.4999 12.1567 11.0552 12.535 11.6091 12.9118C12.214 13.324 12.8175 13.7349 13.5995 14.2477C13.7979 14.378 13.9877 14.5126 14.1733 14.6444C14.8774 15.1473 15.5106 15.5978 16.2926 15.527C16.746 15.4845 17.2163 15.058 17.4543 13.7845C18.0167 10.7726 19.1245 4.25029 19.381 1.56146C19.3966 1.33821 19.3871 1.11392 19.3526 0.89279C19.332 0.714192 19.245 0.549859 19.109 0.432373C18.9064 0.266623 18.5919 0.231206 18.4502 0.23404C17.8113 0.245373 16.831 0.586791 12.1092 2.55029Z" fill="#8E8EA9"/>
</svg>
