<svg width="18" height="14" viewBox="0 0 18 14" fill="none" xmlns="http://www.w3.org/2000/svg">
<path d="M15.414 3.92591C15.421 4.07112 15.4228 4.21633 15.4228 4.358C15.4228 8.78508 12.0565 13.8868 5.8975 13.8868C4.0776 13.8899 2.29557 13.3672 0.765625 12.3816C1.02594 12.4135 1.29333 12.4259 1.56427 12.4259C3.13323 12.4259 4.57646 11.8929 5.72219 10.9933C5.02398 10.9796 4.34744 10.7484 3.78686 10.3319C3.22629 9.91547 2.80961 9.33449 2.5949 8.66997C3.09632 8.76532 3.61286 8.74534 4.10542 8.61154C3.34759 8.45829 2.66608 8.04766 2.17646 7.44928C1.68684 6.85089 1.41925 6.10158 1.41906 5.32841V5.28768C1.87063 5.53737 2.38771 5.68966 2.93667 5.70737C2.22621 5.23443 1.72327 4.50793 1.5307 3.67646C1.33814 2.84499 1.47051 1.97136 1.90073 1.23425C2.7418 2.26841 3.79067 3.11442 4.97944 3.7175C6.16822 4.32058 7.4704 4.66729 8.80167 4.73518C8.63242 4.01677 8.70526 3.26257 9.00887 2.58983C9.31248 1.91708 9.82985 1.3635 10.4805 1.01513C11.1312 0.666761 11.8788 0.54313 12.607 0.663456C13.3352 0.783782 14.0033 1.14132 14.5073 1.6805C15.2567 1.53223 15.9753 1.25736 16.6323 0.867683C16.3825 1.64355 15.8596 2.30237 15.1607 2.72175C15.8245 2.6418 16.4727 2.46334 17.0839 2.19227C16.6349 2.865 16.0694 3.4521 15.414 3.92591Z" fill="#8E8EA9"/>
</svg>
