<svg width="21" height="20" viewBox="0 0 21 20" fill="none" xmlns="http://www.w3.org/2000/svg">
<path fill-rule="evenodd" clip-rule="evenodd" d="M15.0125 11.985C14.7642 11.8609 13.5467 11.2625 13.32 11.1792C13.0933 11.0967 12.9283 11.0559 12.7625 11.3042C12.5975 11.5509 12.1233 12.1092 11.9792 12.2742C11.8342 12.44 11.69 12.46 11.4425 12.3367C11.195 12.2117 10.3967 11.9509 9.45083 11.1075C8.715 10.4509 8.2175 9.64003 8.07333 9.3917C7.92917 9.1442 8.0575 9.01003 8.18167 8.8867C8.29333 8.77587 8.42917 8.59753 8.55333 8.45337C8.6775 8.30837 8.71833 8.20503 8.80083 8.0392C8.88417 7.8742 8.8425 7.73003 8.78 7.60587C8.71833 7.4817 8.22333 6.26253 8.01667 5.7667C7.81583 5.2842 7.61167 5.35003 7.46 5.3417C7.315 5.33503 7.15 5.33337 6.985 5.33337C6.82 5.33337 6.55167 5.39503 6.325 5.64337C6.0975 5.89087 5.45833 6.49003 5.45833 7.7092C5.45833 8.92753 6.345 10.105 6.46917 10.2709C6.59333 10.4359 8.215 12.9375 10.6992 14.01C11.2908 14.265 11.7517 14.4175 12.1108 14.5309C12.7042 14.72 13.2442 14.6934 13.6708 14.6292C14.1458 14.5584 15.1358 14.03 15.3425 13.4517C15.5483 12.8734 15.5483 12.3775 15.4867 12.2742C15.425 12.1709 15.2608 12.1092 15.0125 11.985ZM10.4942 18.1542H10.4908C9.01536 18.1545 7.56698 17.7578 6.2975 17.0059L5.9975 16.8275L2.87917 17.6459L3.71167 14.6059L3.51583 14.2942C2.69095 12.9812 2.25441 11.4615 2.25667 9.91087C2.25833 5.3692 5.95333 1.6742 10.4975 1.6742C12.6975 1.6742 14.7658 2.53253 16.3208 4.0892C17.0878 4.85302 17.6957 5.76134 18.1094 6.76162C18.5231 7.76189 18.7343 8.83427 18.7308 9.9167C18.7292 14.4584 15.0342 18.1542 10.4942 18.1542ZM17.5042 2.9067C16.586 1.98247 15.4935 1.24965 14.2901 0.750701C13.0866 0.251754 11.7961 -0.00339687 10.4933 3.4148e-05C5.03167 3.4148e-05 0.585 4.44587 0.583333 9.91003C0.580803 11.649 1.03698 13.3579 1.90583 14.8642L0.5 20L5.75333 18.6217C7.20656 19.4135 8.83508 19.8283 10.49 19.8284H10.4942C15.9558 19.8284 20.4025 15.3825 20.4042 9.91753C20.4082 8.61526 20.154 7.32512 19.6562 6.12173C19.1584 4.91834 18.427 3.82559 17.5042 2.9067Z" fill="#8E8EA9"/>
</svg>
