<svg width="18" height="19" viewBox="0 0 18 19" fill="none" xmlns="http://www.w3.org/2000/svg">
<path d="M12.5234 14.7345H5.47344C5.15844 14.7345 4.80594 14.487 4.70094 14.187L1.59594 5.50203C1.15344 4.25703 1.67094 3.87453 2.73594 4.63953L5.66094 6.73203C6.14844 7.06953 6.70344 6.89703 6.91344 6.34953L8.23344 2.83203C8.65344 1.70703 9.35094 1.70703 9.77094 2.83203L11.0909 6.34953C11.3009 6.89703 11.8559 7.06953 12.3359 6.73203L15.0809 4.77453C16.2509 3.93453 16.8134 4.36203 16.3334 5.71953L13.3034 14.202C13.1909 14.487 12.8384 14.7345 12.5234 14.7345Z" stroke="#8592D6" stroke-width="1.5" stroke-linecap="round" stroke-linejoin="round"/>
<path d="M4.875 17H13.125" stroke="#8592D6" stroke-width="1.5" stroke-linecap="round" stroke-linejoin="round"/>
<path d="M7.125 11H10.875" stroke="#8592D6" stroke-width="1.5" stroke-linecap="round" stroke-linejoin="round"/>
</svg>
