<svg width="18" height="19" viewBox="0 0 18 19" fill="none" xmlns="http://www.w3.org/2000/svg">
<path d="M9.75 7.25H5.25" stroke="#8592D6" stroke-width="1.5" stroke-linecap="round" stroke-linejoin="round"/>
<path d="M16.4992 8.72786V10.2729C16.4992 10.6854 16.1692 11.0229 15.7492 11.0379H14.2792C13.4692 11.0379 12.7267 10.4454 12.6592 9.63538C12.6142 9.16288 12.7942 8.72037 13.1092 8.41287C13.3867 8.12787 13.7692 7.96289 14.1892 7.96289H15.7492C16.1692 7.97789 16.4992 8.31536 16.4992 8.72786Z" stroke="#8592D6" stroke-width="1.5" stroke-linecap="round" stroke-linejoin="round"/>
<path d="M13.11 8.41249C12.795 8.71999 12.615 9.16249 12.66 9.63499C12.7275 10.445 13.47 11.0375 14.28 11.0375H15.75V12.125C15.75 14.375 14.25 15.875 12 15.875H5.25C3 15.875 1.5 14.375 1.5 12.125V6.875C1.5 4.835 2.73 3.41 4.6425 3.17C4.8375 3.14 5.04 3.125 5.25 3.125H12C12.195 3.125 12.3825 3.13249 12.5625 3.16249C14.4975 3.38749 15.75 4.82 15.75 6.875V7.96251H14.19C13.77 7.96251 13.3875 8.12749 13.11 8.41249Z" stroke="#8592D6" stroke-width="1.5" stroke-linecap="round" stroke-linejoin="round"/>
</svg>
