<svg width="24" height="25" viewBox="0 0 24 25" fill="none" xmlns="http://www.w3.org/2000/svg">
<path opacity="0.4" d="M20.5 10.69H17.61C15.24 10.69 13.31 8.76 13.31 6.39V3.5C13.31 2.95 12.86 2.5 12.31 2.5H8.07C4.99 2.5 2.5 4.5 2.5 8.07V16.93C2.5 20.5 4.99 22.5 8.07 22.5H15.93C19.01 22.5 21.5 20.5 21.5 16.93V11.69C21.5 11.14 21.05 10.69 20.5 10.69Z" fill="#335BE9"/>
<path d="M15.7997 2.71048C15.3897 2.30048 14.6797 2.58048 14.6797 3.15048V6.64048C14.6797 8.10048 15.9197 9.31048 17.4297 9.31048C18.3797 9.32048 19.6997 9.32048 20.8297 9.32048C21.3997 9.32048 21.6997 8.65048 21.2997 8.25048C19.8597 6.80048 17.2797 4.19048 15.7997 2.71048Z" fill="#335BE9"/>
<path d="M13.5 14.25H7.5C7.09 14.25 6.75 13.91 6.75 13.5C6.75 13.09 7.09 12.75 7.5 12.75H13.5C13.91 12.75 14.25 13.09 14.25 13.5C14.25 13.91 13.91 14.25 13.5 14.25Z" fill="#335BE9"/>
<path d="M11.5 18.25H7.5C7.09 18.25 6.75 17.91 6.75 17.5C6.75 17.09 7.09 16.75 7.5 16.75H11.5C11.91 16.75 12.25 17.09 12.25 17.5C12.25 17.91 11.91 18.25 11.5 18.25Z" fill="#335BE9"/>
</svg>
