<svg width="24" height="25" viewBox="0 0 24 25" fill="none" xmlns="http://www.w3.org/2000/svg">
<path opacity="0.4" d="M21.0901 22C21.0901 22.28 20.8701 22.5 20.5901 22.5H3.41016C3.13016 22.5 2.91016 22.28 2.91016 22C2.91016 17.86 6.99015 14.5 12.0002 14.5C13.0302 14.5 14.0302 14.64 14.9502 14.91C14.3602 15.61 14.0002 16.52 14.0002 17.5C14.0002 18.25 14.2101 18.96 14.5801 19.56C14.7801 19.9 15.0401 20.21 15.3401 20.47C16.0401 21.11 16.9702 21.5 18.0002 21.5C19.1202 21.5 20.1302 21.04 20.8502 20.3C21.0102 20.84 21.0901 21.41 21.0901 22Z" fill="#335BE9"/>
<rect x="13.332" y="13.167" width="9.33333" height="9.33333" rx="4.66667" fill="#335BE9"/>
<path d="M17.9987 18.5003C18.3669 18.5003 18.6654 18.2018 18.6654 17.8337C18.6654 17.4655 18.3669 17.167 17.9987 17.167C17.6305 17.167 17.332 17.4655 17.332 17.8337C17.332 18.2018 17.6305 18.5003 17.9987 18.5003Z" stroke="white" stroke-width="0.5" stroke-miterlimit="10" stroke-linecap="round" stroke-linejoin="round"/>
<path d="M14.6641 18.1441V17.5226C14.6641 17.1553 14.9473 16.8516 15.2971 16.8516C15.9001 16.8516 16.1467 16.3996 15.8435 15.8451C15.6702 15.5273 15.7735 15.1141 16.0767 14.9305L16.6531 14.5808C16.9163 14.4149 17.2561 14.5137 17.4127 14.7927L17.4493 14.8598C17.7492 15.4143 18.2423 15.4143 18.5455 14.8598L18.5821 14.7927C18.7387 14.5137 19.0785 14.4149 19.3417 14.5808L19.9181 14.9305C20.2213 15.1141 20.3246 15.5273 20.1513 15.8451C19.8481 16.3996 20.0947 16.8516 20.6977 16.8516C21.0442 16.8516 21.3307 17.1518 21.3307 17.5226V18.1441C21.3307 18.5114 21.0475 18.8151 20.6977 18.8151C20.0947 18.8151 19.8481 19.2671 20.1513 19.8216C20.3246 20.1429 20.2213 20.5526 19.9181 20.7362L19.3417 21.0858C19.0785 21.2518 18.7387 21.1529 18.5821 20.8739L18.5455 20.8068C18.2456 20.2524 17.7525 20.2524 17.4493 20.8068L17.4127 20.8739C17.2561 21.1529 16.9163 21.2518 16.6531 21.0858L16.0767 20.7362C15.7735 20.5526 15.6702 20.1394 15.8435 19.8216C16.1467 19.2671 15.9001 18.8151 15.2971 18.8151C14.9473 18.8151 14.6641 18.5114 14.6641 18.1441Z" stroke="white" stroke-width="0.5" stroke-miterlimit="10" stroke-linecap="round" stroke-linejoin="round"/>
<path d="M12 12.5C14.7614 12.5 17 10.2614 17 7.5C17 4.73858 14.7614 2.5 12 2.5C9.23858 2.5 7 4.73858 7 7.5C7 10.2614 9.23858 12.5 12 12.5Z" fill="#335BE9"/>
</svg>
