<svg width="32" height="32" viewBox="0 0 32 32" fill="none" xmlns="http://www.w3.org/2000/svg">
<path d="M0 16C0 7.16344 7.16344 0 16 0C24.8366 0 32 7.16344 32 16C32 24.8366 24.8366 32 16 32C7.16344 32 0 24.8366 0 16Z" fill="white"/>
<path fill-rule="evenodd" clip-rule="evenodd" d="M14.4971 8.07011C11.3772 8.46437 8.75544 10.4386 7.65638 13.2214C7.32412 14.0627 7.17719 14.7802 7.14359 15.7261C7.09485 17.0981 7.36171 18.3054 7.98289 19.523C8.37197 20.2857 9.08909 21.2412 9.27272 21.2415C9.43384 21.2418 9.42302 21.1901 9.21069 20.9446C8.48458 20.1052 7.86255 18.9367 7.60104 17.9208C7.04243 15.7509 7.44472 13.5242 8.72206 11.7162C10.024 9.87345 11.9066 8.71907 14.2725 8.31292C14.8677 8.21074 16.3275 8.21074 16.9227 8.31292C19.2657 8.71513 21.1805 9.88261 22.4677 11.6937C22.9845 12.4209 23.4726 13.5032 23.6493 14.3141C23.6913 14.5066 23.7362 14.6636 23.7492 14.6628C23.7622 14.6621 23.8109 14.6343 23.8574 14.6009C23.9398 14.542 23.9389 14.5286 23.8212 14.0848C22.7725 10.1312 18.7453 7.5333 14.4971 8.07011ZM14.4041 8.48856C12.5169 8.77874 10.8012 9.65673 9.59213 10.9511C6.97434 13.7536 6.87075 17.8838 9.34549 20.7869C9.52161 20.9936 9.68794 21.1507 9.71876 21.1395C9.7493 21.1284 9.84651 21.1066 9.93472 21.0909C10.0229 21.0753 10.0951 21.0544 10.0951 21.0445C10.0951 21.0346 9.96581 20.8834 9.80774 20.7084C9.53387 20.4052 9.06201 19.7917 9.06201 19.7389C9.06201 19.7252 9.12772 19.7146 9.20799 19.7154C9.33942 19.7167 9.3772 19.7496 9.5867 20.0443C9.71467 20.2244 9.95723 20.5087 10.1257 20.676L10.432 20.9803L11.0511 20.8033L11.6703 20.6264L11.2196 20.6143L10.7689 20.6022V19.8618V19.1215L9.72895 19.1101L8.689 19.0987L8.5401 18.769C8.45821 18.5877 8.36133 18.3442 8.32476 18.228L8.25833 18.0166H8.39178C8.48952 18.0166 8.53485 18.0421 8.56126 18.1121C8.58107 18.1646 8.65338 18.3556 8.72193 18.5364L8.84653 18.8653H9.8077H10.7689V18.691C10.7689 18.5495 10.7823 18.5216 10.84 18.5425C10.879 18.5567 10.9296 18.5682 10.9523 18.5682C10.976 18.5682 10.9935 18.9465 10.9935 19.4594V20.3505L11.7683 20.3503L12.5432 20.35L13.2121 20.1156C13.58 19.9867 13.9082 19.8668 13.9415 19.8492C13.9843 19.8266 13.9149 19.7553 13.7051 19.6065C13.3354 19.3441 12.9169 18.9162 12.6541 18.5316L12.4533 18.2378L11.7019 18.2227C10.9686 18.2079 10.9478 18.205 10.8432 18.1015C10.6931 17.953 10.3313 16.9304 10.395 16.8348C10.4347 16.7753 10.5499 16.763 11.1597 16.7531L11.8777 16.7415L11.8736 16.1378C11.8713 15.8058 11.8855 15.4625 11.9052 15.375L11.9409 15.2158H10.9484C9.90512 15.2158 9.74459 15.1908 9.66894 15.0158C9.55404 14.7502 9.2866 13.9522 9.2866 13.875C9.2866 13.8239 9.31858 13.7705 9.35766 13.7563C9.39674 13.7422 10.1215 13.7306 10.9683 13.7306H12.508L12.6662 13.5055C13.3912 12.4739 14.5509 11.757 15.8393 11.5438C16.5824 11.4209 17.4669 11.4847 18.1734 11.7124C18.8473 11.9295 19.8601 12.5121 19.976 12.7492C20.0151 12.8291 20.0093 12.8727 19.9481 12.9609C19.8054 13.1667 19.021 13.9003 18.9437 13.9003C18.9016 13.9003 18.7783 13.8362 18.6696 13.7579C17.8913 13.1964 17.0085 12.9836 16.1591 13.1527C15.5935 13.2653 15.1201 13.5155 14.6723 13.9385C14.1156 14.4644 13.8336 15.036 13.754 15.7997C13.699 16.3271 13.8793 17.0452 14.1907 17.5388C14.3895 17.8536 14.8605 18.3014 15.1938 18.4923C15.4933 18.6638 16.0832 18.8659 16.2793 18.8642C16.3491 18.8636 16.8407 18.6582 17.3719 18.4077L18.3376 17.9523V17.7405V17.5286L17.5877 17.5169C16.6838 17.5029 16.7473 17.5468 16.4668 16.7437C16.3063 16.2843 16.2858 16.1885 16.3356 16.1318C16.3877 16.0725 16.6035 16.0645 18.1603 16.0645C19.7055 16.0645 19.9346 16.0729 19.9964 16.1312C20.0511 16.1829 20.067 16.2927 20.067 16.6181V17.0382L20.579 16.7461C21.1821 16.402 22.2231 15.7662 22.2231 15.742C22.2231 15.7327 21.8289 15.7251 21.3472 15.7251H20.4713L20.4711 15.9266L20.471 16.1282L20.3849 15.9949C20.3376 15.9216 20.277 15.8489 20.2503 15.8333C20.2173 15.814 20.2018 15.4051 20.2018 14.5554C20.2018 13.387 20.2076 13.2957 20.2916 13.1476C20.341 13.0605 20.3814 12.9214 20.3814 12.8384C20.3814 12.7555 20.341 12.6128 20.2916 12.5212C20.2231 12.3944 20.2018 12.2709 20.2018 12.003V11.6512H19.6299C19.1532 11.6512 19.0206 11.6366 18.8326 11.5631L18.6072 11.4749L18.621 10.969L18.6349 10.463H18.1831H17.7312V9.89246V9.32187L17.2821 9.22618C16.8437 9.13278 16.8329 9.1276 16.8329 9.0112C16.8329 8.89471 16.8374 8.89259 17.0238 8.92026C17.1288 8.93583 17.3764 8.9899 17.574 9.04035L17.9334 9.1321L17.9459 9.69148L17.9584 10.2509H18.4063H18.8542V10.845V11.4391H19.6627H20.4713V12.1817V12.9243H21.4991C22.439 12.9243 22.5291 12.9307 22.5512 12.9986C22.5644 13.0394 22.6364 13.2106 22.711 13.3789C22.7857 13.5473 22.8669 13.7537 22.8914 13.8376C22.9359 13.99 22.9358 13.9902 22.7992 13.9771C22.6729 13.965 22.6528 13.9392 22.5391 13.644C22.3224 13.0809 22.4483 13.1365 21.3905 13.1365H20.4713V13.4548V13.773H21.0777H21.6841V14.1974V14.6217H21.9259C22.1387 14.6217 22.1709 14.6332 22.1948 14.7172C22.2097 14.7698 22.2221 14.827 22.2225 14.8445C22.2228 14.862 22.0513 14.8763 21.8413 14.8763H21.4595V14.4308V13.9852H20.9654H20.4713V14.7278V15.4704L21.5605 15.4697L22.6498 15.469L23.0878 15.165C23.6015 14.8084 23.5877 14.8548 23.392 14.1375C22.7021 11.6097 20.7496 9.62304 18.158 8.81171C17.2272 8.52035 16.8481 8.46247 15.7548 8.4449C15.0716 8.43391 14.6765 8.44668 14.4041 8.48856ZM15.2607 10.0599C15.2607 10.7918 15.2436 11.3118 15.2195 11.3118C15.1968 11.3118 15.1463 11.3233 15.1072 11.3375C15.0434 11.3606 15.0361 11.2333 15.0361 10.0857V8.80806H15.1484H15.2607V10.0599ZM16.1591 8.93537C16.1591 9.04286 16.1416 9.06267 16.0468 9.06267C15.952 9.06267 15.9345 9.04286 15.9345 8.93537C15.9345 8.82788 15.952 8.80806 16.0468 8.80806C16.1416 8.80806 16.1591 8.82788 16.1591 8.93537ZM14.3624 9.01527C14.3624 9.11211 14.3389 9.1419 14.2501 9.15794C14.1521 9.17564 14.1378 9.1632 14.1378 9.06034C14.1378 8.9955 14.1631 8.93282 14.1939 8.92102C14.3196 8.87311 14.3624 8.89709 14.3624 9.01527ZM13.464 9.22465C13.464 9.33273 13.4397 9.35149 13.2108 9.41964C13.0715 9.4611 12.8694 9.53074 12.7616 9.5744L12.5656 9.65376V10.5464V11.4391H12.9025H13.2394V10.845V10.2509H13.6886H14.1378V10.0224C14.1378 9.81243 14.1469 9.79235 14.2501 9.77368L14.3624 9.7534V10.1067V10.46L13.9244 10.4721L13.4865 10.4843L13.4738 10.9617L13.461 11.4391L14.1026 11.4426L14.7442 11.4461L14.5196 11.5461C14.2968 11.6452 14.2817 11.6461 12.6442 11.6487L10.9935 11.6512V12.5V13.3487H10.8843C10.8053 13.3487 10.7712 13.3223 10.7608 13.2532C10.7469 13.1608 10.7305 13.1577 10.2523 13.1577C9.77414 13.1577 9.75779 13.1608 9.74387 13.2532C9.73349 13.3223 9.6994 13.3487 9.62034 13.3487C9.51932 13.3487 9.51119 13.3329 9.51119 13.1365V12.9243H10.14H10.7689V12.1817V11.4391H11.5542H12.3394L12.3515 10.4524L12.3635 9.46581L12.8351 9.28622C13.4044 9.06946 13.464 9.06361 13.464 9.22465ZM24.5364 9.34682C23.8777 9.40271 22.0254 9.70209 21.9608 9.76307C21.9441 9.7789 22.2957 10.1737 22.881 10.7964L23.0547 10.9812L23.3913 10.9335C23.9416 10.8556 25.0935 10.7604 25.4877 10.7602C26.287 10.76 26.9324 10.9203 27.099 11.1606C27.1583 11.2461 27.1708 11.329 27.1528 11.5167C27.0673 12.4079 25.5646 13.9942 23.321 15.5619C20.5164 17.5214 16.4922 19.5016 12.7791 20.7492C9.57125 21.827 6.45535 22.2949 5.27153 21.8764C4.94115 21.7596 4.83968 21.6344 4.83968 21.3436C4.83968 20.8339 5.31424 20.1174 6.25007 19.2138L6.87808 18.6075L6.7524 17.8134C6.68331 17.3767 6.61643 16.9674 6.60376 16.9039L6.58081 16.7885L6.2485 17.0481C4.87602 18.1206 3.85422 19.215 3.38298 20.1171C2.99533 20.8592 2.9126 21.3533 3.08679 21.8862C3.34426 22.6737 4.05213 23.1609 5.27485 23.3922C5.80588 23.4926 7.1943 23.4918 7.98397 23.3907C14.0589 22.6127 22.8617 18.5658 27.0082 14.6448C28.0819 13.6295 28.7091 12.7287 28.9255 11.8913C29.0106 11.5616 29.0166 11.4778 28.9745 11.2019C28.8245 10.2182 27.9722 9.5879 26.5128 9.38137C26.1033 9.3234 25.0326 9.30468 24.5364 9.34682ZM19.775 9.97237C20.6601 10.5154 21.4748 11.2978 22.0647 12.1711L22.1436 12.2878L21.9924 12.287C21.8615 12.2863 21.8222 12.2587 21.6984 12.0798C21.1198 11.2435 20.1399 10.4134 19.0676 9.85091C18.8007 9.71092 18.7644 9.67706 18.7644 9.5677V9.44353L19.09 9.5977C19.2692 9.68249 19.5774 9.85108 19.775 9.97237ZM16.1591 9.95382V10.2509H16.6083H17.0575V10.6905V11.1303L16.9452 11.11C16.8375 11.0905 16.8329 11.0769 16.8329 10.7764V10.463H16.3837H15.9345V10.0599C15.9345 9.65817 15.9349 9.65677 16.0468 9.65677C16.1559 9.65677 16.1591 9.66526 16.1591 9.95382ZM11.5705 10.1656C10.579 10.7763 9.68183 11.7033 9.09686 12.7216C8.88651 13.0877 8.84599 13.1342 8.73635 13.1353C8.66843 13.1359 8.61282 13.1265 8.61282 13.1143C8.61282 13.1022 8.6961 12.935 8.79789 12.743C9.37199 11.6598 10.2688 10.7062 11.3753 10.0027L11.6448 9.83135L11.6597 9.96642C11.6711 10.0701 11.6504 10.1164 11.5705 10.1656ZM13.1496 12.3939C13.0477 12.4963 13.0244 12.5 12.468 12.5H11.8919V12.9243V13.3487H11.7796H11.6673V12.8182V12.2878H12.4612H13.2551L13.1496 12.3939ZM8.88233 13.8791C8.88233 13.9741 8.86405 13.9852 8.70765 13.9852H8.53296L8.45965 14.2504C8.41931 14.3963 8.3708 14.592 8.3518 14.6854C8.32274 14.8285 8.29821 14.8573 8.19558 14.8685C8.10264 14.8788 8.0738 14.8637 8.07385 14.8049C8.07394 14.7155 8.28761 13.8663 8.32409 13.8105C8.33756 13.7899 8.46868 13.773 8.61547 13.773C8.87016 13.773 8.88233 13.7779 8.88233 13.8791ZM19.5729 14.8127V15.6826H19.4381H19.3034V14.9191C19.3034 14.1954 19.3085 14.1501 19.4013 14.0492C19.4552 13.9906 19.5159 13.9428 19.5361 13.9428C19.5563 13.9428 19.5729 14.3342 19.5729 14.8127ZM23.1215 14.749C23.1215 14.855 23.1034 14.8763 23.014 14.8763C22.91 14.8763 22.8519 14.8067 22.8519 14.6819C22.8519 14.6433 22.9003 14.6217 22.9867 14.6217C23.1065 14.6217 23.1215 14.6359 23.1215 14.749ZM9.65717 15.4871C9.70043 15.5181 9.73578 15.5843 9.73578 15.6342C9.73578 15.7206 9.71512 15.7251 9.30906 15.7251H8.88233V15.5996V15.4742L9.20799 15.4595C9.38713 15.4515 9.54376 15.4417 9.55611 15.4378C9.56846 15.4339 9.61392 15.4561 9.65717 15.4871ZM8.23582 15.5376C8.22082 15.5745 8.20856 15.6318 8.20856 15.6649C8.20856 15.7008 8.16324 15.7251 8.09626 15.7251C8.00144 15.7251 7.98397 15.7052 7.98397 15.5978C7.98397 15.4836 7.99838 15.4704 8.12353 15.4704C8.23232 15.4704 8.25707 15.4853 8.23582 15.5376ZM10.9935 15.9529V16.3504L10.6623 16.3705C10.4195 16.3852 10.2948 16.415 10.1949 16.4822C10.0649 16.5697 10.0122 16.5738 9.0214 16.5738H7.98397V16.4465V16.3192H9.37643H10.7689V15.9372C10.7689 15.5582 10.7698 15.5553 10.8812 15.5553C10.993 15.5553 10.9935 15.5571 10.9935 15.9529ZM8.33541 17.3089C8.34861 17.4179 8.33846 17.4275 8.22311 17.415C8.12164 17.404 8.09334 17.3773 8.08171 17.2814C8.0685 17.1725 8.07865 17.1629 8.194 17.1753C8.29548 17.1863 8.32377 17.2131 8.33541 17.3089ZM9.73578 17.5922V18.0166H10.0404C10.3376 18.0166 10.3462 18.0197 10.3958 18.1439L10.4467 18.2712H9.97892H9.51119V17.8468V17.4225H9.26414C9.08083 17.4225 9.01709 17.407 9.01709 17.3623C9.01709 17.3292 9.00483 17.2719 8.98982 17.235C8.96624 17.177 9.01507 17.1679 9.34917 17.1679H9.73578V17.5922ZM23.7373 17.728C23.6592 17.7953 23.589 17.9444 23.511 18.2085C22.8206 20.5466 20.7804 22.5619 18.2729 23.3825C18.0149 23.4669 17.55 23.5871 17.2398 23.6495C16.7217 23.7537 16.5896 23.7631 15.6201 23.7648C14.6914 23.7664 14.5031 23.7548 14.0541 23.6689C13.4444 23.5523 12.9634 23.4137 12.3831 23.1875C12.0062 23.0406 11.9374 23.0259 11.8217 23.068L11.6897 23.116L11.8652 23.2017C12.2129 23.3716 12.9563 23.629 13.4411 23.7476C14.1742 23.9268 14.7995 24 15.5976 24C16.3957 24 17.0212 23.9268 17.7537 23.7476C20.4864 23.0793 22.6866 21.1479 23.6056 18.6107C23.7981 18.0794 23.9081 17.6847 23.8728 17.6514C23.8606 17.6398 23.7996 17.6743 23.7373 17.728ZM22.71 18.3489C22.3725 18.5512 22.0036 18.7688 21.8902 18.8324C21.7535 18.9091 21.6841 18.977 21.6841 19.034C21.6841 19.1027 21.6547 19.1199 21.5375 19.1199C21.4355 19.1199 21.1316 19.2554 20.5381 19.5654C20.069 19.8104 19.2961 20.1945 18.8205 20.4188L17.9558 20.8267V21.31V21.7934H17.509H17.0622L17.0486 22.0161C17.0368 22.2102 17.022 22.2407 16.9339 22.2525C16.8359 22.2657 16.8329 22.2553 16.8329 21.9024V21.5387H17.2821H17.7312V21.2417C17.7312 21.0783 17.7223 20.9446 17.7113 20.9446C17.7003 20.9446 17.3516 21.0875 16.9365 21.2621L16.1816 21.5797L16.1693 22.3742C16.157 23.1716 16.1441 23.2337 15.9907 23.2355C15.9478 23.236 15.9345 23.0517 15.9345 22.4538V21.6714L15.5976 21.8043L15.2607 21.9371V22.1668C15.2607 22.3588 15.2491 22.3923 15.1897 22.3708C15.1506 22.3566 15.1001 22.345 15.0774 22.345C15.0547 22.345 15.0361 22.2719 15.0361 22.1825V22.0201L14.2487 22.2979C13.679 22.4989 13.4647 22.593 13.4739 22.6381C13.4853 22.694 13.6494 22.7441 14.2388 22.8716C14.3385 22.8931 14.3624 22.9219 14.3624 23.0206V23.1429L13.9825 23.0645C13.293 22.9221 13.2394 22.9 13.2394 22.7581C13.2394 22.6756 13.2203 22.6398 13.1833 22.653C13.1524 22.664 12.9503 22.7273 12.7341 22.7936C12.5179 22.8599 12.341 22.9268 12.341 22.9422C12.341 22.9799 12.9908 23.2076 13.4654 23.3363C14.4373 23.5998 15.8675 23.6769 16.8553 23.5189C18.606 23.239 20.0966 22.5091 21.3247 21.3303C21.9435 20.7364 22.3449 20.2158 22.7344 19.5018C23.0143 18.9888 23.3626 18.1388 23.3364 18.0328C23.3288 18.0024 23.0711 18.1324 22.71 18.3489ZM11.8919 19.035V19.5018H12.4449H12.998L13.1271 19.6291L13.2562 19.7564H12.4617H11.6673V19.1623V18.5682H11.7796H11.8919V19.035ZM22.4053 19.281C21.8525 20.2976 21.004 21.2316 20.0378 21.8869C19.5673 22.206 19.528 22.219 19.528 22.056C19.528 21.9433 19.5729 21.8982 19.8986 21.6842C20.455 21.3186 21.332 20.4654 21.7138 19.9185C21.8879 19.6692 22.0989 19.3307 22.1828 19.1663C22.3257 18.8864 22.3448 18.8674 22.4833 18.8664L22.6313 18.8653L22.4053 19.281ZM20.4713 20.1596V20.6052L19.674 20.6027L18.8767 20.6002L19.2128 20.4754C19.4755 20.3778 19.6203 20.3505 19.8754 20.3505H20.2018V20.1874C20.2018 20.0788 20.2314 19.9988 20.2904 19.9484C20.3392 19.9067 20.3911 19.8369 20.4058 19.7933C20.4573 19.64 20.4713 19.7182 20.4713 20.1596ZM18.8542 21.5772V22.5493L18.5285 22.6763C18.2225 22.7956 17.7987 22.9391 17.7521 22.9391C17.7406 22.9391 17.7312 22.8831 17.7312 22.8146C17.7312 22.7225 17.7575 22.6827 17.8323 22.6612C17.8879 22.6452 18.0901 22.5757 18.2815 22.5067L18.6296 22.3813V21.518C18.6296 20.867 18.6434 20.6494 18.6858 20.6332C18.8521 20.5698 18.8542 20.5814 18.8542 21.5772ZM17.0575 22.9766C17.0575 23.0734 17.034 23.1032 16.9452 23.1193C16.8472 23.1369 16.8329 23.1245 16.8329 23.0216C16.8329 22.9568 16.8582 22.8941 16.889 22.8823C17.0147 22.8344 17.0575 22.8584 17.0575 22.9766ZM15.2607 23.1089C15.2607 23.1789 15.2422 23.2362 15.2195 23.2362C15.1095 23.2362 15.0361 23.175 15.0361 23.0831C15.0361 23.0031 15.06 22.9815 15.1484 22.9815C15.2433 22.9815 15.2607 23.0014 15.2607 23.1089Z" fill="#1A203F"/>
<path d="M16 31C7.71573 31 1 24.2843 1 16H-1C-1 25.3888 6.61116 33 16 33V31ZM31 16C31 24.2843 24.2843 31 16 31V33C25.3888 33 33 25.3888 33 16H31ZM16 1C24.2843 1 31 7.71573 31 16H33C33 6.61116 25.3888 -1 16 -1V1ZM16 -1C6.61116 -1 -1 6.61116 -1 16H1C1 7.71573 7.71573 1 16 1V-1Z" fill="#EAEAEF"/>
</svg>
