<svg width="15" height="15" viewBox="0 0 15 15" fill="none" xmlns="http://www.w3.org/2000/svg">
<path d="M7.49935 13.3333C10.721 13.3333 13.3327 10.7216 13.3327 7.49996C13.3327 4.2783 10.721 1.66663 7.49935 1.66663C4.27769 1.66663 1.66602 4.2783 1.66602 7.49996C1.66602 10.7216 4.27769 13.3333 7.49935 13.3333Z" stroke="white" stroke-width="1.2" stroke-linecap="round" stroke-linejoin="round"/>
<path d="M5.80273 5.74997C5.93988 5.36011 6.21057 5.03136 6.56687 4.82196C6.92318 4.61256 7.34209 4.53601 7.74942 4.60588C8.15675 4.67575 8.52621 4.88752 8.79236 5.20369C9.05851 5.51986 9.20418 5.92002 9.20357 6.3333C9.20357 7.49997 7.45357 8.0833 7.45357 8.0833" stroke="white" stroke-width="1.2" stroke-linecap="round" stroke-linejoin="round"/>
<path d="M7.5 10.4166H7.50667" stroke="white" stroke-width="1.2" stroke-linecap="round" stroke-linejoin="round"/>
</svg>
