<svg width="24" height="25" viewBox="0 0 24 25" fill="none" xmlns="http://www.w3.org/2000/svg">
<path opacity="0.4" d="M18 19.3597H17.24C16.44 19.3597 15.68 19.6697 15.12 20.2297L13.41 21.9197C12.63 22.6897 11.36 22.6897 10.58 21.9197L8.87 20.2297C8.31 19.6697 7.54 19.3597 6.75 19.3597H6C4.34 19.3597 3 18.0298 3 16.3898V5.47974C3 3.83974 4.34 2.50977 6 2.50977H18C19.66 2.50977 21 3.83974 21 5.47974V16.3898C21 18.0198 19.66 19.3597 18 19.3597Z" fill="#335BE9"/>
<path d="M10.3783 15.0099H7.69827C7.25827 15.0099 6.84827 14.7999 6.58827 14.4399C6.33827 14.0999 6.27827 13.68 6.39827 13.28C6.74827 12.21 7.60827 11.6299 8.36827 11.1099C9.16827 10.5699 9.61827 10.23 9.61827 9.64996C9.61827 9.12996 9.19827 8.70996 8.67827 8.70996C8.15827 8.70996 7.73828 9.12996 7.73828 9.64996C7.73828 10.06 7.39828 10.4 6.98828 10.4C6.57828 10.4 6.23828 10.06 6.23828 9.64996C6.23828 8.30996 7.32827 7.20996 8.67827 7.20996C10.0283 7.20996 11.1183 8.29996 11.1183 9.64996C11.1183 11.06 10.0583 11.7799 9.20828 12.3599C8.67828 12.7199 8.17827 13.0599 7.92827 13.5099H10.3683C10.7783 13.5099 11.1183 13.8499 11.1183 14.2599C11.1183 14.6699 10.7883 15.0099 10.3783 15.0099Z" fill="#335BE9"/>
<path d="M16.0389 15.0099C15.6289 15.0099 15.2889 14.6699 15.2889 14.2599V13.5699H13.3289C13.3289 13.5699 13.3289 13.5699 13.3189 13.5699C12.8289 13.5699 12.3789 13.31 12.1289 12.89C11.8789 12.46 11.8789 11.9299 12.1289 11.5099C12.8089 10.3399 13.5989 9.00991 14.3189 7.84991C14.6389 7.33991 15.2489 7.10996 15.8189 7.26996C16.3889 7.43996 16.7889 7.95993 16.7789 8.55993V12.08H16.9989C17.4089 12.08 17.7489 12.42 17.7489 12.83C17.7489 13.24 17.4089 13.58 16.9989 13.58H16.7889V14.27C16.7889 14.68 16.4589 15.0099 16.0389 15.0099ZM15.2889 9.13995C14.6989 10.1 14.0889 11.1299 13.5389 12.0699H15.2889V9.13995Z" fill="#335BE9"/>
</svg>
