<svg width="24" height="25" viewBox="0 0 24 25" fill="none" xmlns="http://www.w3.org/2000/svg">
<path opacity="0.4" d="M17 18.9297H13L8.54999 21.8897C7.88999 22.3297 7 21.8597 7 21.0597V18.9297C4 18.9297 2 16.9297 2 13.9297V7.92969C2 4.92969 4 2.92969 7 2.92969H17C20 2.92969 22 4.92969 22 7.92969V13.9297C22 16.9297 20 18.9297 17 18.9297Z" fill="#335BE9"/>
<path d="M11.9998 12.6104C11.5898 12.6104 11.2498 12.2704 11.2498 11.8604V11.6504C11.2498 10.4904 12.0998 9.92038 12.4198 9.70038C12.7898 9.45038 12.9098 9.28039 12.9098 9.02039C12.9098 8.52039 12.4998 8.11035 11.9998 8.11035C11.4998 8.11035 11.0898 8.52039 11.0898 9.02039C11.0898 9.43039 10.7498 9.77039 10.3398 9.77039C9.92984 9.77039 9.58984 9.43039 9.58984 9.02039C9.58984 7.69039 10.6698 6.61035 11.9998 6.61035C13.3298 6.61035 14.4098 7.69039 14.4098 9.02039C14.4098 10.1604 13.5698 10.7304 13.2598 10.9404C12.8698 11.2004 12.7498 11.3704 12.7498 11.6504V11.8604C12.7498 12.2804 12.4098 12.6104 11.9998 12.6104Z" fill="#335BE9"/>
<path d="M12 15.0996C11.58 15.0996 11.25 14.7596 11.25 14.3496C11.25 13.9396 11.59 13.5996 12 13.5996C12.41 13.5996 12.75 13.9396 12.75 14.3496C12.75 14.7596 12.42 15.0996 12 15.0996Z" fill="#335BE9"/>
</svg>
