<svg width="24" height="24" viewBox="0 0 24 24" fill="none" xmlns="http://www.w3.org/2000/svg">
<path opacity="0.4" d="M19.3009 7.91998V13.07C19.3009 16.15 17.5409 17.47 14.9009 17.47H6.11093C5.66093 17.47 5.23093 17.43 4.83093 17.34C4.58093 17.3 4.34094 17.23 4.12094 17.15C2.62094 16.59 1.71094 15.29 1.71094 13.07V7.91998C1.71094 4.83998 3.47093 3.52002 6.11093 3.52002H14.9009C17.1409 3.52002 18.7509 4.47001 19.1809 6.64001C19.2509 7.04001 19.3009 7.44998 19.3009 7.91998Z" fill="white"/>
<path d="M22.2981 10.92V16.07C22.2981 19.15 20.5381 20.47 17.8981 20.47H9.10812C8.36812 20.47 7.69813 20.37 7.11813 20.15C5.92813 19.71 5.11812 18.8 4.82812 17.34C5.22813 17.43 5.65812 17.47 6.10812 17.47H14.8981C17.5381 17.47 19.2981 16.15 19.2981 13.07V7.91998C19.2981 7.44998 19.2581 7.03001 19.1781 6.64001C21.0781 7.04001 22.2981 8.37998 22.2981 10.92Z" fill="white"/>
<path d="M10.4994 13.14C11.9574 13.14 13.1394 11.958 13.1394 10.5C13.1394 9.04197 11.9574 7.85999 10.4994 7.85999C9.04136 7.85999 7.85938 9.04197 7.85938 10.5C7.85938 11.958 9.04136 13.14 10.4994 13.14Z" fill="white"/>
<path d="M4.78125 8.25C4.37125 8.25 4.03125 8.59 4.03125 9V12C4.03125 12.41 4.37125 12.75 4.78125 12.75C5.19125 12.75 5.53125 12.41 5.53125 12V9C5.53125 8.59 5.20125 8.25 4.78125 8.25Z" fill="white"/>
<path d="M16.2109 8.25C15.8009 8.25 15.4609 8.59 15.4609 9V12C15.4609 12.41 15.8009 12.75 16.2109 12.75C16.6209 12.75 16.9609 12.41 16.9609 12V9C16.9609 8.59 16.6309 8.25 16.2109 8.25Z" fill="white"/>
</svg>
