<svg width="24" height="25" viewBox="0 0 24 25" fill="none" xmlns="http://www.w3.org/2000/svg">
<path d="M19.0712 14.7396C18.7812 15.0296 18.3212 15.0296 18.0413 14.7396C17.7513 14.4496 17.7513 13.9896 18.0413 13.7096C20.0413 11.7096 20.0413 8.45961 18.0413 6.46961C16.0413 4.47961 12.7912 4.46961 10.8012 6.46961C8.81125 8.46961 8.80125 11.7196 10.8012 13.7096C11.0912 13.9996 11.0912 14.4596 10.8012 14.7396C10.5112 15.0296 10.0512 15.0296 9.77125 14.7396C7.20125 12.1696 7.20125 7.98961 9.77125 5.42961C12.3412 2.86961 16.5212 2.85961 19.0812 5.42961C21.6412 7.99961 21.6412 12.1696 19.0712 14.7396Z" fill="#335BE9"/>
<path opacity="0.4" d="M19.0695 5.43043C21.6395 8.00043 21.6395 12.1704 19.0695 14.7404C18.1895 15.6204 17.1095 16.2004 15.9795 16.4804C16.5095 14.3204 15.9295 11.9504 14.2395 10.2604C12.5495 8.57043 10.1795 7.99043 8.01953 8.52043C8.29953 7.39043 8.86953 6.31043 9.75953 5.43043C12.3295 2.86043 16.4995 2.86043 19.0695 5.43043Z" fill="#335BE9"/>
<path d="M4.92875 10.2605C5.21875 9.97047 5.67875 9.97047 5.95875 10.2605C6.24875 10.5505 6.24875 11.0105 5.95875 11.2905C3.95875 13.2905 3.95875 16.5405 5.95875 18.5305C7.95875 20.5205 11.2088 20.5305 13.1988 18.5305C15.1888 16.5305 15.1988 13.2805 13.1988 11.2905C12.9088 11.0005 12.9088 10.5405 13.1988 10.2605C13.4888 9.97047 13.9488 9.97047 14.2288 10.2605C16.7988 12.8305 16.7988 17.0105 14.2288 19.5705C11.6588 22.1305 7.47875 22.1405 4.91875 19.5705C2.35875 17.0005 2.35875 12.8305 4.92875 10.2605Z" fill="#335BE9"/>
<path opacity="0.5" d="M14.2414 10.2599C15.9314 11.9499 16.5114 14.3199 15.9814 16.4799C15.7014 17.6099 15.1214 18.6899 14.2414 19.5699C11.6714 22.1399 7.50141 22.1399 4.93141 19.5699C2.36141 16.9999 2.36141 12.8299 4.93141 10.2599C5.81141 9.36988 6.89141 8.79988 8.02141 8.51988C10.1814 7.98988 12.5514 8.56988 14.2414 10.2599Z" fill="#335BE9"/>
</svg>
