<svg width="33" height="33" viewBox="0 0 33 33" fill="none" xmlns="http://www.w3.org/2000/svg">
<circle cx="16.5" cy="16.5" r="16.5" fill="white"/>
<path fill-rule="evenodd" clip-rule="evenodd" d="M15.6403 5.01355C15.5636 5.02423 15.3022 5.05554 15.0594 5.08317C10.2913 5.62531 6.22208 9.35413 5.23533 14.0854C5.04456 15 5 15.4585 5 16.5056C5 17.5527 5.04456 18.0112 5.23533 18.9257C6.14837 23.3036 9.69866 26.8522 14.0787 27.7648C14.9937 27.9555 15.4524 28 16.5 28C17.5476 28 18.0063 27.9555 18.9213 27.7648C23.3004 26.8524 26.8518 23.3027 27.7647 18.9257C27.9554 18.0112 28 17.5527 28 16.5056C28 15.4585 27.9554 15 27.7647 14.0854C27.0158 10.4948 24.4558 7.38154 21.0523 5.92262C20.1165 5.5215 19.1698 5.25665 18.1032 5.09757C17.66 5.03148 15.934 4.97258 15.6403 5.01355ZM18.0568 5.42345C20.064 5.72336 21.8275 6.46931 23.3776 7.67416C23.7851 7.99094 24.9111 9.05696 24.9111 9.12607C24.9111 9.18678 23.9873 8.52875 23.5806 8.17826C21.9469 6.77048 19.8567 5.87153 17.6605 5.63209C16.8594 5.54472 15.307 5.60153 14.5482 5.74593C12.7126 6.09527 11.0545 6.85088 9.64563 7.98011C9.20054 8.33683 8.37597 9.15831 8.01146 9.60811C7.65805 10.0442 7.11124 10.8467 6.94762 11.1695C6.88437 11.2943 6.80681 11.3966 6.7753 11.397C6.7438 11.3973 6.66726 11.4112 6.60522 11.4278C6.49527 11.4572 6.4969 11.4498 6.67107 11.1368C8.43453 7.96711 11.6121 5.8092 15.1059 5.40872C15.3487 5.38085 15.6101 5.34932 15.6868 5.33863C15.9755 5.29822 17.6104 5.35679 18.0568 5.42345ZM16.0818 7.00643V7.86506L15.9135 7.93538C15.8209 7.97403 15.7372 8.00566 15.7276 8.00566C15.696 8.00566 15.7092 6.2105 15.741 6.17873C15.758 6.16169 15.8417 6.14775 15.9269 6.14775H16.0818V7.00643ZM17.29 6.33898C17.29 6.5146 17.2815 6.52788 17.1854 6.50215C17.1279 6.48677 17.0548 6.47386 17.0228 6.47354C16.9875 6.47312 16.9647 6.40907 16.9647 6.31032C16.9647 6.15551 16.9725 6.14775 17.1273 6.14775C17.2869 6.14775 17.29 6.15142 17.29 6.33898ZM14.8271 6.44423C14.8271 6.56796 14.8048 6.60735 14.7225 6.62942C14.5308 6.68074 14.5018 6.66374 14.5018 6.49997C14.5018 6.33619 14.543 6.29704 14.7225 6.29077C14.8111 6.28765 14.8271 6.31116 14.8271 6.44423ZM19.1425 6.47767C19.433 6.55231 19.6892 6.62482 19.7118 6.63875C19.7344 6.65273 19.7529 6.79876 19.7529 6.96333V7.2625H19.567C19.3817 7.2625 19.3812 7.26194 19.3812 7.08C19.3812 6.89951 19.3785 6.89672 19.1338 6.82561C18.9211 6.76383 18.2529 6.61223 18.1931 6.61223C18.182 6.61223 18.1729 6.53671 18.1729 6.44437V6.27655L18.3937 6.30925C18.5151 6.32723 18.852 6.40303 19.1425 6.47767ZM13.61 6.73374L13.5956 6.90169L13.1077 7.07359C12.3214 7.35056 12.4106 7.15084 12.4106 8.63433V9.91002H12.6753H12.94L12.7831 10.0718L12.6262 10.2336L11.438 10.246L10.2497 10.2584L10.2367 10.8274L10.2236 11.3963H10.0624H9.90122V10.6532V9.91002H10.97H12.0389V8.52211V7.13416L12.4222 6.96969C12.8424 6.78938 13.4675 6.56885 13.5635 6.56699C13.6054 6.56615 13.6199 6.61845 13.61 6.73374ZM21.741 7.56682C21.73 7.57778 21.5187 7.54081 21.2714 7.4847L20.8217 7.3827V7.22929V7.07587L21.2913 7.31141C21.5496 7.44095 21.7519 7.55586 21.741 7.56682ZM17.2861 7.4305C17.319 7.46074 17.2623 7.4958 17.1104 7.53937C16.9747 7.57829 16.9647 7.57314 16.9647 7.46459C16.9647 7.35739 16.9769 7.35061 17.1157 7.38033C17.1988 7.39812 17.2755 7.4207 17.2861 7.4305ZM14.8271 8.00403C14.8271 8.41407 14.8168 8.47237 14.7372 8.51496C14.6878 8.54139 14.4159 8.56303 14.1331 8.56303H13.6188V8.92045C13.6188 9.24507 13.6074 9.28985 13.494 9.40815C13.4253 9.47982 13.3521 9.53843 13.3313 9.53843C13.3106 9.53843 13.2936 9.24581 13.2936 8.88817V8.2379H13.8977H14.5018V7.91662C14.5018 7.58266 14.52 7.55196 14.7225 7.54485C14.8242 7.54128 14.8271 7.55391 14.8271 8.00403ZM11.1558 7.83148C11.1558 8.0156 11.1413 8.03799 10.9415 8.16423C9.94857 8.79118 8.9213 9.81484 8.17559 10.9203C7.85839 11.3905 7.85216 11.3963 7.66962 11.3963C7.56795 11.3963 7.48477 11.3839 7.48477 11.3686C7.48477 11.3122 8.01764 10.5243 8.31426 10.1423C8.95434 9.31771 9.93435 8.40929 10.7785 7.858C10.9671 7.73482 11.1292 7.63408 11.1386 7.63408C11.1482 7.63408 11.1559 7.72293 11.1558 7.83148ZM20.8914 8.09582C22.2351 8.36702 23.5497 8.97591 24.6564 9.83969C25.0722 10.1642 25.1866 10.3501 25.103 10.5652C25.0648 10.6636 23.9202 11.9088 23.5599 12.244C23.3586 12.4313 23.1763 12.4147 22.8897 12.1828C21.7025 11.2227 20.3608 10.7921 18.9903 10.9314C16.6421 11.1702 14.7569 12.977 14.3356 15.3927C14.2261 16.0203 14.2651 16.971 14.4255 17.5875C14.8803 19.3347 16.1211 20.7071 17.7867 21.3051C18.9676 21.729 20.6231 21.6546 21.9719 21.1169L22.2623 21.0011V20.0334V19.0657L21.0192 19.0514C19.6199 19.0352 19.5492 19.0199 19.3878 18.6993C19.3399 18.604 19.1579 18.0948 18.9834 17.5678C18.6731 16.6302 18.6679 16.6068 18.746 16.4878L18.8257 16.3662H21.9085H24.9914L25.1139 16.4887L25.2364 16.6112V19.7654V22.9196L25.1254 23.0305C24.9884 23.1675 24.3244 23.5039 23.7015 23.7519C22.2992 24.3104 20.8492 24.5884 19.3481 24.5867C18.2233 24.5854 17.2751 24.4173 16.2976 24.0463C14.6188 23.409 13.0645 22.1094 12.1872 20.6095L12.0156 20.3161L10.8306 20.3149C10.1688 20.3143 9.57003 20.2928 9.47434 20.2662C9.38015 20.2401 9.25259 20.1587 9.19083 20.0854C9.06359 19.9342 8.41417 18.1055 8.41417 17.8983C8.41417 17.6253 8.43885 17.6203 9.80182 17.6203H11.0434L11.0416 16.5172C11.0406 15.9105 11.0571 15.273 11.0783 15.1005L11.1168 14.787L9.42862 14.785C7.5995 14.7828 7.45498 14.7659 7.27821 14.5341C7.18062 14.406 6.50889 12.5018 6.50889 12.3531C6.50889 12.3035 6.54351 12.2247 6.5858 12.178C6.65866 12.0976 6.80695 12.0931 9.39284 12.0931H12.123L12.2471 11.8813C12.5129 11.428 13.0779 10.7405 13.5857 10.2526C14.8224 9.06425 16.3489 8.30803 18.0766 8.02772C18.6996 7.92665 20.2377 7.96386 20.8914 8.09582ZM26.4258 11.3267C26.8822 12.1878 27.2651 13.2628 27.4623 14.2376C27.6371 15.1012 27.6747 15.5032 27.6747 16.5056C27.6747 17.7526 27.563 18.5607 27.2348 19.6866C26.9821 20.5538 26.4366 21.7789 26.0499 22.3476L25.9335 22.5189V22.3056C25.9335 22.1349 25.9976 21.9635 26.255 21.4472C26.7675 20.4189 27.051 19.5793 27.2649 18.4564C27.4094 17.698 27.4662 16.1463 27.3788 15.3456C27.2212 13.9012 26.7452 12.4028 26.0518 11.1679C25.8371 10.7857 25.7941 10.6712 25.7945 10.4836L25.7949 10.2584L25.9872 10.5603C26.093 10.7263 26.2904 11.0712 26.4258 11.3267ZM11.8255 11.2802C11.7574 11.384 11.7178 11.3963 11.4526 11.3963C11.1671 11.3963 11.1559 11.392 11.1559 11.2802C11.1559 11.166 11.1621 11.1641 11.5287 11.1641H11.9016L11.8255 11.2802ZM26.0351 12.395C26.1126 12.5738 26.2455 12.9239 26.3305 13.173L26.485 13.6258H26.3057C26.1395 13.6258 26.1226 13.6132 26.0712 13.4517C26.0408 13.3559 25.9405 13.0842 25.8485 12.8478L25.6812 12.4182H25.0406C24.6882 12.4182 24.3999 12.4035 24.3999 12.3856C24.3999 12.3676 24.4673 12.2834 24.5497 12.1985L24.6995 12.0441L25.297 12.057L25.8944 12.0698L26.0351 12.395ZM21.8906 13.9751V15.6695H21.7047H21.5188V13.8804V12.0912L21.7047 12.186L21.8906 12.2808V13.9751ZM5.93387 13.6614C5.64491 14.7635 5.6037 15.1238 5.60607 16.5288C5.60811 17.7419 5.61657 17.8715 5.73144 18.4564C6.10232 20.345 6.8563 21.9813 8.01086 23.4031C8.37695 23.8539 9.2018 24.6753 9.64563 25.0311C11.0504 26.157 12.6837 26.9026 14.5482 27.2692C15.138 27.3851 15.2551 27.3926 16.5 27.3926C17.7449 27.3926 17.862 27.3851 18.4518 27.2692C20.5567 26.8553 22.3458 25.9719 23.8471 24.6051C24.0792 24.3938 24.3025 24.2395 24.4977 24.1554L24.7949 24.0273L24.4464 24.3812C22.7067 26.1476 20.5349 27.2224 17.9173 27.6125C17.3652 27.6948 15.6348 27.6948 15.0827 27.6125C12.407 27.2138 10.2444 26.1257 8.45836 24.2797C6.50252 22.2582 5.42822 19.7341 5.31767 16.9004C5.26809 15.6291 5.42446 14.4508 5.81467 13.1557L5.91793 12.813L5.98517 13.0111C6.04772 13.1955 6.04414 13.2409 5.93387 13.6614ZM22.9796 13.0209C23.0641 13.053 23.0988 13.1003 23.0988 13.1834V13.3007H23.9585H24.8182V13.9024V14.5041L25.1301 14.5178C25.441 14.5315 25.4421 14.5321 25.4728 14.6825L25.5035 14.8335H24.975H24.4464V14.2297V13.6258H23.7726H23.0988V14.6477V15.6695H22.9361H22.7735V14.3225C22.7735 13.5181 22.791 12.9756 22.8169 12.9756C22.8408 12.9756 22.914 12.996 22.9796 13.0209ZM6.50475 14.5083C6.55815 14.6488 6.60178 14.7795 6.60178 14.7986C6.60183 14.8178 6.52864 14.8335 6.43918 14.8335C6.32803 14.8335 6.27654 14.8122 6.27654 14.7661C6.27654 14.6695 6.37575 14.2204 6.39318 14.2381C6.40117 14.2462 6.45141 14.3678 6.50475 14.5083ZM26.7148 14.6825C26.7288 14.8273 26.7226 14.8335 26.5637 14.8335C26.4626 14.8335 26.3979 14.8109 26.3975 14.7754C26.3972 14.7435 26.3839 14.6689 26.3681 14.6097C26.3411 14.509 26.351 14.5029 26.5197 14.5168C26.6858 14.5304 26.7014 14.5436 26.7148 14.6825ZM8.55358 15.7624V16.0876H7.97545C7.65745 16.0876 7.38569 16.0688 7.37152 16.0459C7.35734 16.023 7.35874 15.9393 7.37458 15.8601L7.40344 15.716H7.81587H8.22829V15.5766C8.22829 15.4483 8.24121 15.4373 8.39094 15.4373H8.55358V15.7624ZM10.2265 16.1805V16.9236H10.0639H9.90122V16.1805V15.4373H10.0639H10.2265V16.1805ZM6.46874 15.7378C6.48073 15.7498 6.48194 15.8334 6.47139 15.9236C6.45368 16.0752 6.44044 16.0876 6.29471 16.0876C6.14712 16.0876 6.13713 16.0778 6.13713 15.9327C6.13713 15.8476 6.15107 15.764 6.16812 15.747C6.20335 15.7118 6.43561 15.7046 6.46874 15.7378ZM26.8629 15.9018V16.0876H26.2924H25.7218L25.4745 15.9018L25.2271 15.716H26.045H26.8629V15.9018ZM8.20506 17.0556C8.12838 17.1024 8.03693 17.1756 8.00189 17.218C7.9464 17.2851 7.82051 17.2952 7.03763 17.2952H6.13713V17.1326V16.9701L7.2408 16.9703C8.33094 16.9704 8.34275 16.9715 8.20506 17.0556ZM26.8629 17.1326C26.8629 17.2874 26.8551 17.2952 26.7002 17.2952C26.5453 17.2952 26.5376 17.2874 26.5376 17.1326C26.5376 16.9778 26.5453 16.9701 26.7002 16.9701C26.8551 16.9701 26.8629 16.9778 26.8629 17.1326ZM6.61902 18.2822C6.67033 18.4736 6.65327 18.5028 6.49063 18.5028C6.32951 18.5028 6.27654 18.4445 6.27654 18.2668C6.27654 18.1965 6.30976 18.1777 6.43375 18.1777C6.55754 18.1777 6.59695 18.2 6.61902 18.2822ZM7.8055 18.324C7.83357 18.4044 7.85653 18.4776 7.85653 18.4865C7.85653 18.4955 7.79379 18.5028 7.71712 18.5028C7.64044 18.5028 7.57771 18.4975 7.57771 18.4909C7.57771 18.4844 7.55824 18.4112 7.53449 18.3283C7.49299 18.1837 7.49652 18.1777 7.62288 18.1777C7.72873 18.1777 7.76447 18.2064 7.8055 18.324ZM26.6524 18.677C26.5932 18.9517 26.5058 19.3017 26.4582 19.455L26.3716 19.7337L26.1525 19.7479L25.9335 19.762V19.5769C25.9335 19.4232 25.9504 19.3893 26.0331 19.377C26.1452 19.3603 26.1894 19.2412 26.3274 18.5841L26.4127 18.1777H26.5863H26.76L26.6524 18.677ZM7.0216 19.815C7.10608 20.0513 7.21449 20.3335 7.26245 20.442L7.34972 20.6394H8.05705C8.72232 20.6394 8.77399 20.6459 8.92618 20.7485C9.01517 20.8085 9.15073 20.8799 9.2274 20.9074C9.33405 20.9455 9.10356 20.9581 8.24613 20.9609L7.12546 20.9646L6.98521 20.651C6.81796 20.2771 6.55536 19.5442 6.55536 19.4513C6.55536 19.4074 6.60759 19.3853 6.71164 19.3853C6.86671 19.3853 6.86913 19.3887 7.0216 19.815ZM25.9934 20.7323C25.98 20.7834 25.9611 20.8252 25.9513 20.8252C25.9415 20.8252 25.9335 20.7834 25.9335 20.7323C25.9335 20.6812 25.9524 20.6394 25.9756 20.6394C25.9988 20.6394 26.0068 20.6812 25.9934 20.7323ZM10.2371 21.8587L10.2497 22.7528L11.6467 22.776L13.0436 22.7993L13.2267 22.9486L13.4097 23.098L12.9102 23.0996L12.4106 23.1012V23.7747V24.4481H13.0137H13.6168L13.6294 25.2958L13.6421 26.1434L14.2346 26.282L14.8271 26.4206V26.5896V26.7585L14.4086 26.6727C14.1784 26.6255 13.8333 26.5414 13.6418 26.4858L13.2936 26.3846V25.6035V24.8224L12.6778 24.8095L12.0621 24.7965L12.0494 23.9488L12.0368 23.1012H10.969H9.90122V22.0329V20.9646H10.0628H10.2245L10.2371 21.8587ZM11.4812 21.2433V21.5219L11.7019 21.5226C11.9554 21.5235 11.9822 21.5374 12.1256 21.7426L12.2311 21.8935H11.6935H11.1559V21.429V20.9646H11.3186H11.4812V21.2433ZM8.18442 22.1296C9.11439 23.4983 10.3781 24.6212 11.8762 25.4099C12.3811 25.6757 12.3876 25.6812 12.4021 25.8573C12.4158 26.0247 12.4102 26.0335 12.3091 26.0021C12.1446 25.9511 11.6242 25.6837 11.1865 25.4252C9.97339 24.709 8.70977 23.5108 7.90304 22.3116C7.74969 22.0836 7.62418 21.8858 7.62418 21.8721C7.62418 21.8583 7.70703 21.8471 7.80834 21.8471C7.98167 21.8471 8.00375 21.8637 8.18442 22.1296ZM14.6993 24.0275C14.8054 24.0806 14.8271 24.1218 14.8271 24.2698V24.4481H15.1518C15.3935 24.4481 15.5541 24.4791 15.7792 24.5692L16.0818 24.6903V25.1758V25.6614L15.9075 25.647L15.7332 25.6326L15.7198 25.2261L15.7064 24.8197H15.1041H14.5018V24.3746C14.5018 24.1298 14.5175 23.9371 14.5366 23.9465C14.5558 23.9558 14.629 23.9922 14.6993 24.0275ZM22.6805 24.8371C22.6805 24.863 22.0042 25.3256 21.9181 25.3587C21.8582 25.3817 21.8441 25.3524 21.8441 25.2051V25.0233L22.2275 24.9265C22.6618 24.8168 22.6805 24.8131 22.6805 24.8371ZM17.1854 25.0348C17.2893 25.0626 17.29 25.0687 17.29 25.9631V26.8634H17.1273H16.9647V25.9345C16.9647 24.9511 16.9591 24.9742 17.1854 25.0348ZM20.9515 25.5509L20.9379 25.9105L20.3338 26.1509C20.0015 26.2832 19.6513 26.4059 19.5554 26.4236C19.3812 26.4557 19.3812 26.4557 19.3812 26.2938C19.3812 26.132 19.3814 26.1318 19.7888 25.9897C20.013 25.9114 20.2953 25.805 20.4161 25.7532L20.6359 25.6591V25.4252V25.1913H20.8005H20.9651L20.9515 25.5509ZM18.4982 25.3279C18.4982 25.4299 18.4797 25.4449 18.3007 25.4877C18.1828 25.5158 18.1729 25.5074 18.1729 25.378C18.1729 25.2487 18.1856 25.2378 18.3356 25.2378C18.4656 25.2378 18.4982 25.2558 18.4982 25.3279ZM18.4894 26.5251C18.4766 26.6782 18.458 26.701 18.324 26.7282C18.1746 26.7585 18.1729 26.7568 18.1729 26.5821C18.1729 26.4358 18.1909 26.402 18.2775 26.3853C18.4988 26.3427 18.5044 26.3464 18.4894 26.5251ZM16.0818 26.7009C16.0818 26.8596 16.0774 26.8634 15.8959 26.8634C15.7144 26.8634 15.71 26.8596 15.71 26.7009C15.71 26.5421 15.7144 26.5383 15.8959 26.5383C16.0774 26.5383 16.0818 26.5421 16.0818 26.7009Z" fill="#1A203F"/>
</svg>
