<svg width="24" height="25" viewBox="0 0 24 25" fill="none" xmlns="http://www.w3.org/2000/svg">
<path opacity="0.4" d="M10.9608 2.61037L5.46078 4.67037C4.41078 5.07037 3.55078 6.31037 3.55078 7.44037V15.5404C3.55078 16.3504 4.08078 17.4204 4.73078 17.9004L10.2308 22.0104C11.2008 22.7404 12.7908 22.7404 13.7608 22.0104L19.2608 17.9004C19.9108 17.4104 20.4408 16.3504 20.4408 15.5404V7.44037C20.4408 6.32037 19.5808 5.07037 18.5308 4.68037L13.0308 2.62037C12.4708 2.40037 11.5308 2.40037 10.9608 2.61037Z" fill="#335BE9"/>
<path d="M14.5 11C14.5 9.62 13.38 8.5 12 8.5C10.62 8.5 9.5 9.62 9.5 11C9.5 12.12 10.24 13.05 11.25 13.37V16C11.25 16.41 11.59 16.75 12 16.75C12.41 16.75 12.75 16.41 12.75 16V13.37C13.76 13.05 14.5 12.12 14.5 11Z" fill="#335BE9"/>
</svg>
