<svg width="24" height="24" viewBox="0 0 24 24" fill="none" xmlns="http://www.w3.org/2000/svg">
<path d="M19.5 8C20.8807 8 22 6.88071 22 5.5C22 4.11929 20.8807 3 19.5 3C18.1193 3 17 4.11929 17 5.5C17 6.88071 18.1193 8 19.5 8Z" fill="white"/>
<path d="M19.5 8C20.8807 8 22 6.88071 22 5.5C22 4.11929 20.8807 3 19.5 3C18.1193 3 17 4.11929 17 5.5C17 6.88071 18.1193 8 19.5 8Z" fill="white"/>
<path opacity="0.4" d="M20.72 9.31001C21.35 9.11001 22 9.60002 22 10.27V15.51C22 19.01 20 20.51 17 20.51H7C4 20.51 2 19.01 2 15.51V8.51001C2 5.01001 4 3.51001 7 3.51001H14.61C15.26 3.51001 15.7 4.11002 15.58 4.74002C15.46 5.33002 15.48 5.96002 15.66 6.61002C16.03 7.95002 17.12 9.02001 18.46 9.37001C19.25 9.57001 20.02 9.53001 20.72 9.31001Z" fill="white"/>
<path d="M11.9988 12.87C11.1588 12.87 10.3088 12.61 9.6588 12.08L6.5288 9.58002C6.2088 9.32002 6.14881 8.85002 6.4088 8.53002C6.66881 8.21002 7.13879 8.15003 7.45879 8.41003L10.5888 10.91C11.3488 11.52 12.6388 11.52 13.3988 10.91L14.5788 9.97002C14.8988 9.71002 15.3788 9.76002 15.6288 10.09C15.8888 10.41 15.8388 10.89 15.5088 11.14L14.3288 12.08C13.6888 12.61 12.8388 12.87 11.9988 12.87Z" fill="white"/>
</svg>
