<svg width="18" height="18" viewBox="0 0 18 18" fill="none" xmlns="http://www.w3.org/2000/svg">
<path opacity="0.4" d="M9 16.5C13.1421 16.5 16.5 13.1421 16.5 9C16.5 4.85786 13.1421 1.5 9 1.5C4.85786 1.5 1.5 4.85786 1.5 9C1.5 13.1421 4.85786 16.5 9 16.5Z" fill="#3FDBB1"/>
<path d="M7.93312 11.685C7.78312 11.685 7.64063 11.625 7.53563 11.52L5.41312 9.39745C5.19563 9.17995 5.19563 8.81995 5.41312 8.60245C5.63062 8.38495 5.99062 8.38495 6.20812 8.60245L7.93312 10.3275L11.7881 6.47245C12.0056 6.25495 12.3656 6.25495 12.5831 6.47245C12.8006 6.68995 12.8006 7.04995 12.5831 7.26745L8.33062 11.52C8.22562 11.625 8.08312 11.685 7.93312 11.685Z" fill="#3FDBB1"/>
</svg>
