<svg width="24" height="24" viewBox="0 0 24 24" fill="none" xmlns="http://www.w3.org/2000/svg">
<path opacity="0.4" d="M19.7887 4.22007C16.8287 1.27007 12.0287 1.27007 9.08868 4.22007C7.01868 6.27007 6.39868 9.22007 7.19868 11.8201L2.49868 16.5201C2.16868 16.8601 1.93868 17.5301 2.00868 18.0101L2.30868 20.1901C2.41868 20.9101 3.08868 21.5901 3.80868 21.6901L5.98868 21.9901C6.46868 22.0601 7.13868 21.8401 7.47868 21.4901L8.29868 20.6701C8.49868 20.4801 8.49868 20.1601 8.29868 19.9601L6.35868 18.0201C6.06868 17.7301 6.06868 17.2501 6.35868 16.9601C6.64868 16.6701 7.12868 16.6701 7.41868 16.9601L9.36868 18.9101C9.55868 19.1001 9.87868 19.1001 10.0687 18.9101L12.1887 16.8001C14.7787 17.6101 17.7287 16.9801 19.7887 14.9301C22.7387 11.9801 22.7387 7.17007 19.7887 4.22007ZM14.4987 12.0001C13.1187 12.0001 11.9987 10.8801 11.9987 9.50007C11.9987 8.12007 13.1187 7.00007 14.4987 7.00007C15.8787 7.00007 16.9987 8.12007 16.9987 9.50007C16.9987 10.8801 15.8787 12.0001 14.4987 12.0001Z" fill="#335BE9"/>
<path d="M14.5 12C15.8807 12 17 10.8807 17 9.5C17 8.11929 15.8807 7 14.5 7C13.1193 7 12 8.11929 12 9.5C12 10.8807 13.1193 12 14.5 12Z" fill="#335BE9"/>
</svg>
