<svg width="24" height="24" viewBox="0 0 24 24" fill="none" xmlns="http://www.w3.org/2000/svg">
<path opacity="0.4" d="M18.3281 5.67L6.58813 17.41C6.14813 17.85 5.40813 17.79 5.04813 17.27C3.80813 15.46 3.07812 13.32 3.07812 11.12V6.73C3.07812 5.91 3.69813 4.98 4.45813 4.67L10.0281 2.39C11.2881 1.87 12.6882 1.87 13.9482 2.39L17.9881 4.03999C18.6581 4.30999 18.8281 5.17 18.3281 5.67Z" fill="#335BE9"/>
<path d="M19.27 7.04012C19.92 6.49012 20.91 6.96011 20.91 7.81011V11.1201C20.91 16.0101 17.36 20.5901 12.51 21.9301C12.18 22.0201 11.82 22.0201 11.48 21.9301C10.06 21.5301 8.74 20.8601 7.61 19.9801C7.13 19.6101 7.08001 18.9101 7.50001 18.4801C9.68001 16.2501 16.06 9.75012 19.27 7.04012Z" fill="#335BE9"/>
</svg>
