<svg width="232" height="198" viewBox="0 0 232 198" fill="none" xmlns="http://www.w3.org/2000/svg">
<path d="M79.6012 100.827L4.9458 143.926V57.3668L79.6012 14.2754V100.827Z" fill="white" fill-opacity="0.8"/>
<path d="M3.479 144.77L4.93817 145.645L81.0604 101.701L79.6012 100.826L3.479 144.77Z" fill="#FAFAFA"/>
<path d="M83.8251 8.63037L2.18115 55.769V150.43L83.8251 103.292V8.63037ZM81.0604 101.702L4.94588 145.646V57.3664L81.0604 13.4149V101.702Z" fill="#F0F0F0"/>
<path d="M81.0607 101.701L79.6016 100.826V14.2742L81.0607 13.4141V101.701Z" fill="#E0E0E0"/>
<path d="M83.8253 8.63091L82.3354 7.78613L0.691406 54.9171L2.18129 55.7696L83.8253 8.63091Z" fill="#FAFAFA"/>
<path d="M0.691406 54.9165L2.18129 55.769V150.43L0.691406 149.578V54.9165Z" fill="#E0E0E0"/>
<path d="M6.15967 98.4235V100.144L81.0608 56.8374L79.6016 55.9619L6.15967 98.4235Z" fill="#FAFAFA"/>
<path d="M40.6494 36.762L42.1316 35.9019V124.189L40.6494 123.336V36.762Z" fill="#E0E0E0"/>
<path d="M44.8966 34.3115L42.1318 35.9012V124.188L44.8966 122.591V34.3115Z" fill="#F0F0F0"/>
<path d="M81.0608 56.8369V60.024L4.91553 104.152V100.965L81.0608 56.8369Z" fill="#F0F0F0"/>
<path d="M42.1318 79.4017L40.6496 78.4878L4.93848 99.1234V100.967L42.1318 79.4017Z" fill="#FAFAFA"/>
<path d="M95.2222 41.2503L96.4586 41.9875L121.787 27.3652L120.55 26.6279L95.2222 41.2503Z" fill="#FAFAFA"/>
<path d="M120.55 26.6271L96.4585 40.5352V20.0455L120.55 6.14502V26.6271Z" fill="white" fill-opacity="0.8"/>
<path d="M124.113 1.3833L94.1621 18.7013V46.0183L124.113 28.708V1.3833ZM121.809 27.3641L96.4661 41.9557V20.0452L121.809 5.4536V27.3641Z" fill="#F0F0F0"/>
<path d="M121.787 27.3655L120.55 26.6283V6.14622L121.787 5.42432V27.3655Z" fill="#E0E0E0"/>
<path d="M124.114 1.38414L122.862 0.669922L92.8721 17.9802L94.1239 18.7021L124.114 1.38414Z" fill="#FAFAFA"/>
<path d="M92.8721 17.9805L94.1239 18.7024V46.0194L92.8721 45.3052V17.9805Z" fill="#E0E0E0"/>
<path d="M119.613 25.8659L97.3955 38.6989V37.0247L102.948 24.1994L106.412 27.4095L105.928 30.3816L112.84 16.3813L119.613 24.1994V25.8659Z" fill="#F0F0F0"/>
<path d="M106.204 18.01C105.725 18.32 105.326 18.7392 105.041 19.2331C104.755 19.7271 104.59 20.2817 104.561 20.8515C104.561 21.9037 105.29 22.3261 106.204 21.8038C106.683 21.4917 107.081 21.071 107.367 20.5759C107.652 20.0808 107.817 19.5254 107.848 18.9546C107.848 17.9102 107.11 17.4878 106.204 18.01Z" fill="#F0F0F0"/>
<path d="M95.3984 83.7693L96.6349 84.5066L121.971 69.8842L120.734 69.147L95.3984 83.7693Z" fill="#FAFAFA"/>
<path d="M120.734 69.1461L96.6348 83.0542V62.5645L120.734 48.6641V69.1461Z" fill="white" fill-opacity="0.8"/>
<path d="M124.298 43.9023L94.3467 61.2203V88.5374L124.298 71.2271V43.9023ZM121.994 69.8831L96.6506 84.4747V62.5643L121.994 47.9726V69.8831Z" fill="#F0F0F0"/>
<path d="M121.971 69.8846L120.734 69.1473V48.6653L121.971 47.9434V69.8846Z" fill="#E0E0E0"/>
<path d="M124.298 43.9032L123.046 43.189L93.0562 60.5069L94.308 61.2211L124.298 43.9032Z" fill="#FAFAFA"/>
<path d="M93.0562 60.5063L94.308 61.2206V88.5376L93.0562 87.8234V60.5063Z" fill="#E0E0E0"/>
<path d="M119.79 68.3926L97.5796 81.2179V79.5437L103.132 66.7184L106.588 69.9286L106.112 72.9007L113.016 58.9004L119.79 66.7184V68.3926Z" fill="#F0F0F0"/>
<path d="M106.381 60.5289C105.902 60.841 105.504 61.2617 105.218 61.7568C104.933 62.2519 104.768 62.8073 104.737 63.3781C104.737 64.4225 105.505 64.8449 106.381 64.3227C106.859 64.0113 107.256 63.5918 107.542 63.0982C107.827 62.6045 107.993 62.0506 108.024 61.4812C108.024 60.429 107.287 60.0066 106.381 60.5289Z" fill="#F0F0F0"/>
<path d="M224.104 98.2291L222.399 99.2506L195.835 83.914L197.54 82.8926L224.104 98.2291Z" fill="#FAFAFA"/>
<path d="M197.54 82.8937L222.4 97.2396V32.8675L197.54 18.5293V82.8937Z" fill="white" fill-opacity="0.8"/>
<path d="M192.617 85.7727L225.64 104.826V31.0004L192.617 11.9468V85.7727ZM195.812 17.53L222.376 32.8896V99.2738L195.812 83.9142V17.53Z" fill="#F0F0F0"/>
<path d="M195.835 83.9145L197.54 82.8931V18.5286L195.835 17.5303V83.9145Z" fill="#E0E0E0"/>
<path d="M192.609 11.9472L194.345 10.9565L227.353 30.0101L225.617 31.0008L192.609 11.9472Z" fill="#FAFAFA"/>
<path d="M227.353 30.0107L225.617 31.0014V104.835L227.353 103.837V30.0107Z" fill="#E0E0E0"/>
<path d="M200.043 80.9033L219.911 92.3692V35.8843L200.043 24.4106V80.9033Z" fill="#F0F0F0"/>
<path d="M200.043 80.9033L219.911 92.3692V35.8843L200.043 24.4106V80.9033Z" fill="#F0F0F0"/>
<path d="M219.911 72.826C218.99 73.1463 218.037 73.3702 217.07 73.4941C213.836 73.9568 210.541 73.745 207.393 72.872C204.989 72.1962 202.585 71.1518 200.043 71.674V80.8898L202.731 82.4257C203.678 80.8994 204.937 79.5908 206.425 78.5858C210.265 76.2128 214.174 77.9945 218.106 77.6642C218.715 77.6074 219.319 77.5021 219.911 77.3494V72.826Z" fill="#FAFAFA"/>
<path d="M219.911 63.4346C215.464 62.6667 210.903 62.2136 207.731 58.3429C205.173 55.2249 203.975 50.3252 203.123 45.4485C202.27 40.5719 201.702 35.4648 200.089 31.1564C200.089 31.1104 200.051 31.072 200.036 31.0259V60.4702C200.281 60.9387 200.535 61.4072 200.804 61.8526C203.722 66.7754 208.023 70.431 212.938 69.5862C215.242 69.1868 217.622 67.8352 219.911 67.2822V63.4346Z" fill="#FAFAFA"/>
<path d="M219.911 51.4606C216.501 48.0123 214.674 41.5767 215.511 34.9644C215.572 34.4729 215.649 33.9813 215.733 33.4975L208.1 29.0586C208.1 29.7728 208.153 30.4794 208.169 31.1936C208.246 35.333 208.169 39.5722 208.791 43.4813C209.881 50.0245 213.153 55.2467 217.5 57.3894C218.271 57.764 219.082 58.0475 219.919 58.2342L219.911 51.4606Z" fill="#FAFAFA"/>
<path d="M188.382 193.827C182.868 188.137 179.627 173.821 185.003 169.306H212.381C217.757 173.821 214.524 188.121 209.01 193.82L208.864 193.973L208.672 194.165C208.518 194.319 208.349 194.465 208.173 194.611L208.042 194.718C207.904 194.826 207.773 194.933 207.627 195.033C207.398 195.2 207.16 195.354 206.913 195.494C202.374 198.143 195.017 198.143 190.478 195.494C190.228 195.356 189.987 195.202 189.756 195.033L189.372 194.733L189.211 194.603C189.035 194.465 188.881 194.319 188.727 194.173L188.512 193.958L188.382 193.827Z" fill="#EBEBEB"/>
<path d="M210.008 167.525C216.252 171.165 216.252 177.079 210.008 180.727C203.764 184.375 193.627 184.375 187.383 180.727C181.14 177.079 181.14 171.165 187.383 167.525C193.627 163.885 203.757 163.877 210.008 167.525Z" fill="#FAFAFA"/>
<path d="M206.998 169.253C211.605 171.933 211.605 176.272 206.998 178.952C202.39 181.632 194.979 181.632 190.386 178.952C185.794 176.272 185.778 171.933 190.386 169.253C194.994 166.572 202.413 166.595 206.998 169.253Z" fill="#E0E0E0"/>
<path d="M190.386 173.86C194.994 171.188 202.413 171.188 206.998 173.86C208.111 174.47 209.055 175.346 209.747 176.41C209.055 177.474 208.111 178.35 206.998 178.96C202.39 181.64 194.979 181.64 190.386 178.96C189.274 178.352 188.331 177.476 187.645 176.41C188.331 175.345 189.274 174.468 190.386 173.86Z" fill="#EBEBEB"/>
<path d="M196.853 137.368C194.756 139.672 188.927 140.271 186.508 134.127C184.242 128.367 181.8 122.907 181.132 120.787C181.034 120.511 180.992 120.218 181.01 119.926C181.027 119.633 181.104 119.347 181.234 119.085C181.364 118.823 181.546 118.589 181.769 118.399C181.992 118.208 182.25 118.065 182.53 117.976C182.53 117.976 182.699 114.812 188.059 116.955C193.42 119.098 197.206 122.331 199.579 127.622C201.952 132.914 200.431 136.661 196.853 137.368Z" fill="#E0E0E0"/>
<path opacity="0.45" d="M196.853 137.368C194.756 139.672 188.927 140.271 186.508 134.127C184.242 128.367 181.8 122.907 181.132 120.787C181.034 120.511 180.992 120.218 181.01 119.926C181.027 119.633 181.104 119.347 181.234 119.085C181.364 118.823 181.546 118.589 181.769 118.399C181.992 118.208 182.25 118.065 182.53 117.976C182.53 117.976 182.699 114.812 188.059 116.955C193.42 119.098 197.206 122.331 199.579 127.622C201.952 132.914 200.431 136.661 196.853 137.368Z" fill="white" fill-opacity="0.8"/>
<path d="M199.172 145.492C199.08 144.416 198.926 143.347 198.711 142.29C198.267 140.188 197.672 138.122 196.929 136.107C195.422 132.003 193.329 128.139 190.716 124.634C189.265 122.637 187.63 120.78 185.832 119.089C185.778 119.043 185.732 119.166 185.771 119.204C191.784 125.475 195.961 133.277 197.843 141.76C198.112 142.927 198.358 144.102 198.573 145.277C198.788 146.452 198.918 147.681 199.118 148.879C199.118 149.002 199.325 149.071 199.333 148.879C199.366 147.747 199.312 146.615 199.172 145.492Z" fill="#E0E0E0"/>
<path opacity="0.1" d="M199.172 145.492C199.08 144.416 198.926 143.347 198.711 142.29C198.267 140.188 197.672 138.122 196.929 136.107C195.422 132.003 193.329 128.139 190.716 124.634C189.265 122.637 187.63 120.78 185.832 119.089C185.778 119.043 185.732 119.166 185.771 119.204C191.784 125.475 195.961 133.277 197.843 141.76C198.112 142.927 198.358 144.102 198.573 145.277C198.788 146.452 198.918 147.681 199.118 148.879C199.118 149.002 199.325 149.071 199.333 148.879C199.366 147.747 199.312 146.615 199.172 145.492Z" fill="black"/>
<path d="M200.969 135.777C196.146 137.267 192.567 133.473 193.811 127.613C195.056 121.754 201.246 115.165 203.58 116.923C205.047 115.464 208.265 115.986 209.778 120.763C211.291 125.54 209.916 137.866 200.969 135.777Z" fill="#E0E0E0"/>
<path opacity="0.25" d="M200.969 135.777C196.146 137.267 192.567 133.473 193.811 127.613C195.056 121.754 201.246 115.165 203.58 116.923C205.047 115.464 208.265 115.986 209.778 120.763C211.291 125.54 209.916 137.866 200.969 135.777Z" fill="white" fill-opacity="0.8"/>
<path d="M203.795 120.509C202.425 123.944 201.354 127.489 200.593 131.108C199.77 134.77 199.15 138.475 198.734 142.205C197.955 149.425 197.632 156.686 197.767 163.946C197.767 165.951 197.805 167.955 197.843 169.96C197.882 171.964 197.843 174.115 198.028 176.173C198.097 176.941 199.218 176.749 199.233 176.027C199.303 172.417 199.103 168.785 199.064 165.175C199.026 161.566 199.064 158.033 199.134 154.462C199.256 147.187 199.908 139.931 201.084 132.751C201.43 130.747 201.814 128.75 202.275 126.776C202.735 124.803 203.365 122.652 203.91 120.594C203.933 120.509 203.841 120.402 203.795 120.509Z" fill="#E0E0E0"/>
<path opacity="0.1" d="M203.795 120.509C202.425 123.944 201.354 127.489 200.593 131.108C199.77 134.77 199.15 138.475 198.734 142.205C197.955 149.425 197.632 156.686 197.767 163.946C197.767 165.951 197.805 167.955 197.843 169.96C197.882 171.964 197.843 174.115 198.028 176.173C198.097 176.941 199.218 176.749 199.233 176.027C199.303 172.417 199.103 168.785 199.064 165.175C199.026 161.566 199.064 158.033 199.134 154.462C199.256 147.187 199.908 139.931 201.084 132.751C201.43 130.747 201.814 128.75 202.275 126.776C202.735 124.803 203.365 122.652 203.91 120.594C203.933 120.509 203.841 120.402 203.795 120.509Z" fill="black"/>
<path d="M193.128 153.072C191.024 155.453 186.216 155.246 182.968 150.991C179.719 146.736 177.784 130.747 182.338 131.791C183.306 129.656 195.885 134.787 197.498 145.216C198.673 152.78 193.128 153.072 193.128 153.072Z" fill="#E0E0E0"/>
<path opacity="0.25" d="M193.128 153.072C191.024 155.453 186.216 155.246 182.968 150.991C179.719 146.736 177.784 130.747 182.338 131.791C183.306 129.656 195.885 134.787 197.498 145.216C198.673 152.78 193.128 153.072 193.128 153.072Z" fill="white" fill-opacity="0.8"/>
<path d="M196.891 160.621C196.749 159.638 196.541 158.666 196.269 157.711C195.744 155.752 195.119 153.822 194.395 151.928C192.904 148.066 191.02 144.368 188.774 140.892C187.566 138.931 186.234 137.048 184.788 135.255C184.749 135.209 184.711 135.316 184.734 135.355C185.855 136.991 186.992 138.611 188.006 140.324C189.019 142.036 189.995 143.941 190.855 145.807C192.527 149.413 193.916 153.144 195.01 156.966C195.317 158.049 195.57 159.147 195.885 160.23C196.2 161.312 196.653 162.449 196.922 163.586C196.96 163.747 197.175 163.808 197.152 163.586C197.052 162.58 197.022 161.574 196.891 160.621Z" fill="#E0E0E0"/>
<path opacity="0.1" d="M196.891 160.621C196.749 159.638 196.541 158.666 196.269 157.711C195.744 155.752 195.119 153.822 194.395 151.928C192.904 148.066 191.02 144.368 188.774 140.892C187.566 138.931 186.234 137.048 184.788 135.255C184.749 135.209 184.711 135.316 184.734 135.355C185.855 136.991 186.992 138.611 188.006 140.324C189.019 142.036 189.995 143.941 190.855 145.807C192.527 149.413 193.916 153.144 195.01 156.966C195.317 158.049 195.57 159.147 195.885 160.23C196.2 161.312 196.653 162.449 196.922 163.586C196.96 163.747 197.175 163.808 197.152 163.586C197.052 162.58 197.022 161.574 196.891 160.621Z" fill="black"/>
<path d="M200.831 150.707C198.074 150.077 197.936 146.775 201.384 142.712C204.832 138.65 213.495 136.883 213.91 138.596C215.837 138.596 215.837 144.632 211.567 150.177C207.297 155.722 201.084 154.432 200.831 150.707Z" fill="#E0E0E0"/>
<path opacity="0.25" d="M200.831 150.707C198.074 150.077 197.936 146.775 201.384 142.712C204.832 138.65 213.495 136.883 213.91 138.596C215.837 138.596 215.837 144.632 211.567 150.177C207.297 155.722 201.084 154.432 200.831 150.707Z" fill="white" fill-opacity="0.8"/>
<path d="M206.222 144.808C202.581 147.343 199.802 150.931 198.258 155.091C198.166 155.329 198.573 155.674 198.673 155.413C200.235 151.299 202.842 147.662 206.237 144.861C206.237 144.861 206.26 144.777 206.222 144.808Z" fill="#E0E0E0"/>
<path opacity="0.1" d="M206.222 144.808C202.581 147.343 199.802 150.931 198.258 155.091C198.166 155.329 198.573 155.674 198.673 155.413C200.235 151.299 202.842 147.662 206.237 144.861C206.237 144.861 206.26 144.777 206.222 144.808Z" fill="black"/>
<path d="M203.972 170.851C200.132 172.387 201.798 176.933 205.508 180.389C208.723 183.179 212.864 184.669 217.119 184.567C219.677 184.382 220.337 184.029 220.337 184.029C220.566 181.931 220.566 179.814 220.337 177.716C219.927 175.41 218.86 173.27 217.266 171.554C215.671 169.838 213.615 168.618 211.344 168.04C205.4 166.427 203.972 168.585 203.972 170.851Z" fill="#E0E0E0"/>
<path opacity="0.45" d="M203.972 170.851C200.132 172.387 201.798 176.933 205.508 180.389C208.723 183.179 212.864 184.669 217.119 184.567C219.677 184.382 220.337 184.029 220.337 184.029C220.566 181.931 220.566 179.814 220.337 177.716C219.927 175.41 218.86 173.27 217.266 171.554C215.671 169.838 213.615 168.618 211.344 168.04C205.4 166.427 203.972 168.585 203.972 170.851Z" fill="white" fill-opacity="0.8"/>
<path d="M214.531 177.555C212.825 175.519 210.863 173.712 208.695 172.179C206.521 170.75 203.626 169.529 201.015 170.42C200.009 170.766 198.434 171.772 198.626 173.024C198.626 173.146 198.864 173.454 199.01 173.285C199.414 172.705 199.875 172.167 200.385 171.68C200.986 171.241 201.695 170.975 202.436 170.912C204.308 170.773 206.18 171.196 207.811 172.125C210.392 173.492 212.473 175.619 214.524 177.647C214.524 177.639 214.554 177.578 214.531 177.555Z" fill="#E0E0E0"/>
<path opacity="0.1" d="M214.531 177.555C212.825 175.519 210.863 173.712 208.695 172.179C206.521 170.75 203.626 169.529 201.015 170.42C200.009 170.766 198.434 171.772 198.626 173.024C198.626 173.146 198.864 173.454 199.01 173.285C199.414 172.705 199.875 172.167 200.385 171.68C200.986 171.241 201.695 170.975 202.436 170.912C204.308 170.773 206.18 171.196 207.811 172.125C210.392 173.492 212.473 175.619 214.524 177.647C214.524 177.639 214.554 177.578 214.531 177.555Z" fill="black"/>
<path d="M189.457 151.322C189.818 149.586 187.307 145.431 179.473 144.633C171.64 143.834 165.795 147.152 164.613 148.664C163.43 150.177 162.839 151.775 164.26 152.174C165.68 152.573 170.557 153.042 173.767 154.524C176.977 156.006 183.497 160.361 187.944 159.063C192.391 157.765 191.669 153.05 189.457 151.322Z" fill="#E0E0E0"/>
<path opacity="0.45" d="M189.457 151.322C189.818 149.586 187.307 145.431 179.473 144.633C171.64 143.834 165.795 147.152 164.613 148.664C163.43 150.177 162.839 151.775 164.26 152.174C165.68 152.573 170.557 153.042 173.767 154.524C176.977 156.006 183.497 160.361 187.944 159.063C192.391 157.765 191.669 153.05 189.457 151.322Z" fill="white" fill-opacity="0.8"/>
<path d="M195.401 157.373C192.099 150.561 183.597 148.518 176.624 148.518C174.338 148.524 172.063 148.819 169.851 149.394C169.851 149.394 169.812 149.478 169.851 149.478C173.594 148.841 177.415 148.802 181.171 149.363C184.887 149.847 188.434 151.214 191.515 153.349C193.011 154.471 194.266 155.881 195.209 157.496C195.34 157.672 195.463 157.519 195.401 157.373Z" fill="#E0E0E0"/>
<path opacity="0.1" d="M195.401 157.373C192.099 150.561 183.597 148.518 176.624 148.518C174.338 148.524 172.063 148.819 169.851 149.394C169.851 149.394 169.812 149.478 169.851 149.478C173.594 148.841 177.415 148.802 181.171 149.363C184.887 149.847 188.434 151.214 191.515 153.349C193.011 154.471 194.266 155.881 195.209 157.496C195.34 157.672 195.463 157.519 195.401 157.373Z" fill="black"/>
<path d="M207.673 142.198C207.574 144.932 211.421 146.521 215.146 144.156C218.871 141.791 222.772 139.487 226.228 138.596C229.684 137.705 231.312 134.886 230.221 133.527C229.131 132.168 227.395 128.727 218.325 129.848C209.255 130.97 206.038 135.063 204.793 137.951C203.549 140.838 206.306 142.989 207.673 142.198Z" fill="#E0E0E0"/>
<path opacity="0.45" d="M207.673 142.198C207.574 144.932 211.421 146.521 215.146 144.156C218.871 141.791 222.772 139.487 226.228 138.596C229.684 137.705 231.312 134.886 230.221 133.527C229.131 132.168 227.395 128.727 218.325 129.848C209.255 130.97 206.038 135.063 204.793 137.951C203.549 140.838 206.306 142.989 207.673 142.198Z" fill="white" fill-opacity="0.8"/>
<path d="M222.442 133.52C221.13 133.39 219.805 133.529 218.548 133.927C217.403 134.22 216.287 134.618 215.215 135.117C213.079 136.113 211.153 137.508 209.54 139.226C209.082 139.71 208.656 140.223 208.265 140.762C207.865 141.242 207.537 141.778 207.29 142.352C207.228 142.528 207.497 142.82 207.651 142.636C208.104 142.121 208.419 141.484 208.864 140.939C209.315 140.353 209.803 139.797 210.323 139.272C211.372 138.215 212.545 137.289 213.818 136.515C215.032 135.761 216.318 135.131 217.657 134.633C218.425 134.365 219.155 134.142 219.915 133.95C220.717 133.707 221.551 133.593 222.388 133.612C222.457 133.62 222.48 133.52 222.442 133.52Z" fill="#E0E0E0"/>
<path opacity="0.1" d="M222.442 133.52C221.13 133.39 219.805 133.529 218.548 133.927C217.403 134.22 216.287 134.618 215.215 135.117C213.079 136.113 211.153 137.508 209.54 139.226C209.082 139.71 208.656 140.223 208.265 140.762C207.865 141.242 207.537 141.778 207.29 142.352C207.228 142.528 207.497 142.82 207.651 142.636C208.104 142.121 208.419 141.484 208.864 140.939C209.315 140.353 209.803 139.797 210.323 139.272C211.372 138.215 212.545 137.289 213.818 136.515C215.032 135.761 216.318 135.131 217.657 134.633C218.425 134.365 219.155 134.142 219.915 133.95C220.717 133.707 221.551 133.593 222.388 133.612C222.457 133.62 222.48 133.52 222.442 133.52Z" fill="black"/>
<path d="M201.199 156.966C199.925 155.691 196.476 155.99 194.841 159.746C193.205 163.501 196.638 167.618 197.022 168.769C198.596 167.863 199.825 168.401 202.597 167.863C204.144 167.498 205.517 166.612 206.486 165.353C207.456 164.094 207.962 162.54 207.919 160.951C207.697 157.503 206.245 155.23 201.199 156.966Z" fill="#E0E0E0"/>
<path opacity="0.45" d="M201.199 156.966C199.925 155.691 196.476 155.99 194.841 159.746C193.205 163.501 196.638 167.618 197.022 168.769C198.596 167.863 199.825 168.401 202.597 167.863C204.144 167.498 205.517 166.612 206.486 165.353C207.456 164.094 207.962 162.54 207.919 160.951C207.697 157.503 206.245 155.23 201.199 156.966Z" fill="white" fill-opacity="0.8"/>
<path d="M201.115 156.581C200.421 157.02 199.842 157.618 199.425 158.325C198.978 158.979 198.612 159.686 198.335 160.429C197.741 161.95 197.577 163.605 197.859 165.213C197.859 165.275 197.92 165.213 197.912 165.213C197.777 163.597 198.041 161.973 198.68 160.483C198.987 159.808 199.371 159.171 199.825 158.586C200.06 158.271 200.317 157.974 200.593 157.695C200.862 157.465 201.107 157.208 201.322 156.927C201.453 156.796 201.307 156.481 201.115 156.581Z" fill="#E0E0E0"/>
<path opacity="0.1" d="M201.115 156.581C200.421 157.02 199.842 157.618 199.425 158.325C198.978 158.979 198.612 159.686 198.335 160.429C197.741 161.95 197.577 163.605 197.859 165.213C197.859 165.275 197.92 165.213 197.912 165.213C197.777 163.597 198.041 161.973 198.68 160.483C198.987 159.808 199.371 159.171 199.825 158.586C200.06 158.271 200.317 157.974 200.593 157.695C200.862 157.465 201.107 157.208 201.322 156.927C201.453 156.796 201.307 156.481 201.115 156.581Z" fill="black"/>
<path d="M195.178 164.568C195.063 161.773 192.03 159.561 187.714 158.279C185.596 157.614 183.334 157.564 181.189 158.133C179.043 158.703 177.104 159.869 175.595 161.496C172.446 164.922 170.818 167.832 172.101 168.654C173.383 169.476 179.089 171.565 182.852 172.732C186.615 173.899 191.477 174.268 195.209 172.033C198.942 169.798 198.673 165.966 195.178 164.568Z" fill="#E0E0E0"/>
<path opacity="0.25" d="M195.178 164.568C195.063 161.773 192.03 159.561 187.714 158.279C185.596 157.614 183.334 157.564 181.189 158.133C179.043 158.703 177.104 159.869 175.595 161.496C172.446 164.922 170.818 167.832 172.101 168.654C173.383 169.476 179.089 171.565 182.852 172.732C186.615 173.899 191.477 174.268 195.209 172.033C198.942 169.798 198.673 165.966 195.178 164.568Z" fill="white" fill-opacity="0.8"/>
<path d="M195.416 164.254C193.957 163.519 192.363 163.093 190.732 163.002C189.17 162.853 187.597 162.874 186.039 163.063C184.393 163.267 182.766 163.611 181.178 164.092C180.349 164.33 179.527 164.607 178.713 164.906C177.937 165.157 177.182 165.468 176.455 165.836C176.455 165.836 176.409 165.943 176.455 165.928C177.223 165.766 177.991 165.459 178.759 165.221C179.527 164.983 180.425 164.722 181.27 164.499C182.84 164.078 184.44 163.776 186.055 163.593C187.673 163.409 189.306 163.409 190.924 163.593C192.422 163.839 193.898 164.201 195.34 164.676C195.678 164.776 195.585 164.353 195.416 164.254Z" fill="#E0E0E0"/>
<path opacity="0.1" d="M195.416 164.254C193.957 163.519 192.363 163.093 190.732 163.002C189.17 162.853 187.597 162.874 186.039 163.063C184.393 163.267 182.766 163.611 181.178 164.092C180.349 164.33 179.527 164.607 178.713 164.906C177.937 165.157 177.182 165.468 176.455 165.836C176.455 165.836 176.409 165.943 176.455 165.928C177.223 165.766 177.991 165.459 178.759 165.221C179.527 164.983 180.425 164.722 181.27 164.499C182.84 164.078 184.44 163.776 186.055 163.593C187.673 163.409 189.306 163.409 190.924 163.593C192.422 163.839 193.898 164.201 195.34 164.676C195.678 164.776 195.585 164.353 195.416 164.254Z" fill="black"/>
<path d="M204.072 160.406C201 157.956 202.021 152.081 212.811 151.766C223.601 151.451 231.304 154.27 230.959 157.741C232.694 159.477 231.819 164.338 223.079 165.859C214.34 167.379 201.852 166.619 204.072 160.406Z" fill="#E0E0E0"/>
<path opacity="0.25" d="M204.072 160.406C201 157.956 202.021 152.081 212.811 151.766C223.601 151.451 231.304 154.27 230.959 157.741C232.694 159.477 231.819 164.338 223.079 165.859C214.34 167.379 201.852 166.619 204.072 160.406Z" fill="white" fill-opacity="0.8"/>
<path d="M225.882 157.781C222.698 157.256 219.467 157.068 216.244 157.22C213.246 157.197 210.257 157.54 207.343 158.241C206.597 158.432 205.87 158.689 205.17 159.009C204.845 159.16 204.53 159.329 204.225 159.516C203.979 159.662 203.71 159.793 203.618 160.077C203.609 160.122 203.611 160.169 203.624 160.213C203.637 160.258 203.66 160.298 203.691 160.332C203.723 160.366 203.762 160.391 203.805 160.407C203.849 160.423 203.895 160.428 203.941 160.422C204.597 160.166 205.229 159.853 205.83 159.486C206.436 159.217 207.059 158.991 207.696 158.81C208.922 158.45 210.175 158.193 211.444 158.042C214.463 157.672 217.503 157.505 220.545 157.543C222.319 157.543 224.085 157.704 225.859 157.842C225.92 157.911 225.936 157.788 225.882 157.781Z" fill="#E0E0E0"/>
<path opacity="0.1" d="M225.882 157.781C222.698 157.256 219.467 157.068 216.244 157.22C213.246 157.197 210.257 157.54 207.343 158.241C206.597 158.432 205.87 158.689 205.17 159.009C204.845 159.16 204.53 159.329 204.225 159.516C203.979 159.662 203.71 159.793 203.618 160.077C203.609 160.122 203.611 160.169 203.624 160.213C203.637 160.258 203.66 160.298 203.691 160.332C203.723 160.366 203.762 160.391 203.805 160.407C203.849 160.423 203.895 160.428 203.941 160.422C204.597 160.166 205.229 159.853 205.83 159.486C206.436 159.217 207.059 158.991 207.696 158.81C208.922 158.45 210.175 158.193 211.444 158.042C214.463 157.672 217.503 157.505 220.545 157.543C222.319 157.543 224.085 157.704 225.859 157.842C225.92 157.911 225.936 157.788 225.882 157.781Z" fill="black"/>
<path d="M94.0403 182.303L75.1711 171.405C71.8688 169.501 71.8688 166.413 75.1711 164.493L133.269 130.948C135.12 130.009 137.167 129.52 139.244 129.52C141.32 129.52 143.367 130.009 145.219 130.948L164.088 141.861C167.39 143.766 167.39 146.853 164.088 148.773L105.99 182.318C104.137 183.255 102.09 183.742 100.013 183.739C97.9372 183.736 95.8908 183.244 94.0403 182.303Z" fill="#E0E0E0"/>
<path d="M152.361 70.0192L137.915 61.6789H137.861L137.754 61.6175C130.627 57.5779 120.858 58.2 110.006 64.4513C88.2265 76.9771 70.563 107.589 70.563 132.732C70.563 145.235 74.9328 154.029 81.9905 158.183L82.098 158.245H82.1518L96.5975 166.585L99.1088 159.988C102.939 159.002 106.611 157.479 110.014 155.465C131.794 142.893 149.45 112.312 149.45 87.1605C149.482 83.2347 148.965 79.3237 147.914 75.541L152.361 70.0192Z" fill="#335BE9"/>
<path opacity="0.4" d="M152.361 70.0192L137.915 61.6789H137.861L137.754 61.6175C130.627 57.5779 120.858 58.2 110.006 64.4513C88.2265 76.9771 70.563 107.589 70.563 132.732C70.563 145.235 74.9328 154.029 81.9905 158.183L82.098 158.245H82.1518L96.5975 166.585L99.1088 159.988C102.939 159.002 106.611 157.479 110.014 155.465C131.794 142.893 149.45 112.312 149.45 87.1605C149.482 83.2347 148.965 79.3237 147.914 75.541L152.361 70.0192Z" fill="white" fill-opacity="0.8"/>
<path opacity="0.4" d="M70.9086 126.588C70.688 128.629 70.5726 130.679 70.563 132.732C70.563 145.234 74.9328 154.028 81.9905 158.183L82.0981 158.244H82.1518L96.5975 166.584L99.1088 159.987C99.9229 159.78 100.752 159.542 101.597 159.265L105.322 146.409L70.9086 126.588Z" fill="#335BE9"/>
<path d="M152.502 134.5C167.902 107.825 167.901 78.9928 152.5 70.1006C137.098 61.2085 112.128 75.6241 96.7272 102.299C81.3265 128.974 81.3273 157.806 96.729 166.698C112.131 175.591 137.101 161.175 152.502 134.5Z" fill="#335BE9"/>
<path d="M106.996 163.121C97.2117 163.121 91.375 154.911 91.375 141.172C91.375 118.425 108.017 89.6024 127.708 78.2363C132.877 75.2565 137.892 73.6821 142.223 73.6821C152.007 73.6821 157.844 81.8842 157.844 95.631C157.844 118.371 141.202 147.193 121.511 158.567C116.35 161.547 111.327 163.121 106.996 163.121Z" fill="#335BE9"/>
<path opacity="0.15" d="M106.996 163.121C97.2117 163.121 91.375 154.911 91.375 141.172C91.375 118.425 108.017 89.6024 127.708 78.2363C132.877 75.2565 137.892 73.6821 142.223 73.6821C152.007 73.6821 157.844 81.8842 157.844 95.631C157.844 118.371 141.202 147.193 121.511 158.567C116.35 161.547 111.327 163.121 106.996 163.121Z" fill="black"/>
<path d="M154.211 93.4736C154.211 84.7187 151.838 78.2292 147.591 74.6581C145.877 73.9964 144.053 73.6654 142.215 73.6828C137.884 73.6828 132.869 75.2572 127.7 78.2369C108.025 89.603 91.375 118.448 91.375 141.173C91.375 149.92 93.7481 156.417 97.995 159.988C99.7107 160.645 101.534 160.976 103.371 160.964C107.702 160.964 112.717 159.389 117.878 156.41C137.577 145.036 154.211 116.214 154.211 93.4736Z" fill="#FAFAFA"/>
<path d="M134.774 123.324C134.563 123.324 134.355 123.285 134.159 123.209L118.416 117.15L134.136 87.6669C134.235 87.4549 134.375 87.2653 134.549 87.1095C134.724 86.9537 134.928 86.835 135.149 86.7607C135.371 86.6864 135.605 86.658 135.838 86.6772C136.071 86.6965 136.297 86.763 136.504 86.8727C136.71 86.9824 136.892 87.133 137.038 87.3153C137.184 87.4976 137.292 87.7078 137.354 87.933C137.417 88.1582 137.432 88.3938 137.401 88.6253C137.369 88.8569 137.29 89.0795 137.17 89.2796L123.346 115.337L135.396 119.983C135.771 120.128 136.083 120.399 136.279 120.75C136.475 121.101 136.542 121.51 136.468 121.905C136.394 122.3 136.184 122.657 135.874 122.913C135.565 123.17 135.175 123.31 134.774 123.309V123.324Z" fill="#37474F"/>
<path d="M120.98 122.733C122.617 121.666 123.979 120.228 124.956 118.536C125.933 116.844 126.497 114.946 126.602 112.995C126.602 109.409 124.083 107.957 120.98 109.747C119.343 110.815 117.981 112.254 117.004 113.947C116.028 115.64 115.464 117.54 115.359 119.492C115.359 123.056 117.878 124.53 120.98 122.733Z" fill="#455A64"/>
<path d="M120.981 150.703C120.52 150.972 120.144 150.703 120.144 150.158V143.538C120.151 143.234 120.231 142.936 120.377 142.669C120.523 142.402 120.729 142.174 120.981 142.002C121.441 141.741 121.818 142.002 121.818 142.555V149.167C121.81 149.472 121.731 149.77 121.585 150.037C121.44 150.304 121.232 150.532 120.981 150.703Z" fill="#335BE9"/>
<path d="M120.911 92.8117C120.451 93.0805 120.082 92.8117 120.082 92.2665V85.6388C120.088 85.3353 120.167 85.0377 120.311 84.7706C120.455 84.5036 120.661 84.2746 120.911 84.1028C121.372 83.8417 121.749 84.1028 121.749 84.6558V91.2758C121.741 91.5798 121.661 91.8776 121.515 92.1446C121.37 92.4117 121.163 92.6403 120.911 92.8117Z" fill="#335BE9"/>
<path d="M92.9112 133.906C92.9337 133.607 93.0268 133.317 93.183 133.061C93.3392 132.804 93.554 132.589 93.8098 132.432L99.5773 129.122C100.076 128.837 100.468 129.037 100.468 129.567C100.444 129.866 100.35 130.155 100.194 130.411C100.038 130.667 99.8241 130.883 99.5696 131.041L93.8405 134.351C93.3029 134.643 92.9036 134.444 92.9112 133.906Z" fill="#335BE9"/>
<path d="M142.769 105.053C142.793 104.754 142.887 104.465 143.043 104.209C143.199 103.953 143.413 103.737 143.667 103.578L149.404 100.26C149.895 99.9763 150.295 100.176 150.287 100.714C150.265 101.013 150.172 101.303 150.015 101.559C149.859 101.815 149.644 102.031 149.389 102.188L143.659 105.498C143.168 105.782 142.769 105.583 142.769 105.053Z" fill="#335BE9"/>
</svg>
