<svg width="16" height="16" viewBox="0 0 16 16" fill="none" xmlns="http://www.w3.org/2000/svg">
<path d="M7.99967 14.6663C11.6816 14.6663 14.6663 11.6816 14.6663 7.99967C14.6663 4.31778 11.6816 1.33301 7.99967 1.33301C4.31778 1.33301 1.33301 4.31778 1.33301 7.99967C1.33301 11.6816 4.31778 14.6663 7.99967 14.6663Z" stroke="#8192AA" stroke-width="1.5" stroke-linecap="round" stroke-linejoin="round"/>
<path d="M11.3337 11.0003H9.26701L10.347 9.80697C10.8803 9.21363 11.1737 8.46035 11.1737 7.68701C11.1737 6.88701 10.8403 6.12034 10.247 5.55367C9.65366 4.987 8.84699 4.66699 8.00033 4.66699C7.16033 4.66699 6.35366 4.987 5.75366 5.55367C5.16033 6.12034 4.82699 6.88701 4.82699 7.68701C4.82699 8.46701 5.12031 9.2203 5.65365 9.80697L6.73364 11.0003H4.66699" stroke="#8192AA" stroke-width="1.5" stroke-linecap="round" stroke-linejoin="round"/>
</svg>
