<svg width="54" height="54" viewBox="0 0 54 54" fill="none" xmlns="http://www.w3.org/2000/svg">
<rect width="54" height="54" fill="white"/>
<path fill-rule="evenodd" clip-rule="evenodd" d="M25.1077 1.71732C24.939 1.74083 24.3636 1.80974 23.8292 1.87057C13.3341 3.06386 4.37739 11.2713 2.20547 21.6853C1.78559 23.6983 1.6875 24.7075 1.6875 27.0123C1.6875 29.3171 1.78559 30.3263 2.20547 32.3393C4.21517 41.9754 12.0297 49.7861 21.6704 51.7948C23.6844 52.2145 24.6941 52.3125 27 52.3125C29.3059 52.3125 30.3156 52.2145 32.3296 51.7948C41.9682 49.7865 49.7852 41.9732 51.7945 32.3393C52.2144 30.3263 52.3125 29.3171 52.3125 27.0123C52.3125 24.7075 52.2144 23.6983 51.7945 21.6853C50.1462 13.782 44.5113 6.92948 37.02 3.71827C34.9602 2.83536 32.8765 2.25242 30.5288 1.90226C29.5532 1.75678 25.7543 1.62715 25.1077 1.71732ZM30.4266 2.61954C34.8447 3.27968 38.7263 4.92158 42.1382 7.57357C43.0352 8.27081 45.5136 10.6172 45.5136 10.7693C45.5136 10.903 43.4803 9.4546 42.5851 8.68313C38.989 5.58447 34.3885 3.60581 29.5544 3.07879C27.7912 2.88648 24.374 3.01152 22.704 3.32937C18.6636 4.09828 15.014 5.76144 11.9129 8.24699C10.9333 9.03216 9.11831 10.8403 8.31599 11.8303C7.53811 12.7903 6.33452 14.5567 5.97437 15.2672C5.83516 15.5418 5.66445 15.767 5.5951 15.7678C5.52575 15.7686 5.35729 15.7991 5.22074 15.8356C4.97873 15.9003 4.98231 15.8842 5.36567 15.1952C9.24719 8.21836 16.2412 3.46861 23.9314 2.58714C24.4659 2.52579 25.0412 2.45638 25.21 2.43286C25.8455 2.34392 29.4441 2.47284 30.4266 2.61954ZM26.0794 6.10383V7.99375L25.709 8.14854C25.5052 8.2336 25.3211 8.30322 25.2998 8.30322C25.2303 8.30322 25.2593 4.35192 25.3294 4.28199C25.3668 4.24447 25.5509 4.2138 25.7385 4.2138H26.0794V6.10383ZM28.7388 4.63471C28.7388 5.02126 28.7201 5.0505 28.5087 4.99386C28.3821 4.96002 28.2211 4.9316 28.1507 4.93088C28.0731 4.92996 28.0229 4.78898 28.0229 4.57163C28.0229 4.23088 28.0399 4.2138 28.3808 4.2138C28.732 4.2138 28.7388 4.22188 28.7388 4.63471ZM23.3177 4.86637C23.3177 5.13873 23.2687 5.22542 23.0876 5.27398C22.6657 5.38695 22.6017 5.34954 22.6017 4.98905C22.6017 4.62857 22.6926 4.54239 23.0876 4.52859C23.2825 4.52174 23.3177 4.57347 23.3177 4.86637ZM32.8164 4.93998C33.4558 5.10427 34.0197 5.26386 34.0694 5.29453C34.1192 5.32531 34.16 5.64673 34.16 6.00895V6.66745H33.7508C33.3429 6.66745 33.3417 6.66623 33.3417 6.26577C33.3417 5.86848 33.3357 5.86235 32.7972 5.70583C32.3291 5.56985 30.8582 5.23616 30.7268 5.23616C30.7023 5.23616 30.6823 5.06992 30.6823 4.86668V4.4973L31.1681 4.56928C31.4354 4.60884 32.1771 4.77569 32.8164 4.93998ZM20.6389 5.50361L20.6072 5.87329L19.5332 6.25166C17.8025 6.86129 17.9989 6.42168 17.9989 9.68698V12.4949H18.5815H19.1641L18.8188 12.851L18.4735 13.2071L15.8581 13.2343L13.2427 13.2616L13.2139 14.514L13.1852 15.7664H12.8303H12.4755V14.1306V12.4949H14.8281H17.1806V9.43998V6.38498L18.0245 6.02296C18.9493 5.62608 20.3252 5.14067 20.5366 5.13658C20.6287 5.13474 20.6607 5.24986 20.6389 5.50361ZM38.5358 7.3373C38.5117 7.36143 38.0466 7.28005 37.5022 7.15655L36.5125 6.93204V6.59435V6.25667L37.5461 6.77511C38.1146 7.06024 38.56 7.31317 38.5358 7.3373ZM28.7304 7.03724C28.8027 7.10379 28.678 7.18098 28.3436 7.27688C28.0448 7.36255 28.0229 7.3512 28.0229 7.11228C28.0229 6.87632 28.0497 6.86139 28.3553 6.92682C28.5382 6.96598 28.7069 7.01567 28.7304 7.03724ZM23.3177 8.29964C23.3177 9.20218 23.2951 9.33048 23.1199 9.42423C23.0111 9.4824 22.4127 9.53005 21.7902 9.53005H20.6583V10.3167C20.6583 11.0313 20.6331 11.1298 20.3835 11.3902C20.2323 11.548 20.0712 11.677 20.0255 11.677C19.9798 11.677 19.9423 11.0329 19.9423 10.2457V8.8144H21.272H22.6017V8.10723C22.6017 7.37216 22.6418 7.30458 23.0876 7.28894C23.3114 7.28107 23.3177 7.30888 23.3177 8.29964ZM15.237 7.91984C15.2369 8.3251 15.2051 8.37438 14.7652 8.65225C12.5797 10.0322 10.3186 12.2854 8.67726 14.7185C7.97906 15.7535 7.96535 15.7664 7.56358 15.7664C7.33978 15.7664 7.15669 15.739 7.15669 15.7054C7.15669 15.5812 8.32959 13.847 8.98247 13.006C10.3914 11.1912 12.5484 9.19165 14.4065 7.97821C14.8215 7.70709 15.1783 7.48534 15.1992 7.48534C15.2201 7.48534 15.2371 7.68091 15.237 7.91984ZM36.6659 8.50166C39.6235 9.09861 42.517 10.4388 44.953 12.3401C45.8682 13.0544 46.1201 13.4635 45.936 13.937C45.852 14.1535 43.3326 16.8944 42.5395 17.6322C42.0964 18.0444 41.6951 18.0078 41.0642 17.4976C38.4511 15.3841 35.4981 14.4364 32.4814 14.7431C27.3128 15.2686 23.1634 19.2455 22.2359 24.5626C21.9949 25.9441 22.0807 28.0367 22.4339 29.3938C23.4349 33.2395 26.166 36.2602 29.8321 37.5764C32.4313 38.5095 36.0752 38.3457 39.0441 37.1622L39.6834 36.9074V34.7774V32.6474L36.9472 32.6158C33.8671 32.5801 33.7115 32.5466 33.3564 31.8408C33.2508 31.6311 32.8503 30.5104 32.4662 29.3502C31.7832 27.2865 31.7718 27.2352 31.9435 26.9732L32.119 26.7056H38.9047H45.6903L45.96 26.9751L46.2296 27.2447V34.1874V41.1301L45.9852 41.3742C45.6836 41.6758 44.2223 42.4162 42.8512 42.9622C39.7646 44.1913 36.5731 44.8032 33.269 44.7994C30.7932 44.7966 28.706 44.4268 26.5544 43.61C22.8593 42.2072 19.4381 39.3467 17.5072 36.0454L17.1295 35.3995L14.5212 35.397C13.0646 35.3956 11.7465 35.3483 11.5359 35.2898C11.3286 35.2322 11.0478 35.0531 10.9119 34.8917C10.6318 34.559 9.20239 30.5339 9.20239 30.0778C9.20239 29.4768 9.2567 29.466 12.2567 29.466H14.9896L14.9855 27.0379C14.9833 25.7025 15.0197 24.2993 15.0664 23.9197L15.1512 23.2296L11.4353 23.2251C7.40923 23.2203 7.09112 23.1831 6.70203 22.6728C6.48723 22.391 5.0087 18.1995 5.0087 17.8724C5.0087 17.7632 5.0849 17.5898 5.17798 17.4869C5.33836 17.3099 5.66476 17.2999 11.3565 17.2999H17.3658L17.6391 16.8338C18.2241 15.836 19.4677 14.3228 20.5854 13.2489C23.3075 10.6333 26.6675 8.96877 30.4703 8.35178C31.8416 8.12932 35.227 8.21121 36.6659 8.50166ZM48.8475 15.6131C49.8522 17.5084 50.6949 19.8747 51.1291 22.0203C51.5136 23.9212 51.5965 24.8061 51.5965 27.0123C51.5965 29.757 51.3506 31.5357 50.6283 34.014C50.0719 35.9228 48.8712 38.6193 48.0201 39.8712L47.7639 40.2481V39.7786C47.7639 39.4028 47.9051 39.0257 48.4716 37.8891C49.5996 35.6257 50.2236 33.7777 50.6945 31.3062C51.0125 29.637 51.1376 26.2215 50.9452 24.4592C50.5982 21.2798 49.5506 17.9817 48.0243 15.2635C47.5518 14.4223 47.4572 14.1704 47.458 13.7575L47.459 13.2616L47.8822 13.9262C48.115 14.2917 48.5494 15.0508 48.8475 15.6131ZM16.7109 15.5108C16.5612 15.7393 16.474 15.7664 15.8903 15.7664C15.2619 15.7664 15.2372 15.7568 15.2372 15.5108C15.2372 15.2594 15.2507 15.2552 16.0578 15.2552H16.8785L16.7109 15.5108ZM47.9877 17.9645C48.1581 18.3581 48.4506 19.1286 48.6377 19.6769L48.9778 20.6737H48.5833C48.2174 20.6737 48.1801 20.646 48.0671 20.2903C48.0001 20.0795 47.7794 19.4814 47.5769 18.9613L47.2087 18.0156H45.7986C45.023 18.0156 44.3885 17.9833 44.3885 17.9438C44.3885 17.9042 44.5368 17.719 44.7181 17.532L45.0478 17.1921L46.3629 17.2205L47.678 17.2488L47.9877 17.9645ZM38.8651 21.4425V25.1721H38.4559H38.0468V21.234V17.2957L38.4559 17.5044L38.8651 17.7131V21.4425ZM3.74302 20.752C3.10701 23.1778 3.01629 23.9708 3.0215 27.0634C3.026 29.7336 3.04462 30.0188 3.29747 31.3062C4.11381 35.4633 5.77338 39.0647 8.31466 42.1943C9.12046 43.1866 10.936 44.9946 11.9129 45.7776C15.0049 48.2558 18.5999 49.897 22.704 50.7039C24.002 50.9591 24.2599 50.9755 27 50.9755C29.7401 50.9755 29.998 50.9591 31.296 50.7039C35.9291 49.793 39.8671 47.8485 43.1716 44.84C43.6824 44.375 44.1739 44.0353 44.6036 43.8502L45.2579 43.5683L44.4908 44.3471C40.6615 48.2351 35.8812 50.601 30.1197 51.4597C28.9043 51.6408 25.0957 51.6408 23.8803 51.4597C17.991 50.582 13.231 48.1871 9.29966 44.1239C4.99468 39.6744 2.63006 34.1185 2.38672 27.8813C2.27758 25.083 2.62177 22.4896 3.48066 19.639L3.70794 18.8846L3.85594 19.3207C3.99362 19.7265 3.98574 19.8265 3.74302 20.752ZM41.2621 19.3421C41.4482 19.4128 41.5245 19.5169 41.5245 19.6999V19.9581H43.4168H45.309V21.2824V22.6069L45.9956 22.637C46.6799 22.6672 46.6824 22.6684 46.7498 22.9996L46.8174 23.3318H45.6541H44.4908V22.0028V20.6737H43.0076H41.5245V22.9229V25.1721H41.1665H40.8085V22.2072C40.8085 20.4365 40.8471 19.2424 40.9041 19.2424C40.9567 19.2424 41.1178 19.2873 41.2621 19.3421ZM4.99959 22.6162C5.11712 22.9254 5.21317 23.213 5.21317 23.2551C5.21327 23.2973 5.05217 23.3318 4.85527 23.3318C4.6106 23.3318 4.49727 23.2849 4.49727 23.1835C4.49727 22.9709 4.71565 21.9823 4.75401 22.0213C4.7716 22.0392 4.88217 22.3069 4.99959 22.6162ZM49.4836 22.9996C49.5144 23.3182 49.5008 23.3318 49.1512 23.3318C48.9286 23.3318 48.7862 23.2821 48.7853 23.204C48.7846 23.1338 48.7553 22.9696 48.7205 22.8393C48.661 22.6176 48.6828 22.6043 49.0542 22.6348C49.4198 22.6647 49.4541 22.6939 49.4836 22.9996ZM9.50924 25.3765V26.0922H8.23671C7.53678 26.0922 6.93861 26.0509 6.90742 26.0005C6.87622 25.95 6.87929 25.7659 6.91417 25.5915L6.97769 25.2743H7.88547H8.79325V24.9676C8.79325 24.6852 8.82168 24.6609 9.15125 24.6609H9.50924V25.3765ZM13.1915 26.2967V27.9324H12.8335H12.4755V26.2967V24.6609H12.8335H13.1915V26.2967ZM4.92032 25.3222C4.94671 25.3487 4.94937 25.5327 4.92615 25.7312C4.88718 26.0651 4.85803 26.0922 4.53727 26.0922C4.21241 26.0922 4.19042 26.0706 4.19042 25.7514C4.19042 25.5639 4.2211 25.3799 4.25864 25.3425C4.33617 25.265 4.84739 25.2494 4.92032 25.3222ZM49.8096 25.6832V26.0922H48.5538H47.2981L46.7536 25.6832L46.209 25.2743H48.0094H49.8096V25.6832ZM8.74211 28.223C8.57333 28.326 8.37204 28.4869 8.29491 28.5804C8.17279 28.7281 7.8957 28.7503 6.1725 28.7503H4.19042V28.3925V28.0347L6.61969 28.0351C9.0192 28.0354 9.04518 28.0377 8.74211 28.223ZM49.8096 28.3925C49.8096 28.7332 49.7925 28.7503 49.4516 28.7503C49.1107 28.7503 49.0936 28.7332 49.0936 28.3925C49.0936 28.0517 49.1107 28.0347 49.4516 28.0347C49.7925 28.0347 49.8096 28.0517 49.8096 28.3925ZM5.25111 30.9228C5.36404 31.344 5.3265 31.4084 4.9685 31.4084C4.61388 31.4084 4.49727 31.2799 4.49727 30.8889C4.49727 30.7342 4.57041 30.6928 4.8433 30.6928C5.11579 30.6928 5.20253 30.7417 5.25111 30.9228ZM7.86266 31.0147C7.92444 31.1918 7.97497 31.3528 7.97497 31.3725C7.97497 31.3923 7.83688 31.4084 7.66811 31.4084C7.49934 31.4084 7.36126 31.3967 7.36126 31.3822C7.36126 31.3677 7.3184 31.2067 7.26613 31.0243C7.17479 30.7061 7.18256 30.6928 7.46068 30.6928C7.69368 30.6928 7.77234 30.7559 7.86266 31.0147ZM49.3462 31.7918C49.2159 32.3963 49.0236 33.1669 48.9188 33.5043L48.7282 34.1177L48.2461 34.1488L47.7639 34.18V33.7725C47.7639 33.4342 47.8011 33.3596 47.9833 33.3325C48.23 33.2957 48.3273 33.0336 48.631 31.5873L48.8187 30.6928H49.2009H49.5831L49.3462 31.7918ZM6.13721 34.2966C6.32316 34.8166 6.5618 35.4378 6.66735 35.6768L6.85945 36.1113H8.41633C9.88064 36.1113 9.99438 36.1255 10.3294 36.3513C10.5252 36.4833 10.8236 36.6406 10.9924 36.701C11.2271 36.785 10.7198 36.8127 8.83253 36.8188L6.36582 36.8269L6.05712 36.1368C5.689 35.3138 5.11098 33.7005 5.11098 33.4961C5.11098 33.3995 5.22595 33.3509 5.45497 33.3509C5.79629 33.3509 5.80161 33.3583 6.13721 34.2966ZM47.8958 36.3157C47.8664 36.4282 47.8246 36.5202 47.8031 36.5202C47.7816 36.5202 47.7639 36.4282 47.7639 36.3157C47.7639 36.2033 47.8056 36.1113 47.8566 36.1113C47.9076 36.1113 47.9252 36.2033 47.8958 36.3157ZM13.2148 38.7949L13.2427 40.763L16.3174 40.8141L19.3922 40.8652L19.7951 41.194L20.198 41.5229L19.0985 41.5263L17.9989 41.5297V43.0121V44.4946H19.3263H20.6537L20.6815 46.3603L20.7095 48.2259L22.0136 48.531L23.3177 48.8362V49.208V49.5798L22.3967 49.391C21.8899 49.2872 21.1305 49.102 20.709 48.9795L19.9423 48.757V47.0377V45.3184L18.587 45.2898L17.2318 45.2613L17.2038 43.3955L17.176 41.5297H14.8257H12.4755V39.1783V36.8269H12.8313H13.1871L13.2148 38.7949ZM15.9532 37.4403V38.0537L16.4391 38.0553C16.9969 38.0571 17.0559 38.0878 17.3715 38.5393L17.6037 38.8716H16.4204H15.2372V37.8493V36.8269H15.5952H15.9532V37.4403ZM8.69669 39.3913C10.7436 42.4039 13.5252 44.8755 16.8226 46.6114C17.9339 47.1964 17.9482 47.2087 17.9801 47.5962C18.0104 47.9647 17.998 47.9842 17.7755 47.915C17.4133 47.8026 16.2679 47.214 15.3045 46.6452C12.6344 45.0688 9.85302 42.4313 8.07735 39.7919C7.73981 39.2901 7.46354 38.8546 7.46354 38.8244C7.46354 38.7941 7.64592 38.7694 7.8689 38.7694C8.25042 38.7694 8.29901 38.8059 8.69669 39.3913ZM23.0365 43.5686C23.27 43.6856 23.3177 43.7761 23.3177 44.1021V44.4946H24.0326C24.5645 44.4946 24.9181 44.5627 25.4135 44.761L26.0794 45.0275V46.0963V47.165L25.6959 47.1333L25.3123 47.1016L25.2827 46.207L25.2532 45.3124H23.9275H22.6017V44.3327C22.6017 43.7938 22.6363 43.3698 22.6785 43.3903C22.7206 43.4109 22.8818 43.491 23.0365 43.5686ZM40.6039 45.3508C40.6039 45.4077 39.1152 46.426 38.9257 46.4987C38.7938 46.5493 38.7628 46.485 38.7628 46.1608V45.7605L39.6066 45.5475C40.5626 45.3061 40.6039 45.2979 40.6039 45.3508ZM28.5087 45.7858C28.7373 45.847 28.7388 45.8605 28.7388 47.8292V49.8108H28.3808H28.0229V47.7661C28.0229 45.6017 28.0105 45.6524 28.5087 45.7858ZM36.7981 46.9218L36.7682 47.7132L35.4385 48.2425C34.7072 48.5336 33.9363 48.8037 33.7252 48.8426C33.3418 48.9134 33.3417 48.9133 33.3417 48.5571C33.3417 48.2009 33.3423 48.2005 34.2389 47.8875C34.7324 47.7153 35.3538 47.4811 35.6198 47.3672L36.1034 47.1599V46.6452V46.1303H36.4657H36.828L36.7981 46.9218ZM31.3983 46.431C31.3983 46.6555 31.3574 46.6885 30.9635 46.7827C30.7039 46.8446 30.6823 46.826 30.6823 46.5412C30.6823 46.2566 30.7102 46.2326 31.0403 46.2326C31.3265 46.2326 31.3983 46.2723 31.3983 46.431ZM31.3788 49.066C31.3507 49.4031 31.3098 49.4533 31.0147 49.5131C30.686 49.5797 30.6823 49.5761 30.6823 49.1916C30.6823 48.8695 30.7218 48.7951 30.9124 48.7584C31.3995 48.6646 31.4118 48.6727 31.3788 49.066ZM26.0794 49.453C26.0794 49.8023 26.0697 49.8108 25.6703 49.8108C25.2709 49.8108 25.2612 49.8023 25.2612 49.453C25.2612 49.1036 25.2709 49.0952 25.6703 49.0952C26.0697 49.0952 26.0794 49.1036 26.0794 49.453Z" fill="#335BE9"/>
<rect x="0.5" y="0.5" width="53" height="53" rx="26.5" stroke="white"/>
</svg>
