<svg width="35" height="35" viewBox="0 0 35 35" fill="none" xmlns="http://www.w3.org/2000/svg">
<path d="M24.793 2.91667H10.2096C6.18464 2.91667 2.91797 6.16876 2.91797 10.1792V18.9V20.3583C2.91797 24.3688 6.18464 27.6208 10.2096 27.6208H12.3971C12.7909 27.6208 13.3159 27.8833 13.5638 28.2042L15.7513 31.1063C16.7138 32.3896 18.2888 32.3896 19.2513 31.1063L21.4388 28.2042C21.7159 27.8396 22.1534 27.6208 22.6055 27.6208H24.793C28.818 27.6208 32.0846 24.3688 32.0846 20.3583V10.1792C32.0846 6.16876 28.818 2.91667 24.793 2.91667ZM11.668 17.5C10.8513 17.5 10.2096 16.8438 10.2096 16.0417C10.2096 15.2396 10.8659 14.5833 11.668 14.5833C12.4701 14.5833 13.1263 15.2396 13.1263 16.0417C13.1263 16.8438 12.4846 17.5 11.668 17.5ZM17.5013 17.5C16.6846 17.5 16.043 16.8438 16.043 16.0417C16.043 15.2396 16.6992 14.5833 17.5013 14.5833C18.3034 14.5833 18.9596 15.2396 18.9596 16.0417C18.9596 16.8438 18.318 17.5 17.5013 17.5ZM23.3346 17.5C22.518 17.5 21.8763 16.8438 21.8763 16.0417C21.8763 15.2396 22.5326 14.5833 23.3346 14.5833C24.1367 14.5833 24.793 15.2396 24.793 16.0417C24.793 16.8438 24.1513 17.5 23.3346 17.5Z" fill="white"/>
</svg>
