<svg width="55" height="54" viewBox="0 0 55 54" fill="none" xmlns="http://www.w3.org/2000/svg">
<g clip-path="url(#clip0_6436_134391)">
<path opacity="0.05" d="M39.2888 15.0482C40.0628 15.6987 41.046 16.0563 42.0547 16.0563C43.3346 16.0563 44.5393 15.495 45.362 14.5162C46.8899 12.6953 46.6513 9.97041 44.8305 8.44131C44.0554 7.79081 43.0722 7.43262 42.0624 7.43262C40.783 7.43262 39.5784 7.99399 38.7568 8.97279C37.2283 10.7942 37.4675 13.5186 39.2888 15.0482Z" fill="#335BE9"/>
<path opacity="0.1" d="M49.4647 19.9824C49.1973 19.9824 48.9271 20.0062 48.663 20.0527C46.1801 20.4906 44.5148 22.8684 44.9527 25.3525C45.338 27.5421 47.2286 29.131 49.4475 29.131C49.7144 29.131 49.9856 29.1072 50.2508 29.0612C52.7338 28.6228 54.3985 26.2455 53.9606 23.7625C53.5741 21.5724 51.683 19.9824 49.4647 19.9824Z" fill="#335BE9"/>
<path opacity="0.2" d="M49.3068 34.9399C48.5716 34.5147 47.7379 34.291 46.8964 34.291C45.1702 34.291 43.5625 35.2183 42.7006 36.7109C42.0556 37.8286 41.8829 39.1308 42.2178 40.3786C42.5527 41.6265 43.3538 42.67 44.4705 43.315C45.2062 43.7407 46.04 43.965 46.8826 43.965C48.6076 43.965 50.2153 43.0382 51.0767 41.5462C52.4087 39.2365 51.6148 36.273 49.3068 34.9399Z" fill="#335BE9"/>
<path opacity="0.3" d="M35.554 43.5391C34.9617 43.5391 34.3748 43.6431 33.8101 43.848C32.5313 44.3136 31.511 45.2497 30.9352 46.4838C30.36 47.7178 30.2997 49.1018 30.7647 50.3812C31.4955 52.3887 33.421 53.7378 35.5557 53.7378C36.1481 53.7378 36.7349 53.6338 37.2979 53.4284C38.5756 52.9628 39.5954 52.0271 40.1717 50.7909C40.7475 49.5563 40.8084 48.1723 40.3444 46.8951C39.6148 44.8882 37.6888 43.5391 35.554 43.5391Z" fill="#335BE9"/>
<path opacity="0.6" d="M22.5919 43.6009C21.9973 43.385 21.3806 43.2754 20.7594 43.2754C18.5151 43.2754 16.4911 44.6938 15.7232 46.8047C15.2327 48.1506 15.2964 49.606 15.9015 50.9032C16.506 52.2008 17.5795 53.1846 18.9253 53.6746C19.5188 53.891 20.1361 53.9995 20.7589 53.9995C23.0043 53.9995 25.0278 52.5812 25.7951 50.4719C26.2845 49.1288 26.2203 47.6733 25.6146 46.3751C25.0084 45.0752 23.9355 44.0903 22.5919 43.6009Z" fill="#335BE9"/>
<path opacity="0.7" d="M14.296 36.3162C13.2939 34.5817 11.4266 33.5049 9.42142 33.5049C8.44097 33.5049 7.47159 33.7662 6.61626 34.2584C5.31527 35.0096 4.3852 36.2232 3.99712 37.672C3.60793 39.1225 3.80723 40.6377 4.55848 41.9382C5.56052 43.6732 7.42841 44.7505 9.4336 44.7505C10.4135 44.7505 11.3829 44.4892 12.2377 43.9965C14.9216 42.4469 15.845 39.0012 14.296 36.3162Z" fill="#335BE9"/>
<path opacity="0.8" d="M6.86489 30.4433C9.72043 30.4433 12.1547 28.3977 12.6518 25.5792C12.9242 24.0308 12.5782 22.4696 11.6763 21.1835C10.7756 19.8958 9.42701 19.0366 7.878 18.7631C7.53476 18.7033 7.18765 18.6729 6.84828 18.6729C3.99275 18.6729 1.55851 20.7179 1.06136 23.5364C0.788985 25.0838 1.13499 26.645 2.03683 27.9327C2.93811 29.2198 4.28727 30.0796 5.83517 30.3525C6.17675 30.4129 6.52331 30.4433 6.86489 30.4433Z" fill="#335BE9"/>
<path opacity="0.9" d="M14.2588 17.8917C15.6977 17.8917 17.0994 17.3808 18.2061 16.4534C19.4617 15.3999 20.2318 13.9179 20.3752 12.2803C20.5185 10.6427 20.017 9.04934 18.9629 7.79373C17.7925 6.39861 16.0747 5.59863 14.2511 5.59863C12.81 5.59863 11.4083 6.10907 10.3033 7.03638C9.04601 8.09158 8.27427 9.57362 8.13144 11.209C7.98805 12.8433 8.49018 14.4372 9.54592 15.6955C10.7179 17.0912 12.4352 17.8917 14.2588 17.8917Z" fill="#335BE9"/>
<path d="M28.1561 13.371C31.8484 13.371 34.8416 10.3778 34.8416 6.6855C34.8416 2.9932 31.8484 0 28.1561 0C24.4639 0 21.4707 2.9932 21.4707 6.6855C21.4707 10.3778 24.4639 13.371 28.1561 13.371Z" fill="#335BE9"/>
</g>
<defs>
<clipPath id="clip0_6436_134391">
<rect width="54" height="54" fill="white" transform="translate(0.5)"/>
</clipPath>
</defs>
</svg>
