<svg width="24" height="24" viewBox="0 0 24 24" fill="none" xmlns="http://www.w3.org/2000/svg">
<path d="M5.09009 2H18.9099C20.0631 2 21 2.9492 21 4.11745V6.45394C21 7.31187 20.4775 8.37059 19.955 8.89995L15.4504 12.9341C14.8198 13.4634 14.4054 14.5221 14.4054 15.3801V19C14.4054 19.6389 13.991 20.4786 13.4685 20.8071L12.009 21.7381C10.6396 22.596 8.76577 21.6286 8.76577 19.9309V15.2523C8.76577 14.5039 8.35135 13.5547 7.91892 13.0253L3.93694 8.77218C3.41441 8.26107 3 7.29361 3 6.65473V4.22697C3 2.9492 3.93694 2 5.09009 2Z" stroke="#8E8EA9" stroke-width="1.5" stroke-miterlimit="10" stroke-linecap="round" stroke-linejoin="round"/>
</svg>
