<svg width="16" height="17" viewBox="0 0 16 17" fill="none" xmlns="http://www.w3.org/2000/svg">
<path d="M3.59896 1.8999H12.399C13.1323 1.8999 13.7323 2.4999 13.7323 3.23324V4.6999C13.7323 5.23324 13.399 5.8999 13.0656 6.23324L10.199 8.76657C9.79896 9.0999 9.53229 9.76657 9.53229 10.2999V13.1666C9.53229 13.5666 9.26563 14.0999 8.93229 14.2999L7.99896 14.8999C7.13229 15.4332 5.93229 14.8332 5.93229 13.7666V10.2332C5.93229 9.76657 5.66563 9.16657 5.39896 8.83324L2.86563 6.16657C2.53229 5.83324 2.26562 5.23324 2.26562 4.83324V3.2999C2.26562 2.4999 2.86563 1.8999 3.59896 1.8999Z" stroke="#8E8EA9" stroke-width="1.2" stroke-miterlimit="10" stroke-linecap="round" stroke-linejoin="round"/>
<path d="M7.28667 1.8999L4 7.16657" stroke="#8E8EA9" stroke-width="1.2" stroke-miterlimit="10" stroke-linecap="round" stroke-linejoin="round"/>
</svg>
