<svg width="27" height="27" viewBox="0 0 27 27" fill="none" xmlns="http://www.w3.org/2000/svg">
<circle cx="13.5" cy="13.5" r="13.5" fill="white"/>
<path fill-rule="evenodd" clip-rule="evenodd" d="M12.7955 4.10196C12.7328 4.11071 12.5189 4.13632 12.3203 4.15893C8.41908 4.6025 5.08972 7.65335 4.28238 11.5244C4.12631 12.2727 4.08984 12.6478 4.08984 13.5045C4.08984 14.3613 4.12631 14.7364 4.28238 15.4847C5.02942 19.0666 7.9342 21.9699 11.5178 22.7166C12.2665 22.8726 12.6418 22.9091 13.4989 22.9091C14.3561 22.9091 14.7314 22.8726 15.48 22.7166C19.0629 21.9701 21.9686 19.0658 22.7155 15.4847C22.8716 14.7364 22.908 14.3613 22.908 13.5045C22.908 12.6478 22.8716 12.2727 22.7155 11.5244C22.1028 8.58662 20.0082 6.03942 17.2235 4.84575C16.4579 4.51756 15.6833 4.30087 14.8107 4.17071C14.448 4.11663 13.0359 4.06845 12.7955 4.10196ZM14.7726 4.43734C16.4149 4.68272 17.8578 5.29304 19.1261 6.27883C19.4595 6.53801 20.3808 7.41021 20.3808 7.46676C20.3808 7.51643 19.6249 6.97804 19.2922 6.69128C17.9555 5.53945 16.2454 4.80395 14.4484 4.60805C13.793 4.53656 12.5228 4.58304 11.902 4.70119C10.4001 4.98701 9.04354 5.60524 7.89082 6.52916C7.52665 6.82102 6.852 7.49313 6.55377 7.86115C6.26462 8.218 5.81722 8.87457 5.68335 9.13869C5.6316 9.24076 5.56814 9.32448 5.54237 9.32478C5.51659 9.32505 5.45397 9.33641 5.40321 9.34998C5.31325 9.37404 5.31458 9.36803 5.45708 9.11193C6.89991 6.51852 9.49972 4.75295 12.3583 4.42529C12.557 4.40249 12.7708 4.37669 12.8336 4.36795C13.0698 4.33488 14.4075 4.3828 14.7726 4.43734ZM13.1567 5.73251V6.43502L13.019 6.49256C12.9433 6.52418 12.8749 6.55006 12.8669 6.55006C12.8411 6.55006 12.8519 5.08129 12.8779 5.0553C12.8919 5.04135 12.9603 5.02995 13.03 5.02995H13.1567V5.73251ZM14.1453 5.18641C14.1453 5.3301 14.1383 5.34097 14.0597 5.31991C14.0127 5.30733 13.9528 5.29677 13.9267 5.2965C13.8978 5.29616 13.8791 5.24375 13.8791 5.16296C13.8791 5.0363 13.8855 5.02995 14.0122 5.02995C14.1427 5.02995 14.1453 5.03295 14.1453 5.18641ZM12.1302 5.27252C12.1302 5.37376 12.112 5.40599 12.0446 5.42404C11.8878 5.46603 11.864 5.45212 11.864 5.31813C11.864 5.18413 11.8978 5.15209 12.0446 5.14696C12.1171 5.14442 12.1302 5.16365 12.1302 5.27252ZM15.661 5.29988C15.8987 5.36096 16.1083 5.42028 16.1268 5.43168C16.1453 5.44312 16.1604 5.5626 16.1604 5.69724V5.94202H16.0083C15.8567 5.94202 15.8562 5.94156 15.8562 5.7927C15.8562 5.64502 15.854 5.64274 15.6539 5.58456C15.4798 5.53402 14.9331 5.40998 14.8842 5.40998C14.8751 5.40998 14.8677 5.34819 14.8677 5.27264V5.13533L15.0483 5.16209C15.1476 5.17679 15.4233 5.23881 15.661 5.29988ZM11.1344 5.50939L11.1226 5.64681L10.7234 5.78746C10.0801 6.01407 10.1531 5.85066 10.1531 7.06442V8.10817H10.3696H10.5862L10.4579 8.24053L10.3295 8.37293L9.35729 8.38304L8.38509 8.39319L8.37441 8.85872L8.36372 9.32425H8.23183H8.09993V8.71621V8.10817H8.97442H9.84891V6.97261V5.83701L10.1626 5.70245C10.5064 5.55492 11.0178 5.37448 11.0964 5.37296C11.1306 5.37228 11.1425 5.41507 11.1344 5.50939ZM17.787 6.19101C17.778 6.19998 17.6051 6.16973 17.4028 6.12382L17.0349 6.04037V5.91484V5.78932L17.4191 5.98203C17.6304 6.08802 17.796 6.18204 17.787 6.19101ZM14.1421 6.07947C14.169 6.10421 14.1227 6.1329 13.9984 6.16855C13.8873 6.2004 13.8791 6.19618 13.8791 6.10737C13.8791 6.01966 13.8891 6.01411 14.0027 6.03843C14.0707 6.05298 14.1334 6.07145 14.1421 6.07947ZM12.1302 6.54873C12.1302 6.88422 12.1218 6.93191 12.0566 6.96676C12.0162 6.98838 11.7938 7.00609 11.5624 7.00609H11.1416V7.29852C11.1416 7.56412 11.1322 7.60076 11.0395 7.69755C10.9833 7.75619 10.9234 7.80415 10.9064 7.80415C10.8894 7.80415 10.8755 7.56473 10.8755 7.27211V6.74007H11.3698H11.864V6.47721C11.864 6.20397 11.8789 6.17885 12.0446 6.17303C12.1278 6.17011 12.1302 6.18044 12.1302 6.54873ZM9.12643 6.40755C9.12639 6.55819 9.11457 6.57651 8.95104 6.6798C8.13868 7.19276 7.29818 8.0303 6.68806 8.93473C6.42852 9.31946 6.42343 9.32425 6.27408 9.32425C6.19089 9.32425 6.12283 9.31407 6.12283 9.30157C6.12283 9.25539 6.55882 8.61079 6.80151 8.29818C7.32521 7.62356 8.12704 6.8803 8.8177 6.42925C8.97199 6.32846 9.1046 6.24604 9.11236 6.24604C9.12015 6.24604 9.12647 6.31874 9.12643 6.40755ZM17.0919 6.62382C18.1913 6.84572 19.2669 7.3439 20.1724 8.05063C20.5126 8.31616 20.6062 8.4682 20.5378 8.64423C20.5065 8.72472 19.57 9.74354 19.2752 10.0178C19.1105 10.171 18.9614 10.1574 18.7268 9.96775C17.7555 9.18216 16.6578 8.82988 15.5365 8.94388C13.6152 9.13922 12.0728 10.6175 11.728 12.594C11.6384 13.1075 11.6703 13.8853 11.8016 14.3898C12.1737 15.8193 13.1889 16.9422 14.5517 17.4314C15.5179 17.7782 16.8724 17.7174 17.9759 17.2775L18.2136 17.1827V16.391V15.5992L17.1965 15.5875C16.0516 15.5742 15.9937 15.5617 15.8617 15.2994C15.8225 15.2214 15.6736 14.8048 15.5308 14.3736C15.2769 13.6065 15.2727 13.5874 15.3365 13.49L15.4017 13.3905H17.9241H20.4464L20.5467 13.4907L20.6469 13.5909V16.1716V18.7524L20.5561 18.8431C20.444 18.9552 19.9007 19.2304 19.3911 19.4334C18.2437 19.8903 17.0574 20.1177 15.8292 20.1163C14.9089 20.1153 14.1331 19.9778 13.3333 19.6742C11.9598 19.1528 10.688 18.0895 9.97031 16.8623L9.8299 16.6222L8.86036 16.6213C8.3189 16.6208 7.82896 16.6032 7.75067 16.5814C7.6736 16.56 7.56923 16.4935 7.5187 16.4334C7.4146 16.3098 6.88326 14.8136 6.88326 14.6441C6.88326 14.4206 6.90345 14.4166 8.01861 14.4166H9.03445L9.03293 13.514C9.03214 13.0177 9.04563 12.4961 9.06301 12.355L9.09453 12.0984L7.71326 12.0968C6.21671 12.095 6.09846 12.0812 5.95383 11.8915C5.87399 11.7867 5.32439 10.2287 5.32439 10.1071C5.32439 10.0665 5.35272 10.002 5.38732 9.9638C5.44693 9.89798 5.56826 9.89429 7.68398 9.89429H9.91772L10.0193 9.72104C10.2368 9.35013 10.6991 8.78765 11.1145 8.38844C12.1264 7.41618 13.3753 6.79746 14.7889 6.56811C15.2986 6.48542 16.5571 6.51586 17.0919 6.62382ZM21.62 9.26725C21.9935 9.97178 22.3067 10.8514 22.4681 11.649C22.6111 12.3555 22.6419 12.6844 22.6419 13.5045C22.6419 14.5248 22.5505 15.186 22.282 16.1072C22.0752 16.8167 21.6288 17.8191 21.3125 18.2844L21.2172 18.4245V18.25C21.2172 18.1103 21.2697 17.9701 21.4803 17.5477C21.8996 16.7063 22.1316 16.0194 22.3066 15.1007C22.4248 14.4802 22.4713 13.2106 22.3998 12.5555C22.2708 11.3737 21.8814 10.1477 21.314 9.13732C21.1384 8.82463 21.1032 8.73099 21.1035 8.5775L21.1039 8.39319L21.2612 8.6402C21.3478 8.77606 21.5092 9.05823 21.62 9.26725ZM9.67431 9.22925C9.61865 9.31418 9.58626 9.32425 9.36927 9.32425C9.13567 9.32425 9.1265 9.32068 9.1265 9.22925C9.1265 9.1358 9.13152 9.13424 9.43155 9.13424H9.73659L9.67431 9.22925ZM21.3004 10.1413C21.3638 10.2876 21.4725 10.574 21.542 10.7779L21.6685 11.1484H21.5218C21.3858 11.1484 21.3719 11.1381 21.3299 11.0059C21.305 10.9275 21.223 10.7052 21.1477 10.5118L21.0108 10.1603H20.4867C20.1984 10.1603 19.9625 10.1483 19.9625 10.1336C19.9625 10.1189 20.0177 10.0501 20.0851 9.98056L20.2076 9.8542L20.6965 9.86476L21.1853 9.87529L21.3004 10.1413ZM17.9094 11.4342V12.8205H17.7573H17.6052V11.3566V9.89273L17.7573 9.9703L17.9094 10.0479V11.4342ZM4.85392 11.1775C4.6175 12.0792 4.58378 12.374 4.58572 13.5235C4.58739 14.5161 4.59431 14.6221 4.6883 15.1007C4.99174 16.6459 5.60864 17.9846 6.55327 19.1479C6.8528 19.5168 7.52768 20.1889 7.89082 20.4799C9.04016 21.4011 10.3765 22.0112 11.902 22.3111C12.3845 22.406 12.4804 22.4121 13.4989 22.4121C14.5175 22.4121 14.6133 22.406 15.0958 22.3111C16.818 21.9725 18.2818 21.2497 19.5102 20.1314C19.7001 19.9586 19.8828 19.8323 20.0425 19.7635L20.2857 19.6587L20.0006 19.9482C18.5772 21.3934 16.8002 22.2729 14.6586 22.592C14.2068 22.6594 12.7911 22.6594 12.3393 22.592C10.1501 22.2658 8.38076 21.3756 6.91941 19.8652C5.31918 18.2113 4.44021 16.146 4.34976 13.8276C4.30919 12.7874 4.43713 11.8234 4.75639 10.7638L4.84088 10.4833L4.89589 10.6455C4.94707 10.7963 4.94414 10.8335 4.85392 11.1775ZM18.8004 10.6534C18.8696 10.6797 18.8979 10.7184 18.8979 10.7864V10.8824H19.6013H20.3047V11.3746V11.867L20.5599 11.8782C20.8143 11.8894 20.8152 11.8899 20.8403 12.0129L20.8654 12.1364H20.433H20.0006V11.6424V11.1484H19.4492H18.8979V11.9844V12.8205H18.7649H18.6318V11.7184C18.6318 11.0602 18.6461 10.6163 18.6673 10.6163C18.6869 10.6163 18.7468 10.633 18.8004 10.6534ZM5.32101 11.8704C5.36469 11.9854 5.40039 12.0923 5.40039 12.1079C5.40043 12.1236 5.34055 12.1364 5.26736 12.1364C5.17641 12.1364 5.13428 12.119 5.13428 12.0813C5.13428 12.0023 5.21546 11.6348 5.22972 11.6493C5.23626 11.6559 5.27736 11.7555 5.32101 11.8704ZM21.8565 12.0129C21.8679 12.1314 21.8629 12.1364 21.7329 12.1364C21.6502 12.1364 21.5972 12.118 21.5969 12.0889C21.5966 12.0628 21.5858 12.0018 21.5728 11.9534C21.5507 11.871 21.5588 11.866 21.6969 11.8773C21.8328 11.8885 21.8455 11.8993 21.8565 12.0129ZM6.99732 12.8965V13.1625H6.5243C6.26412 13.1625 6.04177 13.1472 6.03018 13.1284C6.01858 13.1097 6.01972 13.0413 6.03269 12.9764L6.0563 12.8585H6.39373H6.73117V12.7445C6.73117 12.6395 6.74174 12.6305 6.86425 12.6305H6.99732V12.8965ZM8.36608 13.2385V13.8466H8.23301H8.09993V13.2385V12.6305H8.23301H8.36608V13.2385ZM5.29154 12.8763C5.30135 12.8862 5.30234 12.9546 5.29371 13.0283C5.27922 13.1525 5.26839 13.1625 5.14915 13.1625C5.0284 13.1625 5.02022 13.1545 5.02022 13.0359C5.02022 12.9662 5.03163 12.8978 5.04558 12.8838C5.0744 12.855 5.26443 12.8492 5.29154 12.8763ZM21.9776 13.0105V13.1625H21.5109H21.0441L20.8417 13.0105L20.6393 12.8585H21.3085H21.9776V13.0105ZM6.71216 13.9546C6.64943 13.9929 6.5746 14.0527 6.54593 14.0874C6.50054 14.1423 6.39754 14.1506 5.75699 14.1506H5.02022V14.0176V13.8846L5.92322 13.8847C6.81516 13.8848 6.82482 13.8857 6.71216 13.9546ZM21.9776 14.0176C21.9776 14.1442 21.9713 14.1506 21.8446 14.1506C21.7179 14.1506 21.7115 14.1442 21.7115 14.0176C21.7115 13.8909 21.7179 13.8846 21.8446 13.8846C21.9713 13.8846 21.9776 13.8909 21.9776 14.0176ZM5.4145 14.9581C5.45648 15.1147 5.44252 15.1387 5.30945 15.1387C5.17763 15.1387 5.13428 15.0909 5.13428 14.9455C5.13428 14.888 5.16147 14.8726 5.26291 14.8726C5.3642 14.8726 5.39644 14.8908 5.4145 14.9581ZM6.38526 14.9923C6.40822 15.0581 6.427 15.118 6.427 15.1253C6.427 15.1327 6.37567 15.1387 6.31294 15.1387C6.2502 15.1387 6.19888 15.1343 6.19888 15.1289C6.19888 15.1235 6.18295 15.0637 6.16352 14.9959C6.12956 14.8776 6.13245 14.8726 6.23583 14.8726C6.32245 14.8726 6.35168 14.8961 6.38526 14.9923ZM21.8054 15.2812C21.757 15.5059 21.6855 15.7923 21.6465 15.9177L21.5757 16.1457L21.3965 16.1573L21.2172 16.1689V16.0174C21.2172 15.8917 21.2311 15.8639 21.2988 15.8539C21.3905 15.8402 21.4266 15.7428 21.5395 15.2052L21.6093 14.8726H21.7514H21.8935L21.8054 15.2812ZM5.74388 16.2122C5.813 16.4056 5.9017 16.6365 5.94094 16.7253L6.01234 16.8868H6.59106C7.13538 16.8868 7.17765 16.8921 7.30217 16.976C7.37498 17.0251 7.48589 17.0836 7.54863 17.106C7.63589 17.1372 7.4473 17.1475 6.74577 17.1498L5.82885 17.1528L5.71411 16.8963C5.57727 16.5904 5.36241 15.9907 5.36241 15.9147C5.36241 15.8788 5.40515 15.8607 5.49028 15.8607C5.61715 15.8607 5.61913 15.8634 5.74388 16.2122ZM21.2663 16.9628C21.2553 17.0046 21.2398 17.0388 21.2318 17.0388C21.2238 17.0388 21.2172 17.0046 21.2172 16.9628C21.2172 16.921 21.2327 16.8868 21.2517 16.8868C21.2706 16.8868 21.2772 16.921 21.2663 16.9628ZM8.37475 17.8844L8.38509 18.6159L9.52805 18.6349L10.671 18.6539L10.8208 18.7761L10.9705 18.8984L10.5618 18.8996L10.1531 18.9009V19.452V20.003H10.6465H11.1399L11.1503 20.6965L11.1606 21.39L11.6454 21.5034L12.1302 21.6169V21.7551V21.8933L11.7878 21.8231C11.5994 21.7845 11.3171 21.7157 11.1604 21.6701L10.8755 21.5874V20.9483V20.3092L10.3717 20.2986L9.86792 20.288L9.85754 19.5945L9.8472 18.9009H8.97355H8.09993V18.0269V17.1528H8.23217H8.36445L8.37475 17.8844ZM9.39265 17.3808V17.6088L9.57325 17.6094C9.78062 17.6101 9.80256 17.6215 9.91985 17.7893L10.0062 17.9129H9.56633H9.1265V17.5328V17.1528H9.25958H9.39265V17.3808ZM6.69528 18.106C7.45616 19.2259 8.49011 20.1446 9.71583 20.7899C10.1289 21.0073 10.1342 21.0119 10.1461 21.1559C10.1573 21.2929 10.1527 21.3001 10.07 21.2745C9.9354 21.2327 9.50964 21.0139 9.15152 20.8024C8.15898 20.2165 7.12511 19.2361 6.46506 18.255C6.33959 18.0684 6.2369 17.9065 6.2369 17.8953C6.2369 17.884 6.30469 17.8749 6.38758 17.8749C6.52939 17.8749 6.54745 17.8884 6.69528 18.106ZM12.0256 19.6588C12.1124 19.7023 12.1302 19.736 12.1302 19.8571V20.003H12.3959C12.5936 20.003 12.7251 20.0283 12.9092 20.102L13.1567 20.2011V20.5984V20.9957L13.0142 20.9839L12.8716 20.9721L12.8606 20.6395L12.8496 20.307H12.3568H11.864V19.9428C11.864 19.7425 11.8769 19.5849 11.8925 19.5925C11.9082 19.6002 11.9681 19.63 12.0256 19.6588ZM18.5557 20.3213C18.5557 20.3424 18.0023 20.7209 17.9319 20.748C17.8829 20.7668 17.8714 20.7429 17.8714 20.6224V20.4736L18.185 20.3944C18.5404 20.3047 18.5557 20.3016 18.5557 20.3213ZM14.0597 20.483C14.1447 20.5057 14.1453 20.5108 14.1453 21.2425V21.9791H14.0122H13.8791V21.2191C13.8791 20.4145 13.8745 20.4334 14.0597 20.483ZM17.1411 20.9053L17.13 21.1994L16.6357 21.3962C16.3638 21.5044 16.0773 21.6048 15.9988 21.6193C15.8563 21.6456 15.8562 21.6455 15.8562 21.5131C15.8562 21.3807 15.8565 21.3806 16.1898 21.2642C16.3732 21.2002 16.6042 21.1131 16.7031 21.0708L16.8828 20.9938V20.8024V20.611H17.0175H17.1522L17.1411 20.9053ZM15.1338 20.7228C15.1338 20.8063 15.1187 20.8185 14.9723 20.8535C14.8758 20.8766 14.8677 20.8697 14.8677 20.7638C14.8677 20.658 14.8781 20.649 15.0008 20.649C15.1072 20.649 15.1338 20.6638 15.1338 20.7228ZM15.1266 21.7023C15.1162 21.8276 15.101 21.8462 14.9913 21.8685C14.8691 21.8933 14.8677 21.8919 14.8677 21.749C14.8677 21.6293 14.8824 21.6016 14.9532 21.5879C15.1343 21.5531 15.1389 21.5561 15.1266 21.7023ZM13.1567 21.8461C13.1567 21.976 13.1531 21.9791 13.0047 21.9791C12.8562 21.9791 12.8526 21.976 12.8526 21.8461C12.8526 21.7163 12.8562 21.7131 13.0047 21.7131C13.1531 21.7131 13.1567 21.7163 13.1567 21.8461Z" fill="#1A203F"/>
</svg>
