<svg width="19" height="19" viewBox="0 0 19 19" fill="none" xmlns="http://www.w3.org/2000/svg">
<path fill-rule="evenodd" clip-rule="evenodd" d="M8.84867 0.798348C8.79059 0.806442 8.59256 0.830158 8.40861 0.851095C4.7964 1.2618 1.71366 4.08667 0.966119 7.67099C0.821603 8.36383 0.787842 8.71117 0.787842 9.50444C0.787842 10.2977 0.821603 10.645 0.966119 11.3379C1.65782 14.6545 4.34743 17.3428 7.66562 18.0341C8.3588 18.1786 8.70631 18.2123 9.49996 18.2123C10.2936 18.2123 10.6411 18.1786 11.3343 18.0341C14.6518 17.3429 17.3422 14.6537 18.0338 11.3379C18.1783 10.645 18.2121 10.2977 18.2121 9.50444C18.2121 8.71117 18.1783 8.36383 18.0338 7.67099C17.4665 4.95081 15.5271 2.59228 12.9487 1.48704C12.2397 1.18316 11.5225 0.982521 10.7145 0.862003C10.3787 0.811931 9.0712 0.767313 8.84867 0.798348ZM10.6793 1.10888C12.2 1.33609 13.5359 1.9012 14.7103 2.81397C15.019 3.05395 15.872 3.86154 15.872 3.9139C15.872 3.95989 15.1722 3.46138 14.8641 3.19586C13.6264 2.12936 12.0429 1.44833 10.3791 1.26694C9.77227 1.20075 8.59615 1.24379 8.02136 1.35319C6.6307 1.61783 5.3746 2.19027 4.30726 3.04575C3.97007 3.31599 3.3454 3.93832 3.06925 4.27907C2.80152 4.60949 2.38726 5.21742 2.26331 5.46198C2.21539 5.55649 2.15664 5.63401 2.13277 5.63429C2.1089 5.63454 2.05092 5.64506 2.00392 5.65762C1.92063 5.67989 1.92186 5.67434 2.0538 5.43721C3.38975 3.0359 5.79699 1.40111 8.44382 1.09772C8.62776 1.07661 8.82579 1.05272 8.88388 1.04463C9.10261 1.01401 10.3412 1.05839 10.6793 1.10888ZM9.18312 2.30811V2.95859L9.05561 3.01186C8.98548 3.04114 8.92211 3.0651 8.91479 3.0651C8.89085 3.0651 8.90085 1.70513 8.92496 1.68107C8.93785 1.66815 9.00122 1.6576 9.06578 1.6576H9.18312V2.30811ZM10.0984 1.80246C10.0984 1.93551 10.092 1.94557 10.0192 1.92608C9.97565 1.91443 9.92024 1.90465 9.89602 1.9044C9.8693 1.90408 9.85201 1.85556 9.85201 1.78075C9.85201 1.66347 9.85789 1.6576 9.97523 1.6576C10.0961 1.6576 10.0984 1.66038 10.0984 1.80246ZM8.23259 1.8822C8.23259 1.97594 8.21573 2.00578 8.15338 2.02249C8.00816 2.06137 7.98616 2.04849 7.98616 1.92442C7.98616 1.80035 8.01742 1.77069 8.15338 1.76594C8.22048 1.76358 8.23259 1.78139 8.23259 1.8822ZM11.5019 1.90753C11.7219 1.96408 11.916 2.01901 11.9331 2.02956C11.9503 2.04016 11.9643 2.15079 11.9643 2.27546V2.5021H11.8235C11.6831 2.5021 11.6827 2.50168 11.6827 2.36385C11.6827 2.22711 11.6806 2.225 11.4953 2.17112C11.3341 2.12432 10.8279 2.00947 10.7826 2.00947C10.7742 2.00947 10.7673 1.95226 10.7673 1.8823V1.75517L10.9346 1.77994C11.0265 1.79356 11.2818 1.85099 11.5019 1.90753ZM7.31058 2.10152L7.29966 2.22876L6.93001 2.35899C6.33435 2.56881 6.40194 2.41751 6.40194 3.54137V4.50779H6.60247H6.803L6.68415 4.63035L6.56529 4.75295L5.66511 4.76231L4.76492 4.7717L4.75503 5.20275L4.74514 5.6338H4.62301H4.50089V5.0708V4.50779H5.3106H6.12031V3.45635V2.40488L6.41075 2.28028C6.72907 2.14368 7.20261 1.97661 7.27537 1.9752C7.30706 1.97457 7.31808 2.01419 7.31058 2.10152ZM13.4704 2.73265C13.4621 2.74095 13.302 2.71294 13.1146 2.67044L12.774 2.59316V2.47694V2.36071L13.1297 2.53915C13.3254 2.63729 13.4787 2.72434 13.4704 2.73265ZM10.0955 2.62937C10.1204 2.65228 10.0775 2.67885 9.96241 2.71185C9.85958 2.74134 9.85201 2.73743 9.85201 2.6552C9.85201 2.57399 9.86123 2.56885 9.96642 2.59137C10.0294 2.60485 10.0875 2.62195 10.0955 2.62937ZM8.23259 3.06387C8.23259 3.37451 8.22481 3.41867 8.1645 3.45093C8.12705 3.47096 7.9211 3.48735 7.70684 3.48735H7.31727V3.75812C7.31727 4.00405 7.30857 4.03797 7.22267 4.12759C7.17064 4.18189 7.11519 4.22629 7.09946 4.22629C7.08372 4.22629 7.07083 4.00461 7.07083 3.73367V3.24104H7.5285H7.98616V2.99765C7.98616 2.74465 7.99996 2.72139 8.15338 2.716C8.23041 2.71329 8.23259 2.72287 8.23259 3.06387ZM5.45134 2.93315C5.45131 3.07263 5.44036 3.08959 5.28895 3.18523C4.53676 3.66019 3.75852 4.4357 3.19359 5.27313C2.95329 5.62937 2.94857 5.6338 2.81028 5.6338C2.73326 5.6338 2.67024 5.62437 2.67024 5.61279C2.67024 5.57004 3.07393 4.97319 3.29864 4.68373C3.78356 4.05908 4.52599 3.37088 5.16548 2.95324C5.30834 2.85992 5.43114 2.7836 5.43832 2.7836C5.44554 2.7836 5.45138 2.85091 5.45134 2.93315ZM12.8268 3.1334C13.8448 3.33886 14.8406 3.80014 15.6791 4.45452C15.9941 4.70038 16.0808 4.84116 16.0174 5.00415C15.9885 5.07868 15.1214 6.02202 14.8484 6.27597C14.6959 6.41785 14.5578 6.40525 14.3406 6.22963C13.4412 5.50223 12.4248 5.17604 11.3865 5.28161C9.60762 5.46247 8.17947 6.83123 7.86023 8.66131C7.77729 9.1368 7.80682 9.85702 7.92839 10.3241C8.2729 11.6477 9.2129 12.6874 10.4747 13.1404C11.3693 13.4616 12.6235 13.4052 13.6453 12.9979L13.8654 12.9101V12.177V11.4439L12.9236 11.4331C11.8635 11.4208 11.81 11.4093 11.6877 11.1663C11.6514 11.0941 11.5135 10.7084 11.3813 10.3091C11.1462 9.59881 11.1423 9.58115 11.2014 9.491L11.2618 9.39888H13.5973H15.9328L16.0257 9.49163L16.1185 9.58442V11.974V14.3635L16.0344 14.4476C15.9305 14.5514 15.4276 14.8062 14.9557 14.9941C13.8933 15.4172 12.7948 15.6278 11.6576 15.6265C10.8055 15.6255 10.0871 15.4982 9.34661 15.2171C8.0748 14.7343 6.89727 13.7497 6.23271 12.6135L6.1027 12.3912L5.20498 12.3903C4.70363 12.3898 4.24998 12.3735 4.1775 12.3534C4.10614 12.3336 4.0095 12.2719 3.96271 12.2164C3.86632 12.1019 3.37434 10.7165 3.37434 10.5595C3.37434 10.3527 3.39303 10.3489 4.42558 10.3489H5.36618L5.36478 9.51324C5.36404 9.05362 5.37653 8.57067 5.39262 8.44001L5.42181 8.2025L4.14285 8.20095C2.75716 8.1993 2.64767 8.18649 2.51375 8.01087C2.43982 7.91385 1.93094 6.47123 1.93094 6.35863C1.93094 6.32105 1.95717 6.26137 1.9892 6.22597C2.04441 6.16503 2.15674 6.16161 4.11575 6.16161H6.18403L6.27809 6.00119C6.47946 5.65776 6.90748 5.13695 7.29217 4.7673C8.22907 3.86706 9.38551 3.29417 10.6944 3.08182C11.1663 3.00525 12.3315 3.03343 12.8268 3.1334ZM17.0195 5.58102C17.3653 6.23336 17.6553 7.04781 17.8048 7.7863C17.9371 8.44054 17.9656 8.74509 17.9656 9.50444C17.9656 10.4491 17.881 11.0613 17.6324 11.9143C17.4409 12.5713 17.0277 13.4994 16.7347 13.9302L16.6465 14.06V13.8984C16.6465 13.769 16.6951 13.6392 16.8901 13.2481C17.2783 12.469 17.4931 11.833 17.6552 10.9823C17.7646 10.4078 17.8077 9.23226 17.7415 8.6257C17.6221 7.5314 17.2615 6.39628 16.7362 5.46071C16.5735 5.17119 16.541 5.08448 16.5413 4.94236L16.5416 4.7717L16.6873 5.00042C16.7674 5.12622 16.9169 5.38749 17.0195 5.58102ZM5.95865 5.54583C5.90711 5.62447 5.87711 5.6338 5.6762 5.6338C5.4599 5.6338 5.45142 5.63049 5.45142 5.54583C5.45142 5.4593 5.45606 5.45786 5.73386 5.45786H6.01631L5.95865 5.54583ZM16.7236 6.39033C16.7822 6.52581 16.8829 6.79102 16.9473 6.97973L17.0643 7.32281H16.9286C16.8026 7.32281 16.7898 7.31327 16.7509 7.19085C16.7278 7.1183 16.6519 6.91245 16.5822 6.73341L16.4554 6.40793H15.9701C15.7032 6.40793 15.4848 6.39681 15.4848 6.38323C15.4848 6.36961 15.5358 6.30585 15.5982 6.24149L15.7117 6.12449L16.1643 6.13427L16.617 6.14402L16.7236 6.39033ZM13.5837 7.58742V8.87106H13.4429H13.3021V7.51563V6.16017L13.4429 6.23199L13.5837 6.30381V7.58742ZM1.49532 7.34976C1.27641 8.18466 1.24519 8.45761 1.24698 9.52203C1.24853 10.4411 1.25494 10.5392 1.34196 10.9823C1.62293 12.4131 2.19413 13.6527 3.06879 14.7298C3.34614 15.0713 3.97102 15.6936 4.30726 15.9631C5.37147 16.8161 6.60881 17.3809 8.02136 17.6587C8.46811 17.7465 8.55686 17.7521 9.49996 17.7521C10.4431 17.7521 10.5318 17.7465 10.9786 17.6587C12.5732 17.3452 13.9286 16.6759 15.0659 15.6404C15.2418 15.4804 15.4109 15.3635 15.5588 15.2997L15.784 15.2027L15.52 15.4708C14.202 16.809 12.5567 17.6232 10.5737 17.9188C10.1554 17.9811 8.84452 17.9811 8.42622 17.9188C6.39923 17.6167 4.76091 16.7924 3.40781 15.3939C1.92612 13.8625 1.11225 11.9503 1.0285 9.80354C0.990938 8.84041 1.1094 7.94781 1.40502 6.96667L1.48324 6.70702L1.53418 6.85713C1.58157 6.99679 1.57886 7.03121 1.49532 7.34976ZM14.4087 6.86449C14.4728 6.88884 14.499 6.92466 14.499 6.98764V7.07649H15.1503H15.8016V7.53231V7.98817L16.0379 7.99855C16.2734 8.00893 16.2743 8.00935 16.2975 8.12332L16.3208 8.23768H15.9204H15.52V7.78025V7.32281H15.0095H14.499V8.09693V8.87106H14.3758H14.2526V7.85062C14.2526 7.24117 14.2659 6.83018 14.2855 6.83018C14.3036 6.83018 14.3591 6.84563 14.4087 6.86449ZM1.92781 7.99137C1.96826 8.09781 2.00131 8.1968 2.00131 8.21129C2.00135 8.22579 1.9459 8.23768 1.87813 8.23768C1.79392 8.23768 1.75492 8.22153 1.75492 8.18663C1.75492 8.11347 1.83008 7.77321 1.84328 7.78661C1.84934 7.79277 1.88739 7.88493 1.92781 7.99137ZM17.2384 8.12332C17.249 8.23301 17.2443 8.23768 17.124 8.23768C17.0474 8.23768 16.9984 8.22058 16.9981 8.1937C16.9978 8.16953 16.9878 8.11302 16.9758 8.06815C16.9553 7.99186 16.9628 7.98729 17.0906 7.99778C17.2165 8.00809 17.2283 8.01811 17.2384 8.12332ZM3.47995 8.94144V9.18775H3.04197C2.80106 9.18775 2.59518 9.17354 2.58445 9.15619C2.57371 9.1388 2.57476 9.07547 2.58677 9.01544L2.60863 8.90625H2.92107H3.23352V8.80069C3.23352 8.7035 3.2433 8.69512 3.35673 8.69512H3.47995V8.94144ZM4.74732 9.25813V9.82113H4.6241H4.50089V9.25813V8.69512H4.6241H4.74732V9.25813ZM1.90052 8.92275C1.90961 8.93187 1.91052 8.9952 1.90253 9.0635C1.88912 9.17843 1.87908 9.18775 1.76868 9.18775C1.65687 9.18775 1.6493 9.18033 1.6493 9.07047C1.6493 9.00594 1.65986 8.9426 1.67278 8.92972C1.69947 8.90305 1.87542 8.89766 1.90052 8.92275ZM17.3506 9.047V9.18775H16.9184H16.4862L16.2988 9.047L16.1114 8.90625H16.731H17.3506V9.047ZM3.21591 9.92113C3.15783 9.9566 3.08854 10.012 3.062 10.0441C3.01996 10.095 2.92459 10.1026 2.3315 10.1026H1.6493V9.97947V9.85632L2.48541 9.85646C3.31128 9.85656 3.32023 9.85737 3.21591 9.92113ZM17.3506 9.97947C17.3506 10.0968 17.3447 10.1026 17.2274 10.1026C17.1101 10.1026 17.1042 10.0968 17.1042 9.97947C17.1042 9.86219 17.1101 9.85632 17.2274 9.85632C17.3447 9.85632 17.3506 9.86219 17.3506 9.97947ZM2.01438 10.8504C2.05324 10.9953 2.04032 11.0175 1.9171 11.0175C1.79505 11.0175 1.75492 10.9733 1.75492 10.8387C1.75492 10.7854 1.78009 10.7712 1.87401 10.7712C1.9678 10.7712 1.99765 10.7881 2.01438 10.8504ZM2.91322 10.882C2.93449 10.9429 2.95188 10.9984 2.95188 11.0052C2.95188 11.0119 2.90435 11.0175 2.84626 11.0175C2.78818 11.0175 2.74065 11.0135 2.74065 11.0085C2.74065 11.0035 2.7259 10.9481 2.70791 10.8853C2.67647 10.7758 2.67915 10.7712 2.77487 10.7712C2.85507 10.7712 2.88214 10.7929 2.91322 10.882ZM17.1911 11.1495C17.1463 11.3575 17.0801 11.6227 17.044 11.7389L16.9784 11.95L16.8125 11.9607L16.6465 11.9714V11.8312C16.6465 11.7148 16.6593 11.6891 16.722 11.6797C16.807 11.6671 16.8404 11.5769 16.945 11.0791L17.0096 10.7712H17.1411H17.2727L17.1911 11.1495ZM2.31935 12.0116C2.38336 12.1906 2.46549 12.4044 2.50182 12.4866L2.56793 12.6361H3.10379C3.60778 12.6361 3.64693 12.641 3.76222 12.7188C3.82964 12.7642 3.93233 12.8183 3.99042 12.8391C4.07121 12.868 3.8966 12.8776 3.24703 12.8797L2.39804 12.8825L2.29179 12.6449C2.16509 12.3617 1.96614 11.8064 1.96614 11.736C1.96614 11.7028 2.00572 11.6861 2.08454 11.6861C2.20202 11.6861 2.20385 11.6886 2.31935 12.0116ZM16.6919 12.7065C16.6818 12.7452 16.6674 12.7769 16.66 12.7769C16.6526 12.7769 16.6465 12.7452 16.6465 12.7065C16.6465 12.6678 16.6609 12.6361 16.6784 12.6361C16.696 12.6361 16.702 12.6678 16.6919 12.7065ZM4.75535 13.5598L4.76492 14.2372L5.82321 14.2548L6.8815 14.2724L7.02017 14.3855L7.15885 14.4987L6.7804 14.4999L6.40194 14.5011V15.0113V15.5215H6.8588H7.31568L7.32526 16.1637L7.33487 16.8058L7.78373 16.9108L8.23259 17.0158V17.1438V17.2718L7.91557 17.2068C7.74117 17.1711 7.47977 17.1073 7.33469 17.0652L7.07083 16.9886V16.3968V15.8051L6.60437 15.7953L6.13791 15.7854L6.1283 15.1433L6.11872 14.5011H5.30979H4.50089V13.6918V12.8825H4.62333H4.74581L4.75535 13.5598ZM5.69785 13.0936V13.3047L5.86507 13.3052C6.05708 13.3059 6.07739 13.3164 6.186 13.4718L6.26591 13.5862H5.85866H5.45142V13.2343V12.8825H5.57463H5.69785V13.0936ZM3.20028 13.7651C3.9048 14.802 4.86216 15.6526 5.99709 16.2501C6.37955 16.4515 6.38448 16.4557 6.39547 16.5891C6.40589 16.7159 6.40163 16.7226 6.32506 16.6988C6.2004 16.6601 5.80617 16.4575 5.47458 16.2617C4.55556 15.7192 3.59827 14.8114 2.98712 13.903C2.87094 13.7302 2.77585 13.5804 2.77585 13.57C2.77585 13.5595 2.83862 13.551 2.91537 13.551C3.04668 13.551 3.06341 13.5636 3.20028 13.7651ZM8.13578 15.2028C8.21615 15.2431 8.23259 15.2743 8.23259 15.3864V15.5215H8.47864C8.6617 15.5215 8.7834 15.545 8.9539 15.6132L9.18312 15.705V16.0728V16.4407L9.0511 16.4297L8.91908 16.4188L8.90891 16.1109L8.89874 15.803H8.44245H7.98616V15.4658C7.98616 15.2804 7.99806 15.1344 8.01256 15.1415C8.02707 15.1485 8.08255 15.1761 8.13578 15.2028ZM14.1822 15.8162C14.1822 15.8358 13.6698 16.1863 13.6046 16.2113C13.5592 16.2287 13.5485 16.2066 13.5485 16.095V15.9573L13.8389 15.8839C14.168 15.8008 14.1822 15.798 14.1822 15.8162ZM10.0192 15.9659C10.0979 15.987 10.0984 15.9917 10.0984 16.6692V17.3513H9.97523H9.85201V16.6475C9.85201 15.9026 9.84775 15.92 10.0192 15.9659ZM12.8723 16.357L12.862 16.6293L12.4044 16.8115C12.1526 16.9117 11.8873 17.0047 11.8147 17.0181C11.6827 17.0424 11.6827 17.0424 11.6827 16.9198C11.6827 16.7972 11.6829 16.797 11.9915 16.6893C12.1613 16.63 12.3752 16.5494 12.4667 16.5102L12.6332 16.4389V16.2617V16.0845H12.7579H12.8826L12.8723 16.357ZM11.0138 16.188C11.0138 16.2653 10.9997 16.2767 10.8641 16.3091C10.7748 16.3304 10.7673 16.324 10.7673 16.2259C10.7673 16.128 10.7769 16.1197 10.8905 16.1197C10.9891 16.1197 11.0138 16.1334 11.0138 16.188ZM11.0071 17.0949C10.9974 17.211 10.9833 17.2282 10.8817 17.2488C10.7686 17.2718 10.7673 17.2705 10.7673 17.1382C10.7673 17.0273 10.781 17.0017 10.8465 16.9891C11.0142 16.9568 11.0184 16.9596 11.0071 17.0949ZM9.18312 17.2281C9.18312 17.3484 9.17977 17.3513 9.0423 17.3513C8.90483 17.3513 8.90148 17.3484 8.90148 17.2281C8.90148 17.1079 8.90483 17.105 9.0423 17.105C9.17977 17.105 9.18312 17.1079 9.18312 17.2281Z" fill="white"/>
</svg>
