<svg width="20" height="12" viewBox="0 0 20 12" fill="none" xmlns="http://www.w3.org/2000/svg">
<path fill-rule="evenodd" clip-rule="evenodd" d="M8.87284 0.0525793C6.53289 0.348281 4.56658 1.82895 3.74228 3.91602C3.49309 4.54705 3.38289 5.08517 3.35769 5.79456C3.32114 6.82361 3.52128 7.72902 3.98717 8.64228C4.27898 9.21431 4.81682 9.93092 4.95454 9.93114C5.07538 9.93133 5.06726 9.8926 4.90801 9.70848C4.36344 9.07891 3.89691 8.2025 3.70078 7.44064C3.28183 5.81315 3.58354 4.14314 4.54155 2.78716C5.51798 1.40509 6.92998 0.539305 8.7044 0.234692C9.15078 0.158053 10.2457 0.158053 10.692 0.234692C12.4493 0.536345 13.8854 1.41196 14.8507 2.77026C15.2384 3.31564 15.6044 4.12738 15.737 4.73556C15.7685 4.87996 15.8022 4.99768 15.8119 4.99711C15.8216 4.99657 15.8581 4.97569 15.893 4.95071C15.9549 4.9065 15.9542 4.89644 15.8659 4.56363C15.0794 1.59837 12.059 -0.350028 8.87284 0.0525793ZM8.80304 0.366422C7.38764 0.584053 6.10087 1.24255 5.1941 2.21329C3.23075 4.31522 3.15307 7.41282 5.00911 9.59018C5.14121 9.74517 5.26596 9.863 5.28907 9.85463C5.31198 9.84632 5.38488 9.82993 5.45104 9.81818C5.51721 9.80647 5.57135 9.79081 5.57135 9.7834C5.57135 9.77598 5.47436 9.66255 5.35581 9.5313C5.15041 9.30387 4.7965 8.84378 4.7965 8.80419C4.7965 8.79391 4.84579 8.78598 4.90599 8.78659C5.00457 8.78754 5.0329 8.81218 5.19002 9.03324C5.286 9.16832 5.46792 9.38152 5.59429 9.50702L5.82401 9.73521L6.28834 9.6025L6.75271 9.46978L6.41468 9.46071L6.07668 9.45164V8.89636V8.34111L5.29672 8.33255L4.51675 8.32402L4.40508 8.07676C4.34366 7.94076 4.27099 7.75817 4.24357 7.67097L4.19375 7.51244H4.29384C4.36714 7.51244 4.40113 7.5316 4.42094 7.58405C4.4358 7.62345 4.49004 7.76667 4.54145 7.90231L4.6349 8.14897H5.35577H6.07668V8.01826C6.07668 7.91215 6.08672 7.89117 6.12997 7.90687C6.15928 7.9175 6.19718 7.92618 6.2142 7.92618C6.23198 7.92618 6.24512 8.20989 6.24512 8.59454V9.26291L6.82625 9.26271L7.40738 9.26249L7.90908 9.08671C8.18499 8.99002 8.43119 8.90011 8.45615 8.8869C8.48822 8.86997 8.43614 8.8165 8.27881 8.70486C8.00152 8.50807 7.68767 8.18713 7.4906 7.89872L7.34001 7.67838L6.77639 7.66702C6.22642 7.65594 6.21083 7.65372 6.13237 7.57609C6.01981 7.46473 5.74845 6.69777 5.79625 6.6261C5.826 6.58147 5.91241 6.57225 6.36977 6.56483L6.90828 6.55611L6.90519 6.10334C6.90347 5.85433 6.91411 5.59688 6.92887 5.53123L6.95565 5.41188H6.2113C5.42884 5.41188 5.30844 5.39307 5.25171 5.26188C5.16553 5.06267 4.96495 4.46417 4.96495 4.40628C4.96495 4.36793 4.98893 4.32789 5.01824 4.31726C5.04755 4.30663 5.59116 4.29794 6.22626 4.29794H7.38101L7.49962 4.12913C8.04339 3.35543 8.91317 2.81771 9.8795 2.65785C10.4368 2.56565 11.1001 2.61355 11.63 2.78426C12.1355 2.94712 12.8951 3.38404 12.982 3.56189C13.0113 3.62185 13.007 3.65453 12.9611 3.7207C12.8541 3.875 12.2658 4.42525 12.2078 4.42525C12.1762 4.42525 12.0837 4.37716 12.0022 4.31841C11.4185 3.89731 10.7564 3.7377 10.1193 3.86453C9.69512 3.94896 9.34007 4.13661 9.00423 4.45389C8.58673 4.84832 8.37519 5.27699 8.31546 5.84975C8.27423 6.24529 8.40949 6.78392 8.64305 7.15407C8.79209 7.39022 9.14535 7.72606 9.39536 7.86921C9.62 7.99786 10.0624 8.14942 10.2095 8.14814C10.2618 8.14767 10.6306 7.99363 11.0289 7.80578L11.7532 7.46425V7.30534V7.14643L11.1908 7.13771C10.5128 7.12721 10.5605 7.16008 10.3501 6.55776C10.2297 6.21324 10.2143 6.14141 10.2517 6.09885C10.2908 6.05436 10.4526 6.04841 11.6202 6.04841C12.7791 6.04841 12.951 6.05465 12.9973 6.09841C13.0383 6.13714 13.0503 6.21951 13.0503 6.46356V6.77867L13.4343 6.55958C13.8866 6.3015 14.6673 5.82467 14.6673 5.80649C14.6673 5.79949 14.3717 5.7938 14.0104 5.7938H13.3535L13.3533 5.94497L13.3532 6.09615L13.2887 5.99618C13.2532 5.94122 13.2078 5.88667 13.1877 5.87495C13.163 5.8605 13.1513 5.55382 13.1513 4.91656C13.1513 4.04024 13.1557 3.97175 13.2187 3.86067C13.2558 3.79537 13.2861 3.69104 13.2861 3.62882C13.2861 3.56663 13.2558 3.45956 13.2187 3.39088C13.1674 3.29578 13.1513 3.2032 13.1513 3.00224V2.73843H12.7224C12.3649 2.73843 12.2654 2.72742 12.1245 2.6723L11.9554 2.60616L11.9658 2.22672L11.9762 1.84729H11.6373H11.2984V1.41934V0.991403L10.9615 0.919634C10.6327 0.849583 10.6247 0.8457 10.6247 0.7584C10.6247 0.671036 10.628 0.669444 10.7678 0.690195C10.8466 0.701875 11.0323 0.742423 11.1805 0.780265L11.45 0.849074L11.4594 1.26861L11.4688 1.68815H11.8047H12.1407V2.13373V2.5793H12.7471H13.3535V3.13627V3.69323H14.1244C14.8292 3.69323 14.8968 3.69801 14.9134 3.74893C14.9233 3.77958 14.9773 3.90794 15.0333 4.03419C15.0893 4.16045 15.1501 4.31526 15.1685 4.37821C15.202 4.4925 15.2019 4.49263 15.0994 4.48282C15.0047 4.47375 14.9896 4.45437 14.9043 4.23298C14.7418 3.81064 14.8362 3.85237 14.0429 3.85237H13.3535V4.09107V4.32977H13.8082H14.263V4.64804V4.9663H14.4444C14.604 4.9663 14.6282 4.9749 14.6461 5.03791C14.6572 5.07731 14.6666 5.12028 14.6668 5.13339C14.6671 5.1465 14.5385 5.15726 14.381 5.15726H14.0946V4.82308V4.4889H13.724H13.3535V5.04587V5.60284L14.1704 5.60229L14.9874 5.60175L15.3158 5.37375C15.7011 5.10628 15.6908 5.14109 15.544 4.60316C15.0266 2.70731 13.5622 1.21728 11.6185 0.608782C10.9204 0.39026 10.6361 0.346849 9.81613 0.333673C9.30369 0.325429 9.00736 0.335009 8.80304 0.366422ZM9.44555 1.54493C9.44555 2.09388 9.43272 2.48382 9.41463 2.48382C9.39762 2.48382 9.35972 2.49251 9.33041 2.50314C9.28253 2.52048 9.27711 2.42494 9.27711 1.56425V0.606045H9.36133H9.44555V1.54493ZM10.1193 0.701525C10.1193 0.782142 10.1062 0.797006 10.0351 0.797006C9.96399 0.797006 9.95089 0.782142 9.95089 0.701525C9.95089 0.620908 9.96399 0.606045 10.0351 0.606045C10.1062 0.606045 10.1193 0.620908 10.1193 0.701525ZM8.77178 0.761455C8.77178 0.834084 8.75419 0.856426 8.68756 0.868457C8.61408 0.881728 8.60334 0.872403 8.60334 0.795255C8.60334 0.746624 8.6223 0.699616 8.64545 0.690768C8.73971 0.654836 8.77178 0.672818 8.77178 0.761455ZM8.098 0.918488C8.098 0.999551 8.07974 1.01362 7.9081 1.06473C7.80363 1.09583 7.65203 1.14805 7.57121 1.1808L7.42423 1.24032V1.90979V2.5793H7.67689H7.92956V2.13373V1.68815H8.26645H8.60334V1.51683C8.60334 1.35932 8.61014 1.34427 8.68756 1.33026L8.77178 1.31505V1.58001V1.84499L8.44331 1.8541L8.11485 1.8632L8.10531 2.22125L8.09578 2.5793L8.57696 2.58194L9.05813 2.58458L8.88969 2.65957C8.72259 2.73391 8.71131 2.73455 7.48318 2.73649L6.24512 2.73843V3.37497V4.0115H6.16326C6.10397 4.0115 6.0784 3.99174 6.07061 3.93989C6.06017 3.87057 6.04791 3.86828 5.68926 3.86828C5.33061 3.86828 5.31834 3.87057 5.3079 3.93989C5.30012 3.99174 5.27455 4.0115 5.21526 4.0115C5.13949 4.0115 5.13339 3.99969 5.13339 3.85237V3.69323H5.60504H6.07668V3.13627V2.5793H6.66562H7.25454L7.2636 1.83933L7.27263 1.09936L7.62636 0.964668C8.0533 0.802098 8.098 0.797706 8.098 0.918488ZM16.4023 1.01012C15.9083 1.05203 14.519 1.27657 14.4706 1.32231C14.4581 1.33418 14.7218 1.63029 15.1608 2.09728L15.291 2.23589L15.5435 2.20015C15.9562 2.14168 16.8201 2.07026 17.1157 2.07017C17.7153 2.06998 18.1993 2.19022 18.3243 2.37045C18.3687 2.43458 18.3781 2.49674 18.3646 2.63751C18.3005 3.3059 17.1735 4.49565 15.4907 5.67139C13.3873 7.14108 10.3692 8.62621 7.58432 9.56192C5.17843 10.3703 2.84151 10.7211 1.95365 10.4073C1.70586 10.3197 1.62976 10.2258 1.62976 10.0077C1.62976 9.62544 1.98568 9.08802 2.68756 8.41036L3.15856 7.95562L3.0643 7.36008C3.01248 7.03252 2.96232 6.72555 2.95282 6.67791L2.93561 6.59134L2.68638 6.78606C1.65702 7.59048 0.890664 8.41125 0.537235 9.08786C0.246501 9.64441 0.184446 10.015 0.315091 10.4146C0.508195 11.0053 1.0391 11.3707 1.95614 11.5441C2.35441 11.6194 3.39573 11.6189 3.98797 11.543C8.54418 10.9595 15.1463 7.92434 18.2561 4.98358C19.0614 4.22213 19.5318 3.54655 19.6941 2.91845C19.758 2.67122 19.7625 2.60836 19.7309 2.40139C19.6184 1.66365 18.9791 1.19092 17.8846 1.03602C17.5775 0.992549 16.7745 0.978513 16.4023 1.01012ZM12.8313 1.47927C13.495 1.88656 14.1061 2.47332 14.5486 3.12831L14.6077 3.21583L14.4943 3.21526C14.3961 3.21475 14.3666 3.194 14.2738 3.05985C13.8398 2.43261 13.105 1.81005 12.3007 1.38819C12.1005 1.28319 12.0733 1.25779 12.0733 1.17578V1.08265L12.3175 1.19828C12.4519 1.26187 12.683 1.38831 12.8313 1.47927ZM10.1193 1.46537V1.68815H10.4562H10.7931V2.01791V2.3477L10.7089 2.33248C10.6281 2.31788 10.6247 2.30766 10.6247 2.08226V1.84729H10.2878H9.95089V1.54493C9.95089 1.24363 9.95119 1.24258 10.0351 1.24258C10.1169 1.24258 10.1193 1.24894 10.1193 1.46537ZM6.67789 1.62418C5.93424 2.08223 5.26138 2.77745 4.82265 3.54117C4.66488 3.81577 4.6345 3.85065 4.55226 3.85148C4.50132 3.85195 4.45962 3.84489 4.45962 3.83575C4.45962 3.82662 4.52208 3.70129 4.59841 3.55727C5.02899 2.74483 5.70162 2.02968 6.53148 1.50203L6.73361 1.37351L6.74476 1.47482C6.75335 1.5526 6.73782 1.58729 6.67789 1.62418ZM7.86218 3.2954C7.78578 3.37226 7.76829 3.37497 7.35099 3.37497H6.9189V3.69323V4.0115H6.83467H6.75045V3.61367V3.21583H7.34587H7.94132L7.86218 3.2954ZM4.66175 4.40934C4.66175 4.48056 4.64804 4.4889 4.53073 4.4889H4.39972L4.34474 4.68782C4.31449 4.79724 4.2781 4.94402 4.26385 5.01404C4.24206 5.12136 4.22366 5.14294 4.14668 5.15141C4.07698 5.15911 4.05535 5.14781 4.05539 5.10367C4.05545 5.03661 4.21571 4.39969 4.24307 4.3579C4.25317 4.34244 4.35151 4.32977 4.46161 4.32977C4.65262 4.32977 4.66175 4.3334 4.66175 4.40934ZM12.6797 5.10952V5.76197H12.5786H12.4775V5.18934C12.4775 4.64654 12.4814 4.61255 12.551 4.5369C12.5914 4.49298 12.6369 4.45708 12.6521 4.45708C12.6672 4.45708 12.6797 4.75068 12.6797 5.10952ZM15.3411 5.06178C15.3411 5.14128 15.3276 5.15726 15.2605 5.15726C15.1825 5.15726 15.139 5.105 15.139 5.01143C15.139 4.9825 15.1752 4.9663 15.24 4.9663C15.3299 4.9663 15.3411 4.9769 15.3411 5.06178ZM5.24288 5.61531C5.27532 5.63858 5.30184 5.68823 5.30184 5.72569C5.30184 5.79049 5.28634 5.7938 4.98179 5.7938H4.66175V5.69972V5.60564L4.90599 5.59466C5.04034 5.58861 5.15782 5.58126 5.16708 5.57836C5.17635 5.57543 5.21044 5.59205 5.24288 5.61531ZM4.17687 5.65319C4.16562 5.68087 4.15642 5.72384 4.15642 5.74867C4.15642 5.77559 4.12243 5.7938 4.0722 5.7938C4.00108 5.7938 3.98797 5.77893 3.98797 5.69832C3.98797 5.6127 3.99879 5.60284 4.09265 5.60284C4.17424 5.60284 4.1928 5.61394 4.17687 5.65319ZM6.24512 5.96464V6.26283L5.99673 6.27788C5.81461 6.28892 5.72109 6.31127 5.6462 6.36165C5.54871 6.42724 5.50912 6.43033 4.76605 6.43033H3.98797V6.33485V6.23937H5.03233H6.07668V5.95293C6.07668 5.66862 6.07732 5.66649 6.1609 5.66649C6.24475 5.66649 6.24512 5.66783 6.24512 5.96464ZM4.25156 6.9817C4.26146 7.06343 4.25385 7.07062 4.16733 7.06126C4.09123 7.05302 4.07001 7.03297 4.06128 6.96107C4.05138 6.87934 4.05899 6.87215 4.1455 6.8815C4.22161 6.88975 4.24283 6.9098 4.25156 6.9817ZM5.30184 7.19417V7.51244H5.53028C5.75316 7.51244 5.75963 7.51476 5.79686 7.60792L5.83499 7.7034H5.48419H5.13339V7.38513V7.06686H4.9481C4.81062 7.06686 4.76282 7.05521 4.76282 7.02173C4.76282 6.99691 4.75362 6.95394 4.74237 6.92625C4.72468 6.88275 4.7613 6.8759 5.01188 6.8759H5.30184V7.19417ZM15.803 7.29598C15.7444 7.34649 15.6918 7.4583 15.6333 7.65639C15.1155 9.40998 13.5853 10.9214 11.7047 11.5369C11.5112 11.6002 11.1625 11.6903 10.9298 11.7371C10.5412 11.8153 10.4422 11.8223 9.71507 11.8236C9.01858 11.8248 8.87736 11.8161 8.54061 11.7517C8.08332 11.6642 7.72258 11.5603 7.28735 11.3906C7.00463 11.2804 6.95306 11.2695 6.86624 11.301L6.7673 11.337L6.89889 11.4013C7.15967 11.5287 7.71722 11.7218 8.08082 11.8107C8.63062 11.9451 9.09964 12 9.69822 12C10.2968 12 10.7659 11.9451 11.3153 11.8107C13.3648 11.3095 15.0149 9.86096 15.7042 7.95801C15.8485 7.55957 15.931 7.26349 15.9046 7.23857C15.8954 7.22985 15.8497 7.25569 15.803 7.29598ZM15.0325 7.76167C14.7794 7.91342 14.5027 8.0766 14.4177 8.12431C14.3151 8.18185 14.263 8.23274 14.263 8.27548C14.263 8.32704 14.241 8.33993 14.1531 8.33993C14.0766 8.33993 13.8487 8.44152 13.4035 8.67405C13.0517 8.85781 12.4721 9.14585 12.1154 9.31408L11.4669 9.62V9.98251V10.345H11.1317H10.7966L10.7864 10.5121C10.7776 10.6577 10.7665 10.6805 10.7005 10.6894C10.6269 10.6992 10.6247 10.6914 10.6247 10.4268V10.1541H10.9615H11.2984V9.93127C11.2984 9.80873 11.2917 9.70848 11.2835 9.70848C11.2753 9.70848 11.0137 9.81564 10.7023 9.94661L10.1362 10.1848L10.127 10.7806C10.1177 11.3787 10.1081 11.4253 9.993 11.4266C9.96082 11.427 9.95089 11.2888 9.95089 10.8404V10.2536L9.69822 10.3532L9.44555 10.4528V10.6251C9.44555 10.7691 9.43683 10.7942 9.39226 10.7781C9.36295 10.7674 9.32505 10.7588 9.30804 10.7588C9.29102 10.7588 9.27711 10.7039 9.27711 10.6369V10.5151L8.68651 10.7234C8.25927 10.8742 8.09854 10.9448 8.10545 10.9786C8.11397 11.0205 8.23707 11.0581 8.67913 11.1537C8.75386 11.1698 8.77178 11.1914 8.77178 11.2654V11.3572L8.48684 11.2983C7.96978 11.1916 7.92956 11.175 7.92956 11.0686C7.92956 11.0067 7.91521 10.9799 7.88745 10.9897C7.8643 10.998 7.71271 11.0455 7.55056 11.0952C7.38845 11.1449 7.25578 11.1951 7.25578 11.2067C7.25578 11.2349 7.74309 11.4057 8.09901 11.5022C8.82797 11.6999 9.90062 11.7576 10.6415 11.6392C11.9545 11.4293 13.0725 10.8818 13.9935 9.99772C14.4576 9.55227 14.7587 9.16182 15.0508 8.62637C15.2607 8.24162 15.522 7.60413 15.5023 7.52463C15.4966 7.50178 15.3033 7.59929 15.0325 7.76167ZM6.9189 8.27628V8.62637H7.33371H7.74852L7.84534 8.72185L7.94216 8.81733H7.34631H6.75045V8.37176V7.92618H6.83467H6.9189V8.27628ZM14.804 8.46074C14.3894 9.22322 13.753 9.92372 13.0284 10.4152C12.6755 10.6545 12.646 10.6643 12.646 10.542C12.646 10.4575 12.6797 10.4236 12.9239 10.2632C13.3413 9.98894 13.999 9.34906 14.2854 8.93885C14.4159 8.75186 14.5742 8.49801 14.6371 8.37472C14.7443 8.16482 14.7586 8.15053 14.8625 8.14977L14.9735 8.14897L14.804 8.46074ZM13.3535 9.11969V9.45387L12.7555 9.45202L12.1575 9.45014L12.4096 9.35654C12.6066 9.28337 12.7152 9.26291 12.9065 9.26291H13.1513V9.14053C13.1513 9.05912 13.1736 8.99913 13.2178 8.96128C13.2544 8.93 13.2934 8.87768 13.3043 8.84496C13.343 8.72997 13.3535 8.78862 13.3535 9.11969ZM12.1407 10.1829V10.9119L11.8964 11.0072C11.6669 11.0967 11.349 11.2043 11.3141 11.2043C11.3055 11.2043 11.2984 11.1623 11.2984 11.111C11.2984 11.0419 11.3181 11.012 11.3742 10.9959C11.4159 10.9839 11.5675 10.9318 11.7111 10.8801L11.9722 10.786V10.1385C11.9722 9.65027 11.9826 9.48706 12.0143 9.47493C12.1391 9.42739 12.1407 9.43604 12.1407 10.1829ZM10.7931 11.2324C10.7931 11.3051 10.7755 11.3274 10.7089 11.3394C10.6354 11.3527 10.6247 11.3434 10.6247 11.2662C10.6247 11.2176 10.6436 11.1706 10.6668 11.1617C10.761 11.1258 10.7931 11.1438 10.7931 11.2324ZM9.44555 11.3316C9.44555 11.3842 9.43164 11.4271 9.41463 11.4271C9.33209 11.4271 9.27711 11.3812 9.27711 11.3123C9.27711 11.2523 9.29497 11.2362 9.36133 11.2362C9.43245 11.2362 9.44555 11.251 9.44555 11.3316Z" fill="#1A203F"/>
</svg>
