<svg width="19" height="19" viewBox="0 0 19 19" fill="none" xmlns="http://www.w3.org/2000/svg">
<path fill-rule="evenodd" clip-rule="evenodd" d="M8.84794 0.798104C8.78986 0.806197 8.59183 0.829914 8.40788 0.850851C4.79566 1.26156 1.71292 4.08643 0.965386 7.67075C0.820871 8.36359 0.787109 8.71093 0.787109 9.5042C0.787109 10.2975 0.820871 10.6448 0.965386 11.3377C1.65709 14.6542 4.3467 17.3425 7.66489 18.0339C8.35807 18.1783 8.70558 18.2121 9.49923 18.2121C10.2929 18.2121 10.6404 18.1783 11.3336 18.0339C14.651 17.3427 17.3415 14.6535 18.0331 11.3377C18.1776 10.6448 18.2114 10.2975 18.2114 9.5042C18.2114 8.71093 18.1776 8.36359 18.0331 7.67075C17.4658 4.95056 15.5263 2.59204 12.9479 1.4868C12.239 1.18292 11.5218 0.982276 10.7138 0.861759C10.378 0.811687 9.07047 0.767069 8.84794 0.798104ZM10.6786 1.10864C12.1992 1.33584 13.5352 1.90096 14.7095 2.81372C15.0183 3.0537 15.8713 3.8613 15.8713 3.91365C15.8713 3.95964 15.1715 3.46114 14.8633 3.19562C13.6257 2.12911 12.0422 1.44809 10.3784 1.2667C9.77154 1.20051 8.59542 1.24354 8.02063 1.35294C6.62997 1.61759 5.37387 2.19002 4.30653 3.0455C3.96934 3.31575 3.34467 3.93807 3.06852 4.27883C2.80079 4.60924 2.38653 5.21718 2.26258 5.46174C2.21466 5.55625 2.15591 5.63377 2.13204 5.63405C2.10817 5.6343 2.05019 5.64482 2.00319 5.65738C1.91989 5.67965 1.92113 5.67409 2.05307 5.43696C3.38902 3.03565 5.79625 1.40087 8.44309 1.09748C8.62703 1.07637 8.82506 1.05248 8.88315 1.04438C9.10188 1.01377 10.3405 1.05814 10.6786 1.10864ZM9.18239 2.30787V2.95834L9.05488 3.01162C8.98475 3.04089 8.92138 3.06486 8.91406 3.06486C8.89012 3.06486 8.90012 1.70489 8.92423 1.68082C8.93712 1.66791 9.00049 1.65735 9.06505 1.65735H9.18239V2.30787ZM10.0977 1.80222C10.0977 1.93526 10.0913 1.94533 10.0185 1.92583C9.97492 1.91419 9.91951 1.9044 9.89529 1.90416C9.86857 1.90384 9.85128 1.85532 9.85128 1.78051C9.85128 1.66323 9.85716 1.65735 9.9745 1.65735C10.0954 1.65735 10.0977 1.66013 10.0977 1.80222ZM8.23186 1.88195C8.23186 1.97569 8.215 2.00553 8.15265 2.02225C8.00743 2.06113 7.98543 2.04825 7.98543 1.92418C7.98543 1.80011 8.01669 1.77044 8.15265 1.76569C8.21975 1.76334 8.23186 1.78114 8.23186 1.88195ZM11.5012 1.90729C11.7212 1.96384 11.9153 2.01876 11.9324 2.02932C11.9496 2.03991 11.9636 2.15054 11.9636 2.27521V2.50186H11.8227C11.6824 2.50186 11.6819 2.50143 11.6819 2.3636C11.6819 2.22686 11.6799 2.22475 11.4945 2.17088C11.3334 2.12408 10.8272 2.00923 10.7819 2.00923C10.7735 2.00923 10.7666 1.95201 10.7666 1.88206V1.75493L10.9338 1.7797C11.0258 1.79332 11.2811 1.85074 11.5012 1.90729ZM7.30985 2.10128L7.29893 2.22852L6.92928 2.35875C6.33362 2.56857 6.40121 2.41726 6.40121 3.54112V4.50755H6.60174H6.80227L6.68341 4.63011L6.56456 4.7527L5.66438 4.76206L4.76419 4.77146L4.7543 5.20251L4.74441 5.63356H4.62228H4.50016V5.07055V4.50755H5.30987H6.11958V3.45611V2.40463L6.41001 2.28003C6.72834 2.14343 7.20188 1.97636 7.27464 1.97496C7.30633 1.97432 7.31735 2.01394 7.30985 2.10128ZM13.4697 2.7324C13.4614 2.74071 13.3013 2.7127 13.1139 2.67019L12.7733 2.59292V2.4767V2.36047L13.129 2.53891C13.3247 2.63705 13.478 2.7241 13.4697 2.7324ZM10.0948 2.62913C10.1197 2.65204 10.0768 2.6786 9.96168 2.71161C9.85885 2.7411 9.85128 2.73719 9.85128 2.65496C9.85128 2.57374 9.8605 2.56861 9.9657 2.59113C10.0286 2.6046 10.0867 2.6217 10.0948 2.62913ZM8.23186 3.06363C8.23186 3.37426 8.22408 3.41842 8.16377 3.45069C8.12632 3.47071 7.92037 3.48711 7.70611 3.48711H7.31654V3.75788C7.31654 4.00381 7.30784 4.03773 7.22194 4.12735C7.16991 4.18164 7.11446 4.22605 7.09872 4.22605C7.08299 4.22605 7.0701 4.00437 7.0701 3.73342V3.2408H7.52777H7.98543V2.9974C7.98543 2.7444 7.99923 2.72114 8.15265 2.71576C8.22968 2.71305 8.23186 2.72262 8.23186 3.06363ZM5.45061 2.9329C5.45058 3.07239 5.43963 3.08935 5.28821 3.18499C4.53603 3.65995 3.75779 4.43545 3.19286 5.27288C2.95255 5.62912 2.94784 5.63356 2.80955 5.63356C2.73252 5.63356 2.66951 5.62413 2.66951 5.61255C2.66951 5.5698 3.0732 4.97294 3.29791 4.68349C3.78282 4.05884 4.52526 3.37064 5.16475 2.953C5.30761 2.85968 5.43041 2.78336 5.43759 2.78336C5.44481 2.78336 5.45065 2.85067 5.45061 2.9329ZM12.8261 3.13316C13.844 3.33862 14.8399 3.79989 15.6783 4.45428C15.9934 4.70013 16.08 4.84092 16.0167 5.00391C15.9878 5.07844 15.1206 6.02178 14.8476 6.27573C14.6951 6.41761 14.557 6.40501 14.3399 6.22939C13.4405 5.50199 12.4241 5.1758 11.3858 5.28136C9.60689 5.46223 8.17874 6.83099 7.8595 8.66107C7.77656 9.13656 7.80609 9.85678 7.92766 10.3239C8.27217 11.6475 9.21217 12.6872 10.474 13.1402C11.3686 13.4613 12.6228 13.405 13.6446 12.9976L13.8646 12.9099V12.1768V11.4437L12.9229 11.4328C11.8628 11.4206 11.8092 11.409 11.687 11.1661C11.6507 11.0939 11.5128 10.7082 11.3806 10.3089C11.1455 9.59857 11.1416 9.58091 11.2007 9.49076L11.2611 9.39864H13.5966H15.9321L16.0249 9.49139L16.1177 9.58418V11.9737V14.3633L16.0336 14.4473C15.9298 14.5511 15.4268 14.806 14.955 14.9939C13.8926 15.4169 12.7941 15.6275 11.6569 15.6262C10.8048 15.6252 10.0864 15.498 9.34588 15.2168C8.07407 14.734 6.89654 13.7495 6.23198 12.6132L6.10197 12.3909L5.20425 12.3901C4.7029 12.3896 4.24925 12.3733 4.17677 12.3532C4.10541 12.3334 4.00877 12.2717 3.96198 12.2161C3.86559 12.1016 3.3736 10.7163 3.3736 10.5593C3.3736 10.3524 3.3923 10.3487 4.42485 10.3487H5.36545L5.36405 9.513C5.36331 9.05337 5.3758 8.57042 5.39189 8.43977L5.42108 8.20226L4.14212 8.20071C2.75643 8.19905 2.64694 8.18624 2.51302 8.01062C2.43909 7.91361 1.93021 6.47099 1.93021 6.35839C1.93021 6.32081 1.95644 6.26113 1.98847 6.22573C2.04367 6.16478 2.15601 6.16137 4.11502 6.16137H6.1833L6.27736 6.00095C6.47873 5.65752 6.90675 5.13671 7.29144 4.76706C8.22834 3.86682 9.38478 3.29393 10.6937 3.08157C11.1656 3.005 12.3308 3.03319 12.8261 3.13316ZM17.0188 5.58078C17.3646 6.23312 17.6546 7.04757 17.804 7.78606C17.9364 8.4403 17.9649 8.74485 17.9649 9.5042C17.9649 10.4489 17.8803 11.0611 17.6317 11.9141C17.4402 12.571 17.0269 13.4991 16.734 13.93L16.6458 14.0597V13.8982C16.6458 13.7688 16.6944 13.639 16.8894 13.2478C17.2776 12.4688 17.4924 11.8327 17.6545 10.9821C17.7639 10.4076 17.807 9.23202 17.7407 8.62546C17.6213 7.53116 17.2608 6.39604 16.7354 5.46047C16.5728 5.17094 16.5403 5.08424 16.5405 4.94212L16.5409 4.77146L16.6865 5.00018C16.7667 5.12597 16.9162 5.38724 17.0188 5.58078ZM5.95791 5.54559C5.90637 5.62423 5.87638 5.63356 5.67547 5.63356C5.45917 5.63356 5.45068 5.63025 5.45068 5.54559C5.45068 5.45906 5.45533 5.45762 5.73313 5.45762H6.01558L5.95791 5.54559ZM16.7228 6.39009C16.7815 6.52556 16.8822 6.79077 16.9466 6.97948L17.0636 7.32256H16.9278C16.8019 7.32256 16.789 7.31303 16.7501 7.19061C16.7271 7.11805 16.6512 6.91221 16.5814 6.73317L16.4547 6.40768H15.9694C15.7025 6.40768 15.484 6.39657 15.484 6.38298C15.484 6.36937 15.5351 6.30561 15.5975 6.24125L15.711 6.12425L16.1636 6.13403L16.6162 6.14378L16.7228 6.39009ZM13.583 7.58718V8.87082H13.4422H13.3013V7.51539V6.15993L13.4422 6.23175L13.583 6.30357V7.58718ZM1.49458 7.34952C1.27568 8.18442 1.24445 8.45737 1.24625 9.52179C1.2478 10.4408 1.25421 10.539 1.34123 10.9821C1.6222 12.4129 2.1934 13.6524 3.06806 14.7296C3.3454 15.0711 3.97029 15.6934 4.30653 15.9629C5.37073 16.8158 6.60808 17.3807 8.02063 17.6584C8.46738 17.7463 8.55613 17.7519 9.49923 17.7519C10.4423 17.7519 10.5311 17.7463 10.9778 17.6584C12.5725 17.3449 13.9279 16.6757 15.0652 15.6402C15.241 15.4802 15.4102 15.3632 15.5581 15.2995L15.7833 15.2025L15.5192 15.4705C14.2013 16.8087 12.556 17.623 10.573 17.9186C10.1547 17.9809 8.84379 17.9809 8.42549 17.9186C6.3985 17.6165 4.76018 16.7922 3.40708 15.3937C1.92538 13.8623 1.11152 11.95 1.02777 9.80329C0.990206 8.84017 1.10867 7.94757 1.40428 6.96643L1.48251 6.70678L1.53345 6.85689C1.58084 6.99655 1.57813 7.03096 1.49458 7.34952ZM14.408 6.86424C14.472 6.8886 14.4983 6.92442 14.4983 6.9874V7.07625H15.1496H15.8009V7.53207V7.98793L16.0372 7.99831C16.2727 8.00869 16.2736 8.00911 16.2968 8.12308L16.3201 8.23744H15.9197H15.5192V7.78V7.32256H15.0088H14.4983V8.09669V8.87082H14.3751H14.2519V7.85038C14.2519 7.24093 14.2651 6.82994 14.2848 6.82994C14.3029 6.82994 14.3583 6.84538 14.408 6.86424ZM1.92707 7.99113C1.96753 8.09757 2.00058 8.19656 2.00058 8.21105C2.00062 8.22555 1.94517 8.23744 1.8774 8.23744C1.79319 8.23744 1.75418 8.22129 1.75418 8.18639C1.75418 8.11323 1.82935 7.77297 1.84255 7.78637C1.8486 7.79253 1.88666 7.88469 1.92707 7.99113ZM17.2377 8.12308C17.2483 8.23276 17.2436 8.23744 17.1233 8.23744C17.0467 8.23744 16.9977 8.22034 16.9974 8.19346C16.9971 8.16928 16.987 8.11277 16.975 8.06791C16.9546 7.99162 16.9621 7.98705 17.0899 7.99753C17.2157 8.00784 17.2276 8.01787 17.2377 8.12308ZM3.47922 8.9412V9.18751H3.04124C2.80033 9.18751 2.59445 9.17329 2.58371 9.15595C2.57298 9.13856 2.57403 9.07523 2.58604 9.0152L2.6079 8.90601H2.92034H3.23278V8.80045C3.23278 8.70326 3.24257 8.69488 3.356 8.69488H3.47922V8.9412ZM4.74659 9.25788V9.82089H4.62337H4.50016V9.25788V8.69488H4.62337H4.74659V9.25788ZM1.89979 8.92251C1.90887 8.93162 1.90979 8.99496 1.9018 9.06326C1.88838 9.17818 1.87835 9.18751 1.76795 9.18751C1.65614 9.18751 1.64857 9.18009 1.64857 9.07023C1.64857 9.0057 1.65913 8.94236 1.67205 8.92948C1.69874 8.90281 1.87469 8.89742 1.89979 8.92251ZM17.3499 9.04676V9.18751H16.9177H16.4855L16.2981 9.04676L16.1107 8.90601H16.7303H17.3499V9.04676ZM3.21518 9.92089C3.15709 9.95636 3.08781 10.0117 3.06127 10.0439C3.01923 10.0948 2.92386 10.1024 2.33077 10.1024H1.64857V9.97923V9.85608L2.48468 9.85622C3.31055 9.85632 3.31949 9.85713 3.21518 9.92089ZM17.3499 9.97923C17.3499 10.0965 17.344 10.1024 17.2267 10.1024C17.1093 10.1024 17.1035 10.0965 17.1035 9.97923C17.1035 9.86195 17.1093 9.85608 17.2267 9.85608C17.344 9.85608 17.3499 9.86195 17.3499 9.97923ZM2.01364 10.8501C2.05251 10.9951 2.03959 11.0173 1.91637 11.0173C1.79432 11.0173 1.75418 10.973 1.75418 10.8384C1.75418 10.7852 1.77936 10.771 1.87328 10.771C1.96707 10.771 1.99692 10.7878 2.01364 10.8501ZM2.91249 10.8818C2.93376 10.9427 2.95115 10.9981 2.95115 11.0049C2.95115 11.0117 2.90362 11.0173 2.84553 11.0173C2.78744 11.0173 2.73992 11.0132 2.73992 11.0082C2.73992 11.0033 2.72517 10.9478 2.70718 10.8851C2.67574 10.7755 2.67842 10.771 2.77414 10.771C2.85433 10.771 2.88141 10.7927 2.91249 10.8818ZM17.1904 11.1492C17.1456 11.3573 17.0794 11.6225 17.0433 11.7386L16.9777 11.9497L16.8118 11.9605L16.6458 11.9712V11.8309C16.6458 11.7145 16.6586 11.6888 16.7213 11.6795C16.8062 11.6668 16.8397 11.5766 16.9442 11.0788L17.0089 10.771H17.1404H17.272L17.1904 11.1492ZM2.31862 12.0113C2.38262 12.1903 2.46476 12.4041 2.50109 12.4864L2.5672 12.6359H3.10306C3.60705 12.6359 3.64619 12.6408 3.76149 12.7185C3.82891 12.7639 3.9316 12.8181 3.98969 12.8389C4.07048 12.8678 3.89587 12.8773 3.2463 12.8794L2.39731 12.8822L2.29106 12.6447C2.16436 12.3614 1.96541 11.8062 1.96541 11.7358C1.96541 11.7025 2.00498 11.6858 2.08381 11.6858C2.20128 11.6858 2.20312 11.6884 2.31862 12.0113ZM16.6912 12.7063C16.6811 12.745 16.6667 12.7767 16.6593 12.7767C16.6519 12.7767 16.6458 12.745 16.6458 12.7063C16.6458 12.6676 16.6602 12.6359 16.6777 12.6359C16.6953 12.6359 16.7013 12.6676 16.6912 12.7063ZM4.75462 13.5596L4.76419 14.2369L5.82248 14.2545L6.88077 14.2721L7.01944 14.3853L7.15812 14.4985L6.77966 14.4996L6.40121 14.5008V15.0111V15.5213H6.85807H7.31495L7.32453 16.1634L7.33414 16.8056L7.783 16.9106L8.23186 17.0156V17.1436V17.2716L7.91484 17.2066C7.74044 17.1708 7.47904 17.1071 7.33396 17.0649L7.0701 16.9883V16.3966V15.8048L6.60364 15.795L6.13718 15.7852L6.12757 15.143L6.11799 14.5008H5.30906H4.50016V13.6915V12.8822H4.6226H4.74508L4.75462 13.5596ZM5.69712 13.0933V13.3045L5.86434 13.305C6.05635 13.3056 6.07666 13.3162 6.18527 13.4716L6.26518 13.586H5.85793H5.45068V13.2341V12.8822H5.5739H5.69712V13.0933ZM3.19955 13.7648C3.90407 14.8017 4.86143 15.6524 5.99636 16.2499C6.37882 16.4512 6.38375 16.4555 6.39474 16.5888C6.40516 16.7157 6.4009 16.7223 6.32433 16.6986C6.19967 16.6599 5.80544 16.4573 5.47385 16.2615C4.55483 15.7189 3.59754 14.8112 2.98639 13.9027C2.87021 13.73 2.77512 13.5801 2.77512 13.5697C2.77512 13.5593 2.83789 13.5508 2.91464 13.5508C3.04595 13.5508 3.06267 13.5633 3.19955 13.7648ZM8.13505 15.2026C8.21542 15.2428 8.23186 15.274 8.23186 15.3862V15.5213H8.47791C8.66097 15.5213 8.78267 15.5448 8.95317 15.613L9.18239 15.7047V16.0726V16.4404L9.05037 16.4295L8.91835 16.4186L8.90818 16.1107L8.89801 15.8028H8.44172H7.98543V15.4656C7.98543 15.2801 7.99733 15.1342 8.01183 15.1412C8.02634 15.1483 8.08182 15.1759 8.13505 15.2026ZM14.1815 15.816C14.1815 15.8356 13.6691 16.1861 13.6039 16.2111C13.5584 16.2285 13.5478 16.2064 13.5478 16.0948V15.957L13.8382 15.8837C14.1672 15.8006 14.1815 15.7978 14.1815 15.816ZM10.0185 15.9657C10.0972 15.9868 10.0977 15.9914 10.0977 16.669V17.351H9.9745H9.85128V16.6473C9.85128 15.9023 9.84702 15.9198 10.0185 15.9657ZM12.8716 16.3567L12.8613 16.6291L12.4036 16.8113C12.1519 16.9114 11.8866 17.0044 11.8139 17.0178C11.682 17.0422 11.6819 17.0421 11.6819 16.9195C11.6819 16.7969 11.6821 16.7968 11.9907 16.6891C12.1606 16.6298 12.3745 16.5492 12.466 16.51L12.6325 16.4387V16.2615V16.0843H12.7572H12.8818L12.8716 16.3567ZM11.013 16.1878C11.013 16.265 10.999 16.2764 10.8634 16.3088C10.7741 16.3301 10.7666 16.3237 10.7666 16.2257C10.7666 16.1277 10.7762 16.1195 10.8898 16.1195C10.9883 16.1195 11.013 16.1332 11.013 16.1878ZM11.0063 17.0947C10.9967 17.2107 10.9826 17.228 10.881 17.2486C10.7679 17.2715 10.7666 17.2703 10.7666 17.1379C10.7666 17.0271 10.7802 17.0015 10.8458 16.9888C11.0135 16.9566 11.0177 16.9593 11.0063 17.0947ZM9.18239 17.2279C9.18239 17.3481 9.17904 17.351 9.04157 17.351C8.9041 17.351 8.90075 17.3481 8.90075 17.2279C8.90075 17.1077 8.9041 17.1047 9.04157 17.1047C9.17904 17.1047 9.18239 17.1077 9.18239 17.2279Z" fill="#1A203F"/>
</svg>
