<svg width="16" height="16" viewBox="0 0 16 16" fill="none" xmlns="http://www.w3.org/2000/svg">
<g clip-path="url(#clip0_8390_157320)">
<path d="M7.9987 14.6666C11.6806 14.6666 14.6654 11.6818 14.6654 7.99992C14.6654 4.31802 11.6806 1.33325 7.9987 1.33325C4.3168 1.33325 1.33203 4.31802 1.33203 7.99992C1.33203 11.6818 4.3168 14.6666 7.9987 14.6666Z" stroke="#9996BE" stroke-linecap="round" stroke-linejoin="round"/>
<path d="M6.05859 5.99989C6.21533 5.55434 6.5247 5.17863 6.9319 4.93931C7.3391 4.7 7.81786 4.61252 8.28338 4.69237C8.7489 4.77222 9.17114 5.01424 9.47531 5.37558C9.77949 5.73691 9.94596 6.19424 9.94526 6.66656C9.94526 7.99989 7.94526 8.66656 7.94526 8.66656" stroke="#9996BE" stroke-linecap="round" stroke-linejoin="round"/>
<path d="M8 11.3333H8.00667" stroke="#9996BE" stroke-linecap="round" stroke-linejoin="round"/>
</g>
<defs>
<clipPath id="clip0_8390_157320">
<rect width="16" height="16" fill="white"/>
</clipPath>
</defs>
</svg>
