<svg width="15" height="12" viewBox="0 0 15 12" fill="none" xmlns="http://www.w3.org/2000/svg">
<path d="M7.49758 11.6728L0.847656 4.42188L5.04131 5.02607L7.49758 11.6728Z" fill="url(#paint0_linear_8493_192574)"/>
<path d="M7.49851 11.6728L14.1484 4.42188L9.95479 5.02607L7.49851 11.6728Z" fill="url(#paint1_linear_8493_192574)"/>
<path fill-rule="evenodd" clip-rule="evenodd" d="M7.49797 0.707031L6.89889 1.54598L5.58089 3.58342C5.40115 3.82312 5.16151 4.12274 4.92188 4.48229L5.0161 5.02426H10.0995L9.83443 4.48229L9.35516 3.52349C9.11552 3.10402 9.05561 2.98417 8.9358 2.74447C8.63625 2.14522 8.39661 1.8456 7.6777 0.707031H7.49797Z" fill="url(#paint2_linear_8493_192574)"/>
<path d="M10.0742 5.02152L10.5535 0.886719L13.8485 4.06273L14.148 4.42227L10.0742 5.02152Z" fill="url(#paint3_linear_8493_192574)"/>
<path d="M5.04297 5.02152L4.44388 0.886719L1.15321 4.04883L0.849321 4.41359L5.04297 5.02152Z" fill="url(#paint4_linear_8493_192574)"/>
<path d="M4.98059 5.02161L4.44141 0.886805L4.63127 0.707031H7.50868L4.98059 5.02161Z" fill="url(#paint5_linear_8493_192574)"/>
<path d="M10.1014 5.02426L7.51172 0.707031H10.3891L10.5552 0.886805L10.1014 5.02426Z" fill="url(#paint6_linear_8493_192574)"/>
<path d="M7.49925 11.6751L5.04297 5.02344H10.1264L7.49925 11.6751Z" fill="url(#paint7_linear_8493_192574)"/>
<defs>
<linearGradient id="paint0_linear_8493_192574" x1="0.847656" y1="4.42187" x2="7.61935" y2="11.7358" gradientUnits="userSpaceOnUse">
<stop offset="0.239583" stop-color="#8E8E8E"/>
<stop offset="1" stop-color="#C8C8C8"/>
</linearGradient>
<linearGradient id="paint1_linear_8493_192574" x1="9.71515" y1="5.74022" x2="11.7286" y2="8.69256" gradientUnits="userSpaceOnUse">
<stop offset="0.156278" stop-color="#8E8E8E"/>
<stop offset="0.916474" stop-color="#C9C9C9"/>
</linearGradient>
<linearGradient id="paint2_linear_8493_192574" x1="7.55788" y1="0.707031" x2="7.55788" y2="5.02426" gradientUnits="userSpaceOnUse">
<stop stop-color="#CECECE"/>
<stop offset="1" stop-color="#E5E5E5"/>
</linearGradient>
<linearGradient id="paint3_linear_8493_192574" x1="10.4337" y1="2.38484" x2="13.8488" y2="4.00212" gradientUnits="userSpaceOnUse">
<stop offset="0.232812" stop-color="#B3B3B3"/>
<stop offset="1" stop-color="#D4D4D4"/>
</linearGradient>
<linearGradient id="paint4_linear_8493_192574" x1="4.61753" y1="2.34662" x2="1.15288" y2="3.98735" gradientUnits="userSpaceOnUse">
<stop offset="0.232812" stop-color="#EFEFEF"/>
<stop offset="0.657637" stop-color="#D4D4D4"/>
</linearGradient>
<linearGradient id="paint5_linear_8493_192574" x1="4.44141" y1="0.707031" x2="6.89818" y2="2.68393" gradientUnits="userSpaceOnUse">
<stop offset="0.296818" stop-color="#E4E4E4"/>
<stop offset="1" stop-color="#C9C9C9"/>
</linearGradient>
<linearGradient id="paint6_linear_8493_192574" x1="7.55969" y1="0.707031" x2="10.9151" y2="2.86353" gradientUnits="userSpaceOnUse">
<stop offset="0.327731" stop-color="#B5B5B5"/>
<stop offset="0.931209" stop-color="#D4D4D4"/>
</linearGradient>
<linearGradient id="paint7_linear_8493_192574" x1="5.08843" y1="5.02075" x2="9.88234" y2="9.57379" gradientUnits="userSpaceOnUse">
<stop offset="0.142135" stop-color="#E8E8E8"/>
<stop offset="0.622579" stop-color="#CACACA"/>
</linearGradient>
</defs>
</svg>
