<svg width="24" height="24" viewBox="0 0 24 24" fill="none" xmlns="http://www.w3.org/2000/svg">
<path d="M12 22C17.5 22 22 17.5 22 12C22 6.5 17.5 2 12 2C6.5 2 2 6.5 2 12C2 17.5 6.5 22 12 22Z" stroke="#8E8EA9" stroke-width="1.5" stroke-linecap="round" stroke-linejoin="round"/>
<path d="M11.9984 17.5002C12.5411 17.5002 12.9811 17.0602 12.9811 16.5174C12.9811 15.9747 12.5411 15.5347 11.9984 15.5347C11.4556 15.5347 11.0156 15.9747 11.0156 16.5174C11.0156 17.0602 11.4556 17.5002 11.9984 17.5002Z" fill="#8E8EA9"/>
<path d="M11.9996 13.8966V13.2414C12.5179 13.2414 13.0246 13.0877 13.4556 12.7997C13.8865 12.5117 14.2224 12.1025 14.4208 11.6236C14.6192 11.1447 14.671 10.6178 14.5699 10.1094C14.4688 9.60106 14.2192 9.13409 13.8527 8.76758C13.4862 8.40107 13.0192 8.15148 12.5109 8.05036C12.0025 7.94924 11.4756 8.00114 10.9967 8.19949C10.5178 8.39784 10.1085 8.73374 9.82057 9.16471C9.53261 9.59568 9.37891 10.1024 9.37891 10.6207" stroke="#8E8EA9" stroke-width="1.5" stroke-linecap="round" stroke-linejoin="round"/>
</svg>
