<svg width="14" height="16" viewBox="0 0 14 16" fill="none" xmlns="http://www.w3.org/2000/svg">
<path d="M13.5 8L7.74264 13.7574C6.94699 14.553 5.86786 15 4.74264 15C2.3995 15 0.5 13.1005 0.5 10.7574C0.5 9.63214 0.946991 8.55301 1.74264 7.75736L7.67157 1.82843C8.20201 1.29799 8.92143 1 9.67157 1C11.2337 1 12.5 2.26633 12.5 3.82843C12.5 4.57857 12.202 5.29799 11.6716 5.82843L5.91421 11.5858C5.649 11.851 5.28929 12 4.91421 12C4.13316 12 3.5 11.3668 3.5 10.5858C3.5 10.2107 3.649 9.851 3.91421 9.58579L9.5 4" stroke="#335BE9"/>
</svg>
