<svg width="16" height="16" viewBox="0 0 16 16" fill="none" xmlns="http://www.w3.org/2000/svg">
<g clip-path="url(#clip0_5112_19846)">
<path d="M15.6311 0.666992L8.76562 5.63404L10.0423 2.70682L15.6311 0.666992Z" fill="#E17726"/>
<path d="M0.386906 0.672852L5.96072 2.70718L7.17297 5.67278L0.386906 0.672852ZM12.8662 11.2305L15.9007 11.287L14.8402 14.8096L11.1375 13.8128L12.8662 11.2305ZM3.13366 11.2305L4.85597 13.8128L1.15953 14.8096L0.105469 11.287L3.13366 11.2305Z" fill="#E27625"/>
<path d="M7.00856 4.91772L7.13256 8.8339L3.42188 8.66884L4.47737 7.11185L4.49075 7.09688L7.00856 4.91772ZM8.95375 4.87402L11.51 7.097L11.5232 7.11191L12.5787 8.6689L8.86887 8.8339L8.95375 4.87402ZM4.96506 11.2422L6.99119 12.7858L4.63756 13.8969L4.96506 11.2422ZM11.0361 11.242L11.3567 13.897L9.00969 12.7857L11.0361 11.242Z" fill="#E27625"/>
<path d="M9.06122 12.6396L11.4429 13.7673L9.22747 14.7968L9.25047 14.1163L9.06122 12.6396ZM6.93828 12.6401L6.75647 14.1052L6.77141 14.796L4.55078 13.7673L6.93828 12.6401Z" fill="#D5BFB2"/>
<path d="M6.25047 9.34473L6.87284 10.6237L4.75391 10.0167L6.25047 9.34473ZM9.74953 9.34485L11.2532 10.0167L9.12728 10.6235L9.74953 9.34485Z" fill="#233447"/>
<path d="M5.12753 11.2287L4.78503 13.9811L2.94922 11.2889L5.12753 11.2287ZM10.8744 11.2287L13.0528 11.2889L11.2101 13.9812L10.8744 11.2287ZM12.6329 8.5127L11.0476 10.0925L9.82528 9.54633L9.24009 10.7492L8.85647 8.68069L12.6329 8.5127ZM3.36809 8.5127L7.14528 8.68069L6.76159 10.7492L6.17628 9.54651L4.96047 10.0925L3.36809 8.5127Z" fill="#CC6228"/>
<path d="M3.26172 8.18872L5.05534 9.96834L5.11747 11.7252L3.26172 8.18872ZM12.7428 8.18555L10.8837 11.7283L10.9537 9.96834L12.7428 8.18555ZM7.05803 8.29714L7.13022 8.74141L7.30859 9.8482L7.19391 13.2475L6.65172 10.5168L6.65153 10.4885L7.05803 8.29714ZM8.94372 8.29096L9.35128 10.4885L9.35109 10.5168L8.80753 13.2543L8.78603 12.5696L8.70122 9.82803L8.94372 8.29096Z" fill="#E27525"/>
<path d="M11.1115 9.89746L11.0508 11.4239L9.15866 12.8653L8.77616 12.6011L9.20491 10.4417L11.1115 9.89746ZM4.89453 9.89746L6.79447 10.4417L7.22322 12.6011L6.84072 12.8653L4.94853 11.4238L4.89453 9.89746Z" fill="#F5841F"/>
<path d="M4.1875 13.4307L6.60825 14.5522L6.598 14.0732L6.80056 13.8994H9.19644L9.40631 14.0726L9.39081 14.5512L11.7962 13.4335L10.6258 14.3792L9.21044 15.3297H6.78113L5.36675 14.3753L4.1875 13.4307Z" fill="#C0AC9D"/>
<path d="M8.88616 12.4902L9.22841 12.7267L9.42897 14.2914L9.13872 14.0517H6.85897L6.57422 14.2962L6.76822 12.7268L7.11059 12.4902H8.88616Z" fill="#161616"/>
<path d="M15.1759 0.804688L16 3.22206L15.4853 5.66632L15.8518 5.94273L15.3559 6.31269L15.7286 6.59417L15.2351 7.03362L15.5381 7.24818L14.7339 8.16644L11.4358 7.22747L11.4073 7.21249L9.03056 5.25217L15.1759 0.804688ZM0.824125 0.804688L6.9695 5.25217L4.59275 7.21249L4.56419 7.22747L1.26606 8.16644L0.461937 7.24818L0.764687 7.03381L0.271437 6.59417L0.643438 6.313L0.140062 5.94199L0.520375 5.66541L0 3.22218L0.824125 0.804688Z" fill="#763E1A"/>
<path d="M11.2741 7.02186L14.7687 8.01669L15.904 11.4381H12.9087L10.845 11.4635L12.3459 8.60299L11.2741 7.02186ZM4.72512 7.02186L3.65319 8.60299L5.15425 11.4635L3.09144 11.4381H0.101562L1.2305 8.01675L4.72512 7.02186ZM10.2111 2.69043L9.23369 5.2717L9.02625 8.7587L8.94687 9.85167L8.94056 12.6437H7.05862L7.0525 9.85693L6.97287 8.75778L6.76537 5.2717L5.78806 2.69043H10.2111Z" fill="#F5841F"/>
</g>
<defs>
<clipPath id="clip0_5112_19846">
<rect width="16" height="14.6667" fill="white" transform="translate(0 0.666992)"/>
</clipPath>
</defs>
</svg>
