<svg width="48" height="48" viewBox="0 0 48 48" fill="none" xmlns="http://www.w3.org/2000/svg">
<path fill-rule="evenodd" clip-rule="evenodd" d="M21.3747 9.40902C15.922 10.1345 11.34 13.7671 9.41916 18.8873C8.83847 20.4355 8.58169 21.7557 8.52297 23.496C8.43779 26.0206 8.90418 28.2419 9.98981 30.4824C10.6698 31.8858 11.9231 33.6439 12.244 33.6444C12.5256 33.6449 12.5067 33.5499 12.1356 33.0982C10.8666 31.5536 9.7795 29.4035 9.32245 27.5344C8.34618 23.5416 9.04926 19.4445 11.2817 16.1179C13.557 12.7272 16.8473 10.6031 20.9822 9.85581C22.0223 9.66779 24.5737 9.66779 25.6139 9.85581C29.7087 10.5959 33.0552 12.744 35.3047 16.0764C36.208 17.4144 37.061 19.4059 37.3699 20.8979C37.4432 21.2522 37.5218 21.541 37.5444 21.5396C37.5671 21.5383 37.6522 21.4871 37.7336 21.4258C37.8776 21.3173 37.876 21.2926 37.6703 20.4761C35.8375 13.2014 28.7992 8.42129 21.3747 9.40902ZM21.212 10.179C17.9138 10.7129 14.9153 12.3284 12.8023 14.71C8.22717 19.8667 8.04614 27.4661 12.3712 32.8079C12.679 33.1882 12.9697 33.4772 13.0236 33.4567C13.077 33.4363 13.2468 33.3961 13.401 33.3673C13.5552 33.3386 13.6814 33.3002 13.6814 33.282C13.6814 33.2638 13.4553 32.9855 13.1791 32.6635C12.7005 32.1055 11.8758 30.9768 11.8758 30.8796C11.8758 30.8544 11.9906 30.835 12.1309 30.8365C12.3606 30.8388 12.4266 30.8992 12.7928 31.4416C13.0164 31.773 13.4403 32.296 13.7348 32.6039L14.2701 33.1637L15.3521 32.8382L16.4342 32.5126L15.6465 32.4903L14.8589 32.468V31.1058V29.7435L13.0414 29.7225L11.2239 29.7016L10.9636 29.095C10.8205 28.7614 10.6512 28.3134 10.5873 28.0995L10.4712 27.7105H10.7044C10.8752 27.7105 10.9545 27.7575 11.0006 27.8862C11.0352 27.9829 11.1616 28.3343 11.2814 28.667L11.4992 29.2722H13.179H14.8589V28.9515C14.8589 28.6912 14.8823 28.6397 14.9831 28.6782C15.0514 28.7043 15.1397 28.7256 15.1794 28.7256C15.2208 28.7256 15.2514 29.4216 15.2514 30.3653V32.005L16.6056 32.0046L17.9598 32.004L19.1289 31.5728C19.7718 31.3356 20.3455 31.115 20.4037 31.0826C20.4784 31.041 20.357 30.9099 19.9904 30.6359C19.3443 30.1532 18.6129 29.3658 18.1537 28.6582L17.8028 28.1177L16.4894 28.0898C15.2079 28.0626 15.1715 28.0571 14.9887 27.8667C14.7264 27.5935 14.094 25.7119 14.2054 25.536C14.2748 25.4266 14.4761 25.4039 15.5419 25.3857L16.7968 25.3643L16.7895 24.2536C16.7855 23.6427 16.8103 23.0111 16.8447 22.85L16.9071 22.5572H15.1726C13.3493 22.5572 13.0687 22.511 12.9365 22.1892C12.7357 21.7005 12.2683 20.2321 12.2683 20.0901C12.2683 19.996 12.3242 19.8978 12.3925 19.8717C12.4608 19.8456 13.7275 19.8243 15.2075 19.8243H17.8983L18.1747 19.4102C19.4419 17.512 21.4687 16.1928 23.7205 15.8006C25.0191 15.5744 26.5649 15.6919 27.7996 16.1108C28.9775 16.5103 30.7475 17.5822 30.9501 18.0185C31.0184 18.1656 31.0083 18.2458 30.9014 18.4081C30.652 18.7867 29.2811 20.1366 29.146 20.1366C29.0723 20.1366 28.8568 20.0187 28.6669 19.8745C27.3066 18.8414 25.7637 18.4498 24.2793 18.761C23.2908 18.9681 22.4635 19.4285 21.6809 20.2069C20.708 21.1746 20.215 22.2263 20.0758 23.6314C19.9798 24.6018 20.295 25.9233 20.8392 26.8313C21.1865 27.4107 22.0097 28.2346 22.5923 28.5858C23.1157 28.9014 24.1466 29.2733 24.4894 29.2701C24.6113 29.269 25.4706 28.8911 26.3989 28.4302L28.0867 27.5923V27.2025V26.8126L26.776 26.7912C25.1962 26.7654 25.3073 26.8461 24.817 25.3684C24.5366 24.5232 24.5007 24.3469 24.5878 24.2426C24.6788 24.1334 25.056 24.1188 27.7767 24.1188C30.4772 24.1188 30.8778 24.1341 30.9858 24.2415C31.0813 24.3365 31.1091 24.5386 31.1091 25.1373V25.9104L32.004 25.3729C33.058 24.7397 34.8773 23.5699 34.8773 23.5253C34.8773 23.5081 34.1884 23.4941 33.3465 23.4941H31.8157L31.8153 23.865L31.8151 24.2359L31.6647 23.9907C31.582 23.8558 31.4762 23.722 31.4295 23.6932C31.3718 23.6578 31.3446 22.9054 31.3446 21.342C31.3446 19.1921 31.3548 19.0241 31.5016 18.7515C31.588 18.5913 31.6586 18.3354 31.6586 18.1827C31.6586 18.0302 31.588 17.7675 31.5016 17.599C31.382 17.3657 31.3446 17.1385 31.3446 16.6455V15.9983H30.3452C29.512 15.9983 29.2803 15.9713 28.9518 15.8361L28.5578 15.6738L28.582 14.7429L28.6063 13.812H27.8166H27.0269V12.7622V11.7123L26.2419 11.5362C25.4757 11.3643 25.4569 11.3548 25.4569 11.1406C25.4569 10.9263 25.4647 10.9224 25.7905 10.9733C25.974 11.002 26.4068 11.1014 26.7522 11.1943L27.3802 11.3631L27.4021 12.3924L27.424 13.4216H28.2068H28.9895V14.5148V15.6079H30.4026H31.8157V16.9743V18.3408H33.612C35.2546 18.3408 35.4121 18.3525 35.4507 18.4774C35.4738 18.5526 35.5996 18.8675 35.7301 19.1772C35.8606 19.487 36.0024 19.8668 36.0453 20.0212C36.1231 20.3016 36.123 20.3019 35.8841 20.2779C35.6635 20.2556 35.6283 20.2081 35.4296 19.6649C35.0509 18.6288 35.2708 18.7312 33.4222 18.7312H31.8157V19.3168V19.9024H32.8754H33.9352V20.6832V21.464H34.3578C34.7298 21.464 34.7861 21.4851 34.8278 21.6397C34.8538 21.7364 34.8756 21.8418 34.8762 21.874C34.8768 21.9061 34.577 21.9325 34.21 21.9325H33.5427V21.1127V20.2928H32.6792H31.8157V21.6592V23.0257L33.7194 23.0243L35.6231 23.023L36.3885 22.4636C37.2863 21.8074 37.2623 21.8928 36.9202 20.5731C35.7144 15.922 32.3021 12.2664 27.7727 10.7736C26.1461 10.2375 25.4835 10.131 23.5728 10.0986C22.3787 10.0784 21.6882 10.1019 21.212 10.179ZM22.7092 13.0703C22.7092 14.417 22.6793 15.3737 22.6372 15.3737C22.5975 15.3737 22.5092 15.395 22.4409 15.4211C22.3294 15.4636 22.3167 15.2292 22.3167 13.1177V10.7669H22.513H22.7092V13.0703ZM24.2793 11.0011C24.2793 11.1989 24.2488 11.2353 24.0831 11.2353C23.9173 11.2353 23.8868 11.1989 23.8868 11.0011C23.8868 10.8033 23.9173 10.7669 24.0831 10.7669C24.2488 10.7669 24.2793 10.8033 24.2793 11.0011ZM21.1392 11.1481C21.1392 11.3263 21.0982 11.3811 20.9429 11.4106C20.7717 11.4432 20.7467 11.4203 20.7467 11.2311C20.7467 11.1117 20.7909 10.9964 20.8448 10.9747C21.0644 10.8866 21.1392 10.9307 21.1392 11.1481ZM19.5691 11.5334C19.5691 11.7323 19.5266 11.7668 19.1266 11.8922C18.8831 11.9685 18.5299 12.0966 18.3416 12.1769L17.999 12.3229V13.9654V15.6079H18.5878H19.1766V14.5148V13.4216H19.9616H20.7467V13.0013C20.7467 12.6149 20.7625 12.578 20.9429 12.5436L21.1392 12.5063V13.1563V13.8064L20.3738 13.8287L19.6084 13.8511L19.5861 14.7295L19.5639 15.6079L20.6852 15.6144L21.8065 15.6209L21.4139 15.8048C21.0246 15.9872 20.9983 15.9888 18.1364 15.9936L15.2514 15.9983V17.5599V19.1216H15.0607C14.9225 19.1216 14.8629 19.0731 14.8448 18.9459C14.8204 18.7758 14.7919 18.7702 13.9561 18.7702C13.1204 18.7702 13.0918 18.7758 13.0675 18.9459C13.0493 19.0731 12.9897 19.1216 12.8516 19.1216C12.675 19.1216 12.6608 19.0926 12.6608 18.7312V18.3408H13.7599H14.8589V16.9743V15.6079H16.2313H17.6036L17.6247 13.7925L17.6458 11.9771L18.4701 11.6467C19.4649 11.2478 19.5691 11.2371 19.5691 11.5334ZM38.9202 11.7582C37.769 11.861 34.5318 12.4119 34.419 12.5241C34.3897 12.5532 35.0041 13.2797 36.0271 14.4254L36.3307 14.7654L36.9189 14.6777C37.8807 14.5343 39.8938 14.3591 40.5828 14.3588C41.9798 14.3584 43.1077 14.6534 43.3989 15.0955C43.5025 15.2529 43.5244 15.4054 43.493 15.7507C43.3435 17.3905 40.7173 20.3094 36.7961 23.1938C31.8945 26.7995 24.8615 30.443 18.3721 32.7386C12.7658 34.7217 7.32014 35.5826 5.25118 34.8126C4.67379 34.5977 4.49645 34.3674 4.49645 33.8323C4.49645 32.8944 5.32584 31.576 6.96138 29.9135L8.05893 28.7978L7.83928 27.3368C7.71854 26.5332 7.60165 25.7801 7.57951 25.6632L7.5394 25.4508L6.95863 25.9285C4.55996 27.902 2.77416 29.9156 1.95058 31.5756C1.2731 32.941 1.12849 33.8502 1.43293 34.8306C1.88291 36.2797 3.12005 37.1761 5.25699 37.6016C6.18506 37.7864 8.6116 37.785 9.99169 37.5989C20.6088 36.1674 35.9934 28.7211 43.2402 21.5064C45.1166 19.6383 46.2128 17.9809 46.591 16.4399C46.7399 15.8334 46.7503 15.6792 46.6767 15.1714C46.4145 13.3615 44.9249 12.2018 42.3744 11.8217C41.6587 11.7151 39.7875 11.6806 38.9202 11.7582ZM30.5988 12.9092C32.1456 13.9084 33.5695 15.3479 34.6006 16.9548L34.7383 17.1695L34.4742 17.1681C34.2453 17.1669 34.1766 17.116 33.9604 16.7869C32.949 15.248 31.2366 13.7207 29.3624 12.6857C28.896 12.4281 28.8325 12.3658 28.8325 12.1646V11.9361L29.4017 12.2198C29.7147 12.3758 30.2534 12.686 30.5988 12.9092ZM24.2793 12.8751V13.4216H25.0644H25.8494V14.2306V15.0397L25.6531 15.0024C25.4649 14.9665 25.4569 14.9415 25.4569 14.3885V13.812H24.6718H23.8868V13.0703C23.8868 12.3311 23.8875 12.3285 24.0831 12.3285C24.2737 12.3285 24.2793 12.3441 24.2793 12.8751ZM16.2599 13.2647C14.527 14.3884 12.959 16.094 11.9367 17.9677C11.5691 18.6414 11.4983 18.727 11.3066 18.729C11.1879 18.7302 11.0907 18.7128 11.0907 18.6904C11.0907 18.668 11.2363 18.3605 11.4142 18.0072C12.4175 16.014 13.9849 14.2595 15.9187 12.965L16.3897 12.6497L16.4157 12.8983C16.4357 13.0891 16.3995 13.1742 16.2599 13.2647ZM19.0196 17.3647C18.8415 17.5533 18.8008 17.5599 17.8284 17.5599H16.8215V18.3408V19.1216H16.6252H16.429V18.1456V17.1695H17.8164H19.204L19.0196 17.3647ZM11.5618 20.0976C11.5618 20.2723 11.5298 20.2928 11.2565 20.2928H10.9512L10.823 20.7808C10.7525 21.0493 10.6678 21.4094 10.6346 21.5811C10.5838 21.8444 10.5409 21.8974 10.3615 21.9181C10.1991 21.937 10.1487 21.9093 10.1488 21.801C10.1489 21.6365 10.5224 20.0739 10.5861 19.9714C10.6097 19.9335 10.8388 19.9024 11.0954 19.9024C11.5405 19.9024 11.5618 19.9113 11.5618 20.0976ZM30.2456 21.8154V23.4161H30.0101H29.7746V22.0112C29.7746 20.6795 29.7835 20.5961 29.9457 20.4105C30.0399 20.3028 30.1459 20.2147 30.1812 20.2147C30.2166 20.2147 30.2456 20.935 30.2456 21.8154ZM36.4474 21.6983C36.4474 21.8933 36.4159 21.9325 36.2595 21.9325C36.0778 21.9325 35.9763 21.8043 35.9763 21.5747C35.9763 21.5038 36.0609 21.464 36.2118 21.464C36.4212 21.464 36.4474 21.49 36.4474 21.6983ZM12.9159 23.0563C12.9915 23.1133 13.0533 23.2351 13.0533 23.327C13.0533 23.486 13.0172 23.4941 12.3075 23.4941H11.5618V23.2633V23.0325L12.1309 23.0056C12.444 22.9908 12.7177 22.9727 12.7393 22.9656C12.7609 22.9584 12.8403 22.9992 12.9159 23.0563ZM10.4319 23.1492C10.4056 23.2171 10.3842 23.3225 10.3842 23.3834C10.3842 23.4495 10.305 23.4941 10.1879 23.4941C10.0222 23.4941 9.99169 23.4577 9.99169 23.2599C9.99169 23.0499 10.0169 23.0257 10.2356 23.0257C10.4257 23.0257 10.469 23.0529 10.4319 23.1492ZM15.2514 23.9133V24.6448L14.6726 24.6818C14.2482 24.7089 14.0303 24.7637 13.8558 24.8873C13.6286 25.0482 13.5364 25.0558 11.8048 25.0558H9.99169V24.8215V24.5873H12.4253H14.8589V23.8845C14.8589 23.187 14.8604 23.1818 15.0552 23.1818C15.2506 23.1818 15.2514 23.1851 15.2514 23.9133ZM10.6059 26.4085C10.629 26.609 10.6112 26.6266 10.4096 26.6037C10.2323 26.5834 10.1828 26.5342 10.1625 26.3579C10.1394 26.1573 10.1572 26.1397 10.3588 26.1627C10.5361 26.1829 10.5856 26.2321 10.6059 26.4085ZM13.0533 26.9297V27.7105H13.5857C14.105 27.7105 14.1201 27.7162 14.2069 27.9448L14.2957 28.179H13.4783H12.6608V27.3982V26.6174H12.229C11.9087 26.6174 11.7973 26.5888 11.7973 26.5067C11.7973 26.4458 11.7758 26.3404 11.7496 26.2724C11.7084 26.1657 11.7937 26.1489 12.3776 26.1489H13.0533V26.9297ZM37.5236 27.1795C37.3872 27.3034 37.2645 27.5777 37.1282 28.0637C35.9216 32.3658 32.356 36.0738 27.9735 37.5839C27.5227 37.7392 26.7102 37.9602 26.168 38.0751C25.2625 38.2668 25.0317 38.2842 23.3373 38.2872C21.7143 38.2901 21.3852 38.2689 20.6005 38.1108C19.5349 37.8962 18.6943 37.6412 17.6801 37.225C17.0213 36.9547 16.9011 36.9277 16.6988 37.0052L16.4682 37.0935L16.7749 37.2512C17.3826 37.5637 18.6818 38.0374 19.5291 38.2556C20.8102 38.5853 21.9032 38.72 23.298 38.72C24.6928 38.72 25.786 38.5853 27.0662 38.2557C31.8421 37.0259 35.6873 33.4722 37.2935 28.8037C37.6299 27.8262 37.8221 27.0998 37.7606 27.0386C37.7391 27.0173 37.6325 27.0807 37.5236 27.1795ZM35.7283 28.322C35.1385 28.6943 34.4937 29.0946 34.2956 29.2117C34.0565 29.3528 33.9352 29.4777 33.9352 29.5825C33.9352 29.709 33.884 29.7407 33.6791 29.7407C33.5009 29.7407 32.9697 29.9899 31.9324 30.5604C31.1126 31.0112 29.7618 31.7178 28.9306 32.1306L27.4195 32.8811V33.7704V34.6598H26.6385H25.8576L25.8338 35.0697C25.8132 35.4269 25.7874 35.4828 25.6335 35.5046C25.4621 35.5288 25.4569 35.5097 25.4569 34.8605V34.1913H26.2419H27.0269V33.6447C27.0269 33.3441 27.0112 33.0982 26.9921 33.0982C26.9729 33.0982 26.3635 33.3611 25.6379 33.6824L24.3186 34.2667L24.2971 35.7285C24.2756 37.1958 24.2532 37.3101 23.9849 37.3134C23.91 37.3142 23.8868 36.9752 23.8868 35.8751V34.4355L23.298 34.6799L22.7092 34.9243V35.347C22.7092 35.7003 22.6889 35.7618 22.5851 35.7222C22.5168 35.6962 22.4284 35.6749 22.3888 35.6749C22.3492 35.6749 22.3167 35.5403 22.3167 35.3759V35.077L20.9405 35.5882C19.9449 35.958 19.5704 36.1312 19.5865 36.2142C19.6063 36.3169 19.8932 36.4091 20.9233 36.6437C21.0974 36.6833 21.1392 36.7364 21.1392 36.9179V37.1429L20.4752 36.9986C19.2703 36.7368 19.1766 36.6961 19.1766 36.435C19.1766 36.2832 19.1432 36.2173 19.0785 36.2415C19.0245 36.2618 18.6713 36.3782 18.2934 36.5003C17.9157 36.6222 17.6065 36.7453 17.6065 36.7737C17.6065 36.843 18.7421 37.2621 19.5715 37.4988C21.2701 37.9837 23.7697 38.1254 25.4961 37.8348C28.5557 37.3198 31.1609 35.9767 33.3072 33.8078C34.3887 32.7149 35.0902 31.757 35.7709 30.4434C36.26 29.4995 36.8688 27.9355 36.823 27.7404C36.8098 27.6844 36.3594 27.9236 35.7283 28.322ZM16.8215 29.5845V30.4434H17.7881H18.7547L18.9803 30.6776L19.206 30.9119H17.8175H16.429V29.8187V28.7256H16.6252H16.8215V29.5845ZM35.1957 30.0371C34.2296 31.9077 32.7466 33.6262 31.0581 34.8319C30.2358 35.419 30.1671 35.443 30.1671 35.1431C30.1671 34.9357 30.2457 34.8527 30.8147 34.459C31.7872 33.7862 33.32 32.2164 33.9873 31.21C34.2914 30.7513 34.6602 30.1285 34.8069 29.826C35.0566 29.3111 35.09 29.276 35.3321 29.2741L35.5907 29.2722L35.1957 30.0371ZM31.8157 31.6537V32.4735L30.4222 32.469L29.0288 32.4644L29.6163 32.2347C30.0754 32.0552 30.3284 32.005 30.7742 32.005H31.3446V31.7048C31.3446 31.5051 31.3965 31.3579 31.4996 31.265C31.5849 31.1883 31.6756 31.0599 31.7012 30.9797C31.7912 30.6975 31.8157 30.8415 31.8157 31.6537ZM28.9895 34.2621V36.0507L28.4204 36.2844C27.8855 36.504 27.1448 36.768 27.0634 36.768C27.0433 36.768 27.0269 36.6649 27.0269 36.539C27.0269 36.3694 27.0728 36.2962 27.2036 36.2566C27.3008 36.2273 27.654 36.0994 27.9886 35.9724L28.597 35.7416V34.1531C28.597 32.9554 28.6211 32.5549 28.6951 32.5252C28.9859 32.4085 28.9895 32.4298 28.9895 34.2621ZM25.8494 36.8369C25.8494 37.0151 25.8084 37.0699 25.6531 37.0994C25.4819 37.132 25.4569 37.1091 25.4569 36.9199C25.4569 36.8006 25.5011 36.6852 25.555 36.6635C25.7747 36.5754 25.8494 36.6195 25.8494 36.8369ZM22.7092 37.0803C22.7092 37.2092 22.6768 37.3146 22.6372 37.3146C22.4449 37.3146 22.3167 37.202 22.3167 37.0329C22.3167 36.8857 22.3583 36.8461 22.513 36.8461C22.6787 36.8461 22.7092 36.8825 22.7092 37.0803Z" fill="#8192AA"/>
</svg>
