<svg width="141" height="32" viewBox="0 0 141 32" fill="none" xmlns="http://www.w3.org/2000/svg">
<path d="M44.008 16.488H45.73V20.394C45.226 20.7953 44.638 21.1033 43.966 21.318C43.294 21.5327 42.6033 21.64 41.894 21.64C40.8953 21.64 39.9947 21.4253 39.192 20.996C38.3893 20.5573 37.7593 19.9553 37.302 19.19C36.8447 18.4247 36.616 17.5613 36.616 16.6C36.616 15.6387 36.8447 14.7753 37.302 14.01C37.7593 13.2447 38.3893 12.6473 39.192 12.218C40.004 11.7793 40.914 11.56 41.922 11.56C42.7433 11.56 43.49 11.6953 44.162 11.966C44.834 12.2367 45.3987 12.6333 45.856 13.156L44.708 14.276C43.9613 13.5293 43.0607 13.156 42.006 13.156C41.3153 13.156 40.6993 13.3007 40.158 13.59C39.626 13.8793 39.206 14.2853 38.898 14.808C38.5993 15.3307 38.45 15.928 38.45 16.6C38.45 17.2533 38.5993 17.8413 38.898 18.364C39.206 18.8867 39.626 19.2973 40.158 19.596C40.6993 19.8947 41.3107 20.044 41.992 20.044C42.7573 20.044 43.4293 19.876 44.008 19.54V16.488ZM54.4865 19.232H49.5865L48.6205 21.5H46.7445L51.1545 11.7H52.9465L57.3705 21.5H55.4665L54.4865 19.232ZM53.8845 17.804L52.0365 13.52L50.2025 17.804H53.8845ZM60.1126 13.24H56.8646V11.7H65.1806V13.24H61.9326V21.5H60.1126V13.24ZM70.9878 21.64C69.9891 21.64 69.0884 21.4253 68.2858 20.996C67.4831 20.5573 66.8531 19.9553 66.3958 19.19C65.9384 18.4153 65.7098 17.552 65.7098 16.6C65.7098 15.648 65.9384 14.7893 66.3958 14.024C66.8531 13.2493 67.4831 12.6473 68.2858 12.218C69.0884 11.7793 69.9891 11.56 70.9878 11.56C71.9864 11.56 72.8871 11.7793 73.6898 12.218C74.4924 12.6473 75.1224 13.2447 75.5798 14.01C76.0371 14.7753 76.2658 15.6387 76.2658 16.6C76.2658 17.5613 76.0371 18.4247 75.5798 19.19C75.1224 19.9553 74.4924 20.5573 73.6898 20.996C72.8871 21.4253 71.9864 21.64 70.9878 21.64ZM70.9878 20.044C71.6411 20.044 72.2291 19.8993 72.7518 19.61C73.2744 19.3113 73.6851 18.9007 73.9838 18.378C74.2824 17.846 74.4318 17.2533 74.4318 16.6C74.4318 15.9467 74.2824 15.3587 73.9838 14.836C73.6851 14.304 73.2744 13.8933 72.7518 13.604C72.2291 13.3053 71.6411 13.156 70.9878 13.156C70.3344 13.156 69.7464 13.3053 69.2238 13.604C68.7011 13.8933 68.2904 14.304 67.9918 14.836C67.6931 15.3587 67.5438 15.9467 67.5438 16.6C67.5438 17.2533 67.6931 17.846 67.9918 18.378C68.2904 18.9007 68.7011 19.3113 69.2238 19.61C69.7464 19.8993 70.3344 20.044 70.9878 20.044ZM86.6 21.64C85.6107 21.64 84.7147 21.4253 83.912 20.996C83.1187 20.5573 82.4934 19.9553 82.036 19.19C81.588 18.4247 81.364 17.5613 81.364 16.6C81.364 15.6387 81.5927 14.7753 82.05 14.01C82.5074 13.2447 83.1327 12.6473 83.926 12.218C84.7287 11.7793 85.6247 11.56 86.614 11.56C87.4167 11.56 88.1494 11.7 88.812 11.98C89.4747 12.26 90.0347 12.666 90.492 13.198L89.316 14.304C88.6067 13.5387 87.734 13.156 86.698 13.156C86.026 13.156 85.424 13.3053 84.892 13.604C84.36 13.8933 83.9447 14.2993 83.646 14.822C83.3474 15.3447 83.198 15.9373 83.198 16.6C83.198 17.2627 83.3474 17.8553 83.646 18.378C83.9447 18.9007 84.36 19.3113 84.892 19.61C85.424 19.8993 86.026 20.044 86.698 20.044C87.734 20.044 88.6067 19.6567 89.316 18.882L90.492 20.002C90.0347 20.534 89.47 20.94 88.798 21.22C88.1354 21.5 87.4027 21.64 86.6 21.64ZM100.944 11.7V21.5H99.1239V17.3H94.0559V21.5H92.2359V11.7H94.0559V15.746H99.1239V11.7H100.944ZM109.926 19.232H105.026L104.06 21.5H102.184L106.594 11.7H108.386L112.81 21.5H110.906L109.926 19.232ZM109.324 17.804L107.476 13.52L105.642 17.804H109.324ZM114.056 11.7H115.876V21.5H114.056V11.7ZM127.235 11.7V21.5H125.737L120.333 14.864V21.5H118.527V11.7H120.025L125.429 18.336V11.7H127.235Z" fill="#1A203F"/>
<path fill-rule="evenodd" clip-rule="evenodd" d="M14.2472 6.27252C10.6121 6.75616 7.55739 9.17788 6.27684 12.5914C5.88971 13.6235 5.71852 14.5036 5.67937 15.6638C5.62259 17.3469 5.93352 18.8278 6.65727 20.3215C7.1106 21.257 7.94614 22.4291 8.16008 22.4295C8.34781 22.4298 8.3352 22.3664 8.08781 22.0653C7.2418 21.0356 6.51706 19.6022 6.21236 18.3561C5.56152 15.6942 6.03023 12.9629 7.5185 10.7451C9.0354 8.48462 11.2289 7.06859 13.9855 6.57037C14.679 6.44503 16.3799 6.44503 17.0733 6.57037C19.8032 7.06375 22.0342 8.49586 23.5339 10.7174C24.1361 11.6094 24.7047 12.9371 24.9107 13.9318C24.9596 14.168 25.0119 14.3605 25.027 14.3596C25.0421 14.3587 25.0989 14.3245 25.1531 14.2837C25.2491 14.2114 25.248 14.1949 25.1109 13.6506C23.8891 8.80075 19.1968 5.61403 14.2472 6.27252ZM14.1387 6.78583C11.9399 7.14177 9.94091 8.21878 8.53224 9.80649C5.48217 13.2443 5.36149 18.3106 8.24487 21.8718C8.45008 22.1253 8.64387 22.318 8.67978 22.3043C8.71536 22.2907 8.82862 22.2639 8.93141 22.2447C9.03419 22.2256 9.1183 22.1999 9.1183 22.1878C9.1183 22.1757 8.96762 21.9902 8.78345 21.7755C8.46436 21.4035 7.91458 20.651 7.91458 20.5863C7.91458 20.5694 7.99114 20.5565 8.08467 20.5575C8.2378 20.559 8.28182 20.5993 8.52591 20.9609C8.67501 21.1818 8.95763 21.5305 9.15394 21.7358L9.51081 22.109L10.2322 21.8919L10.9536 21.6749L10.4284 21.66L9.90333 21.6452V20.737V19.8289L8.69166 19.8149L7.47998 19.8009L7.30649 19.3965C7.21108 19.1741 7.09819 18.8754 7.05559 18.7328L6.97819 18.4735H7.13368C7.24756 18.4735 7.30037 18.5049 7.33114 18.5907C7.35422 18.6551 7.43848 18.8893 7.51834 19.1112L7.66352 19.5146H8.7834H9.90333V19.3008C9.90333 19.1273 9.91893 19.093 9.98613 19.1186C10.0317 19.136 10.0905 19.1502 10.117 19.1502C10.1446 19.1502 10.165 19.6143 10.165 20.2434V21.3365L11.0678 21.3362L11.9706 21.3358L12.75 21.0483C13.1786 20.8902 13.5611 20.7432 13.5998 20.7216C13.6497 20.6939 13.5688 20.6064 13.3244 20.4238C12.8936 20.1019 12.406 19.577 12.0999 19.1053L11.8659 18.7449L10.9903 18.7264C10.136 18.7082 10.1117 18.7046 9.98984 18.5776C9.81499 18.3955 9.39342 17.1411 9.46769 17.0239C9.5139 16.9509 9.64814 16.9358 10.3587 16.9237L11.1952 16.9094L11.1904 16.1689C11.1878 15.7616 11.2043 15.3405 11.2272 15.2332L11.2688 15.0379H10.1125C8.89692 15.0379 8.70987 15.0072 8.62174 14.7926C8.48786 14.4668 8.17625 13.4879 8.17625 13.3932C8.17625 13.3305 8.21352 13.265 8.25905 13.2476C8.30458 13.2303 9.14907 13.216 10.1357 13.216H11.9296L12.1139 12.9399C12.9586 11.6745 14.3098 10.7951 15.811 10.5336C16.6768 10.3828 17.7073 10.4611 18.5305 10.7403C19.3157 11.0067 20.4957 11.7213 20.6308 12.0122C20.6763 12.1103 20.6696 12.1637 20.5983 12.2719C20.4321 12.5243 19.5181 13.4243 19.4281 13.4243C19.379 13.4243 19.2352 13.3456 19.1086 13.2495C18.2018 12.5608 17.1732 12.2997 16.1836 12.5072C15.5246 12.6453 14.973 12.9522 14.4513 13.4711C13.8027 14.1162 13.4741 14.8173 13.3813 15.7541C13.3172 16.401 13.5274 17.282 13.8902 17.8874C14.1217 18.2736 14.6705 18.8229 15.0589 19.0571C15.4079 19.2675 16.0952 19.5153 16.3237 19.5133C16.4049 19.5125 16.9778 19.2605 17.5967 18.9533L18.7219 18.3947V18.1348V17.8749L17.8481 17.8606C16.7949 17.8435 16.8689 17.8972 16.5421 16.9121C16.3551 16.3486 16.3312 16.2311 16.3892 16.1615C16.4499 16.0888 16.7014 16.079 18.5152 16.079C20.3156 16.079 20.5826 16.0892 20.6546 16.1608C20.7183 16.2242 20.7368 16.3589 20.7368 16.758V17.2734L21.3334 16.9151C22.036 16.493 23.2489 15.7131 23.2489 15.6834C23.2489 15.6719 22.7897 15.6626 22.2284 15.6626H21.2078L21.2076 15.9099L21.2075 16.1571L21.1072 15.9936C21.0521 15.9037 20.9815 15.8145 20.9504 15.7953C20.9119 15.7717 20.8938 15.2701 20.8938 14.2278C20.8938 12.7946 20.9006 12.6825 20.9985 12.5009C21.0561 12.3941 21.1032 12.2234 21.1032 12.1217C21.1032 12.0199 21.0561 11.8448 20.9985 11.7325C20.9187 11.577 20.8938 11.4255 20.8938 11.0969V10.6654H20.2275C19.6721 10.6654 19.5176 10.6474 19.2986 10.5572L19.0359 10.449L19.0521 9.82845L19.0682 9.20786H18.5418H18.0154V8.50794V7.80802L17.492 7.69064C16.9812 7.57606 16.9686 7.56971 16.9686 7.42693C16.9686 7.28404 16.9739 7.28144 17.1911 7.31538C17.3134 7.33448 17.6019 7.4008 17.8322 7.46269L18.2509 7.57523L18.2655 8.26141L18.2801 8.94759H18.8019H19.3237V9.67635V10.4051H20.2658H21.2078V11.3161V12.227H22.4054C23.5004 12.227 23.6055 12.2348 23.6312 12.3181C23.6466 12.3682 23.7305 12.5782 23.8174 12.7847C23.9045 12.9912 23.999 13.2444 24.0276 13.3473C24.0795 13.5343 24.0794 13.5345 23.9201 13.5184C23.7731 13.5036 23.7496 13.4719 23.6172 13.1098C23.3646 12.419 23.5113 12.4873 22.2789 12.4873H21.2078V12.8777V13.2681H21.9144H22.6209V13.7886V14.3092H22.9026C23.1506 14.3092 23.1882 14.3232 23.2159 14.4263C23.2333 14.4908 23.2478 14.561 23.2482 14.5825C23.2486 14.6039 23.0487 14.6215 22.8041 14.6215H22.3592V14.0749V13.5284H21.7835H21.2078V14.4393V15.3503L22.477 15.3494L23.7461 15.3485L24.2564 14.9756C24.8549 14.5381 24.8389 14.5951 24.6108 13.7152C23.807 10.6145 21.5322 8.17745 18.5125 7.18222C17.4281 6.82482 16.9864 6.75381 15.7126 6.73226C14.9165 6.71878 14.4562 6.73445 14.1387 6.78583ZM15.1369 8.71335C15.1369 9.61118 15.117 10.2489 15.0889 10.2489C15.0624 10.2489 15.0035 10.2632 14.958 10.2805C14.8836 10.3089 14.8752 10.1526 14.8752 8.74494V7.17774H15.0061H15.1369V8.71335ZM16.1836 7.33391C16.1836 7.46576 16.1632 7.49007 16.0528 7.49007C15.9423 7.49007 15.9219 7.46576 15.9219 7.33391C15.9219 7.20205 15.9423 7.17774 16.0528 7.17774C16.1632 7.17774 16.1836 7.20205 16.1836 7.33391ZM14.0902 7.43193C14.0902 7.55071 14.0629 7.58726 13.9593 7.60693C13.8452 7.62864 13.8285 7.61339 13.8285 7.48721C13.8285 7.40767 13.858 7.33078 13.8939 7.31631C14.0404 7.25754 14.0902 7.28695 14.0902 7.43193ZM13.0435 7.68876C13.0435 7.82134 13.0151 7.84435 12.7485 7.92795C12.5862 7.97881 12.3506 8.06423 12.2251 8.11779L11.9968 8.21514V9.3101V10.4051H12.3893H12.7818V9.67635V8.94759H13.3051H13.8285V8.66738C13.8285 8.40977 13.8391 8.38514 13.9593 8.36224L14.0902 8.33736V8.77071V9.20411L13.5799 9.219L13.0696 9.23389L13.0548 9.8195L13.04 10.4051L13.7875 10.4094L14.535 10.4138L14.2734 10.5364C14.0138 10.658 13.9962 10.659 12.0883 10.6622L10.165 10.6654V11.7065V12.7476H10.0378C9.94572 12.7476 9.906 12.7152 9.89391 12.6304C9.87769 12.5171 9.85864 12.5133 9.30147 12.5133C8.74431 12.5133 8.72526 12.5171 8.70903 12.6304C8.69694 12.7152 8.65722 12.7476 8.56511 12.7476C8.44741 12.7476 8.43793 12.7282 8.43793 12.4873V12.227H9.17063H9.90333V11.3161V10.4051H10.8183H11.7331L11.7472 9.19485L11.7612 7.98459L12.3108 7.76429C12.974 7.4984 13.0435 7.49122 13.0435 7.68876ZM25.9442 7.83863C25.1768 7.90718 23.0186 8.27443 22.9434 8.34923C22.9239 8.36864 23.3335 8.85296 24.0155 9.61675L24.2179 9.84345L24.61 9.78499C25.2512 9.68937 26.5933 9.57256 27.0526 9.5724C27.9839 9.57209 28.7358 9.76875 28.93 10.0635C28.9991 10.1684 29.0137 10.2701 28.9927 10.5003C28.8931 11.5935 27.1423 13.5394 24.5281 15.4624C21.2604 17.8662 16.5717 20.2952 12.2455 21.8256C8.50791 23.1476 4.87749 23.7215 3.49818 23.2082C3.11325 23.065 2.99503 22.9114 2.99503 22.5547C2.99503 21.9295 3.54795 21.0505 4.63831 19.9421L5.37002 19.1984L5.22358 18.2243C5.14309 17.6886 5.06516 17.1865 5.05041 17.1086L5.02366 16.967L4.63648 17.2855C3.03737 18.6012 1.84684 19.9436 1.29778 21.0502C0.846127 21.9605 0.749725 22.5666 0.952682 23.2202C1.25267 24.1863 2.07743 24.7839 3.50206 25.0676C4.12077 25.1908 5.73846 25.1898 6.65852 25.0658C13.7366 24.1114 23.993 19.1472 28.8242 14.3375C30.0752 13.0921 30.8059 11.9871 31.0581 10.9598C31.1573 10.5554 31.1643 10.4526 31.1152 10.1141C30.9404 8.90751 29.9474 8.13435 28.247 7.881C27.7699 7.80989 26.5224 7.78694 25.9442 7.83863ZM20.3966 8.60596C21.4278 9.2721 22.3771 10.2318 23.0644 11.303L23.1563 11.4462L22.9802 11.4453C22.8276 11.4444 22.7818 11.4105 22.6376 11.1911C21.9634 10.1652 20.8218 9.14696 19.5723 8.45698C19.2614 8.28525 19.2191 8.24371 19.2191 8.10957V7.95726L19.5985 8.14637C19.8072 8.25038 20.1663 8.45719 20.3966 8.60596ZM16.1836 8.58321V8.94759H16.707H17.2303V9.48693V10.0263L17.0995 10.0014C16.974 9.97754 16.9686 9.96083 16.9686 9.59218V9.20786H16.4453H15.9219V8.71335C15.9219 8.22055 15.9224 8.21883 16.0528 8.21883C16.1799 8.21883 16.1836 8.22924 16.1836 8.58321ZM10.8373 8.84296C9.68206 9.59213 8.63676 10.7292 7.95519 11.9783C7.7101 12.4274 7.6629 12.4845 7.53514 12.4858C7.45601 12.4866 7.39122 12.4751 7.39122 12.4601C7.39122 12.4452 7.48825 12.2402 7.60684 12.0046C8.27574 10.6758 9.32068 9.50619 10.6099 8.64318L10.9239 8.43298L10.9412 8.59867C10.9545 8.72589 10.9304 8.78263 10.8373 8.84296ZM12.6771 11.5763C12.5584 11.702 12.5313 11.7065 11.883 11.7065H11.2117V12.227V12.7476H11.0809H10.95V12.0969V11.4462H11.875H12.8001L12.6771 11.5763ZM7.70523 13.3982C7.70523 13.5147 7.68393 13.5284 7.5017 13.5284H7.29817L7.21276 13.8537C7.16576 14.0327 7.10924 14.2727 7.0871 14.3873C7.05324 14.5628 7.02466 14.5981 6.90508 14.6119C6.79679 14.6245 6.76319 14.6061 6.76325 14.5339C6.76335 14.4242 7.01231 13.3825 7.05481 13.3141C7.07051 13.2888 7.22328 13.2681 7.39431 13.2681C7.69105 13.2681 7.70523 13.274 7.70523 13.3982ZM20.1611 14.5434V15.6105H20.0041H19.8471V14.674C19.8471 13.7862 19.8531 13.7306 19.9612 13.6069C20.024 13.535 20.0946 13.4763 20.1182 13.4763C20.1418 13.4763 20.1611 13.9565 20.1611 14.5434ZM24.2956 14.4654C24.2956 14.5954 24.2746 14.6215 24.1704 14.6215C24.0492 14.6215 23.9816 14.536 23.9816 14.383C23.9816 14.3357 24.038 14.3092 24.1386 14.3092C24.2782 14.3092 24.2956 14.3265 24.2956 14.4654ZM8.60802 15.3707C8.65842 15.4087 8.69961 15.4899 8.69961 15.5512C8.69961 15.6572 8.67554 15.6626 8.20242 15.6626H7.70523V15.5087V15.3549L8.08467 15.3369C8.29338 15.327 8.47588 15.315 8.49027 15.3102C8.50466 15.3055 8.55762 15.3326 8.60802 15.3707ZM6.95197 15.4326C6.93449 15.4779 6.9202 15.5482 6.9202 15.5888C6.9202 15.6328 6.86739 15.6626 6.78936 15.6626C6.67888 15.6626 6.65852 15.6383 6.65852 15.5064C6.65852 15.3664 6.67532 15.3503 6.82113 15.3503C6.94789 15.3503 6.97672 15.3684 6.95197 15.4326ZM10.165 15.942V16.4297L9.77914 16.4543C9.49621 16.4724 9.35093 16.509 9.23459 16.5914C9.08313 16.6986 9.02163 16.7037 7.86727 16.7037H6.65852V16.5475V16.3914H8.28093H9.90333V15.9229C9.90333 15.4579 9.90433 15.4544 10.0342 15.4544C10.1644 15.4544 10.165 15.4566 10.165 15.942ZM7.068 17.6055C7.08338 17.7392 7.07156 17.7509 6.93716 17.7356C6.81893 17.7221 6.78596 17.6893 6.7724 17.5717C6.75702 17.4381 6.76885 17.4263 6.90324 17.4416C7.02147 17.4551 7.05444 17.4879 7.068 17.6055ZM8.69961 17.953V18.4735H9.0545C9.40075 18.4735 9.4108 18.4773 9.46863 18.6297L9.52787 18.7859H8.9829H8.43793V18.2653V17.7448H8.15009C7.93651 17.7448 7.86224 17.7257 7.86224 17.671C7.86224 17.6304 7.84795 17.5601 7.83047 17.5148C7.803 17.4436 7.85989 17.4324 8.24916 17.4324H8.69961V17.953ZM25.0132 18.1195C24.9222 18.2021 24.8404 18.385 24.7495 18.709C23.9451 21.5771 21.5681 24.0491 18.6464 25.0557C18.3459 25.1593 17.8042 25.3067 17.4427 25.3832C16.8391 25.5111 16.6852 25.5226 15.5556 25.5247C14.4736 25.5266 14.2542 25.5124 13.7311 25.4071C13.0206 25.264 12.4602 25.094 11.7841 24.8165C11.3449 24.6363 11.2648 24.6183 11.1299 24.67L10.9762 24.7288L11.1806 24.8339C11.5858 25.0423 12.4519 25.3581 13.0168 25.5036C13.8709 25.7234 14.5995 25.8132 15.5294 25.8132C16.4593 25.8132 17.1881 25.7234 18.0415 25.5036C21.2255 24.6838 23.7889 22.3147 24.8598 19.2023C25.084 18.5506 25.2121 18.0664 25.1711 18.0256C25.1568 18.0113 25.0857 18.0536 25.0132 18.1195ZM23.8162 18.8812C23.423 19.1294 22.9932 19.3962 22.8611 19.4743C22.7017 19.5684 22.6209 19.6516 22.6209 19.7215C22.6209 19.8059 22.5867 19.8269 22.4501 19.8269C22.3313 19.8269 21.9772 19.9931 21.2857 20.3734C20.7391 20.674 19.8386 21.1451 19.2845 21.4202L18.277 21.9206V22.5135V23.1064H17.7564H17.2358L17.22 23.3797C17.2062 23.6177 17.189 23.6551 17.0864 23.6696C16.9721 23.6857 16.9686 23.673 16.9686 23.2401V22.794H17.492H18.0154V22.4297C18.0154 22.2293 18.0049 22.0653 17.9921 22.0653C17.9793 22.0653 17.5731 22.2405 17.0893 22.4548L16.2098 22.8443L16.1955 23.8188C16.1811 24.797 16.1662 24.8732 15.9873 24.8754C15.9374 24.876 15.9219 24.65 15.9219 23.9165V22.9568L15.5294 23.1198L15.1369 23.2827V23.5645C15.1369 23.8 15.1233 23.8411 15.0541 23.8147C15.0086 23.7973 14.9497 23.7831 14.9233 23.7831C14.8968 23.7831 14.8752 23.6934 14.8752 23.5838V23.3845L13.9577 23.7253C13.294 23.9718 13.0443 24.0873 13.055 24.1426C13.0683 24.2111 13.2595 24.2726 13.9463 24.429C14.0623 24.4554 14.0902 24.4908 14.0902 24.6118V24.7618L13.6475 24.6656C12.8443 24.491 12.7818 24.4639 12.7818 24.2898C12.7818 24.1886 12.7595 24.1447 12.7164 24.1608C12.6804 24.1744 12.4449 24.252 12.193 24.3333C11.9412 24.4146 11.7351 24.4967 11.7351 24.5156C11.7351 24.5619 12.4921 24.8412 13.045 24.9991C14.1775 25.3223 15.8438 25.4168 16.9948 25.2231C19.0345 24.8797 20.7713 23.9843 22.2022 22.5384C22.9232 21.8098 23.3909 21.1712 23.8447 20.2954C24.1708 19.6661 24.5766 18.6235 24.5461 18.4935C24.5373 18.4561 24.237 18.6156 23.8162 18.8812ZM11.2117 19.7228V20.2954H11.8561H12.5005L12.651 20.4516L12.8014 20.6078H11.8757H10.95V19.879V19.1502H11.0809H11.2117V19.7228ZM23.4612 20.0245C22.8171 21.2716 21.8285 22.4173 20.7028 23.2211C20.1546 23.6125 20.1088 23.6285 20.1088 23.4286C20.1088 23.2903 20.1612 23.2349 20.5405 22.9725C21.1889 22.524 22.2107 21.4774 22.6556 20.8065C22.8583 20.5007 23.1042 20.0855 23.202 19.8838C23.3685 19.5405 23.3907 19.5172 23.5522 19.5159L23.7245 19.5146L23.4612 20.0245ZM21.2078 21.1023V21.6488L20.2789 21.6458L19.3499 21.6428L19.7416 21.4897C20.0477 21.37 20.2163 21.3365 20.5135 21.3365H20.8938V21.1364C20.8938 21.0032 20.9284 20.9051 20.9971 20.8432C21.054 20.792 21.1145 20.7065 21.1315 20.6529C21.1916 20.4649 21.2078 20.5608 21.2078 21.1023ZM19.3237 22.8413V24.0336L18.9443 24.1894C18.5877 24.3358 18.0939 24.5118 18.0397 24.5118C18.0263 24.5118 18.0154 24.4431 18.0154 24.3592C18.0154 24.2461 18.0459 24.1973 18.1331 24.1709C18.1979 24.1514 18.4334 24.0661 18.6565 23.9815L19.0621 23.8276V22.7686C19.0621 21.9701 19.0781 21.7031 19.1275 21.6833C19.3213 21.6055 19.3237 21.6197 19.3237 22.8413ZM17.2303 24.5578C17.2303 24.6766 17.203 24.7131 17.0995 24.7328C16.9853 24.7545 16.9686 24.7393 16.9686 24.6131C16.9686 24.5335 16.9981 24.4567 17.0341 24.4422C17.1805 24.3834 17.2303 24.4128 17.2303 24.5578ZM15.1369 24.7201C15.1369 24.8059 15.1153 24.8762 15.0889 24.8762C14.9606 24.8762 14.8752 24.8012 14.8752 24.6885C14.8752 24.5903 14.903 24.5639 15.0061 24.5639C15.1165 24.5639 15.1369 24.5882 15.1369 24.7201Z" fill="#1A203F"/>
<path d="M132.148 10.592H130.804V9.8H134.464V10.592H133.12V14H132.148V10.592ZM138.809 14L138.803 11.48L137.567 13.556H137.129L135.899 11.534V14H134.987V9.8H135.791L137.363 12.41L138.911 9.8H139.709L139.721 14H138.809Z" fill="#1A203F"/>
</svg>
