<svg width="17" height="17" viewBox="0 0 17 17" fill="none" xmlns="http://www.w3.org/2000/svg">
<path d="M8.79948 15.1667C12.4814 15.1667 15.4661 12.1819 15.4661 8.50004C15.4661 4.81814 12.4814 1.83337 8.79948 1.83337C5.11758 1.83337 2.13281 4.81814 2.13281 8.50004C2.13281 12.1819 5.11758 15.1667 8.79948 15.1667Z" stroke="#8E8EA9" stroke-width="1.5" stroke-linecap="round" stroke-linejoin="round"/>
<path d="M12.1354 11.5H10.0688L11.1488 10.3066C11.6821 9.71327 11.9754 8.95998 11.9754 8.18665C11.9754 7.38665 11.6421 6.61997 11.0487 6.0533C10.4554 5.48664 9.64875 5.16663 8.80208 5.16663C7.96208 5.16663 7.15542 5.48664 6.55542 6.0533C5.96209 6.61997 5.62874 7.38665 5.62874 8.18665C5.62874 8.96665 5.92207 9.71993 6.4554 10.3066L7.5354 11.5H5.46875" stroke="#8E8EA9" stroke-width="1.5" stroke-linecap="round" stroke-linejoin="round"/>
</svg>
