<svg width="915" height="654" viewBox="0 0 915 654" fill="none" xmlns="http://www.w3.org/2000/svg">
<g id="Icon Illustrations">
<g id="Oval 2 Copy 2" opacity="0.24" filter="url(#filter0_f_5346_64569)">
<ellipse cx="549.818" cy="271.546" rx="113.189" ry="111.753" fill="#FF7EFA" fill-opacity="0.98"/>
</g>
<path id="Path 33" d="M353.555 610.652L468.63 543.352V411.179L353.555 480.523V610.652Z" fill="url(#paint0_linear_5346_64569)"/>
<path id="Path 34" d="M353.617 611.673L243.621 549.501V413.084L353.617 481.665V611.673Z" fill="url(#paint1_linear_5346_64569)"/>
<path id="Path 34 Copy" opacity="0.4" d="M336.177 580.198L261.047 537.733V444.557L336.177 491.4V580.198Z" stroke="url(#paint2_linear_5346_64569)" stroke-width="2.56546"/>
<g id="Group 39">
<path id="Path 7 Copy" opacity="0.405357" d="M355.876 445.376L299.341 413.028L66 0H365.637L404.335 413.028L355.876 445.376Z" fill="url(#paint3_linear_5346_64569)"/>
<path id="Path 7" opacity="0.405357" d="M404.338 413.443L517.408 30.29H299.344L380.108 461.337L404.338 413.443Z" fill="url(#paint4_linear_5346_64569)"/>
<g id="Group 23">
<path id="Combined Shape" d="M461.971 253.833C475.495 245.014 485.017 244.053 490.822 248.141L499.985 252.928L497.837 256.016C504.843 276.933 486.759 324.627 448.804 347.3C440.813 352.073 434.253 354.47 429.021 354.959L427.032 357.818L420.424 353.596C400.383 343.341 419.342 281.635 461.971 253.833Z" fill="#D7911D"/>
<path id="Path 10" d="M473.01 258.347C417.513 294.689 399.204 388.288 458.171 352.918C517.138 317.549 528.508 222.005 473.01 258.347Z" fill="url(#paint5_linear_5346_64569)"/>
<path id="Path 10 Copy 2" opacity="0.4" d="M470.028 272.707C430.288 299.582 417.962 366.764 460.186 340.608C502.41 314.452 509.767 245.831 470.028 272.707Z" stroke="#D7911D" stroke-width="1.48464"/>
</g>
<g id="Group 23 Copy 8">
<path id="Combined Shape_2" d="M184.361 234.713C168.42 237.27 159.33 234.274 155.69 228.178L149.267 220.079L152.485 218.131C154.592 196.173 190.511 159.958 234.407 154.682C243.648 153.572 250.616 154.051 255.595 155.732L258.574 153.929L262.894 160.474C277.032 177.994 234.613 226.654 184.361 234.713Z" fill="#D7911D"/>
<path id="Path 10_2" d="M176.119 226.099C241.6 215.471 296.396 137.412 228.141 145.739C159.886 154.067 110.638 236.726 176.119 226.099Z" fill="url(#paint6_linear_5346_64569)"/>
<path id="Path 10 Copy 2_2" opacity="0.4" d="M184.663 214.188C231.899 205.8 270.484 149.439 221.272 156.16C172.06 162.881 137.428 222.576 184.663 214.188Z" stroke="#D7911D" stroke-width="1.48464"/>
</g>
<g id="Group 23 Copy 7">
<path id="Combined Shape_3" d="M428.912 122.178C428.866 111.139 431.939 105.541 436.577 104.065L442.912 101.044L443.918 103.496C458.972 108.335 480.273 137.967 479.173 168.087C478.942 174.428 477.851 179.004 476.139 182.063L477.07 184.333L472.046 186.193C458.315 192.89 429.059 156.974 428.912 122.178Z" fill="#D7911D"/>
<path id="Path 10_3" d="M435.316 118.727C435.595 164.088 483.968 212.86 485.591 166.006C487.214 119.153 435.037 73.3646 435.316 118.727Z" fill="url(#paint7_linear_5346_64569)"/>
<path id="Path 10 Copy 3" opacity="0.3" d="M440.87 123.996C441.087 159.263 478.695 197.182 479.957 160.755C481.219 124.327 440.653 88.7282 440.87 123.996Z" stroke="#D7911D" stroke-width="1.48464"/>
</g>
</g>
<path id="Path 35" d="M243.621 414.124L356.582 352.147L466.917 412.22L353.731 481.277L243.621 414.124Z" fill="url(#paint8_linear_5346_64569)"/>
<path id="Path 35_2" d="M299.555 415.588L356.139 384.516L411.409 414.633L354.711 449.254L299.555 415.588Z" fill="url(#paint9_linear_5346_64569)"/>
<g id="Oval 2" opacity="0.405357" filter="url(#filter1_f_5346_64569)">
<ellipse cx="457.679" cy="518.377" rx="72.3195" ry="71.4018" fill="#FFC37E" fill-opacity="0.98"/>
</g>
<g id="Oval 2 Copy" opacity="0.405357" filter="url(#filter2_f_5346_64569)">
<ellipse cx="222.683" cy="433.403" rx="68.7221" ry="67.85" fill="#FF7E95" fill-opacity="0.98"/>
</g>
<path id="Path 53" d="M357.398 413.082V309.841L402.177 275.287C404.066 273.829 405.172 271.579 405.172 269.193V203.637" stroke="url(#paint10_linear_5346_64569)" stroke-width="2.56546"/>
<path id="Path 54" d="M357.231 309.498V267.431C357.231 263.18 353.785 259.734 349.534 259.734H316.898V205.542" stroke="url(#paint11_linear_5346_64569)" stroke-width="2.56546"/>
<ellipse id="Oval 5" cx="317.866" cy="206.49" rx="8.67834" ry="8.56822" fill="url(#paint12_linear_5346_64569)"/>
<ellipse id="Oval 5_2" cx="404.655" cy="206.49" rx="8.67834" ry="8.56822" fill="url(#paint13_linear_5346_64569)"/>
<ellipse id="Oval 5_3" cx="358.378" cy="307.407" rx="8.67834" ry="8.56822" fill="url(#paint14_linear_5346_64569)"/>
<g id="Group 23 Copy 6">
<path id="Combined Shape_4" d="M236.636 279.038C243.086 266.5 249.89 261.752 256.052 262.491L265.06 262.363L264.763 265.666C279.088 278.984 285.933 323.661 266.934 357.236C262.934 364.304 258.994 368.924 255.239 371.502L254.964 374.56L248.135 374.055C228.524 374.503 216.304 318.564 236.636 279.038Z" fill="#D7911D"/>
<path id="Path 10_4" d="M245.963 278.451C219.557 330.023 246.014 410.483 275.469 358.21C304.924 305.936 272.369 226.879 245.963 278.451Z" fill="url(#paint15_linear_5346_64569)"/>
<path id="Path 10 Copy 4" opacity="0.4" d="M249.747 288.811C230.207 326.975 249.785 386.515 271.582 347.833C293.378 309.15 269.287 250.648 249.747 288.811Z" stroke="#D7911D" stroke-width="1.48464"/>
<path id="Combined Shape_5" opacity="0.2" fill-rule="evenodd" clip-rule="evenodd" d="M285.079 325.906C268.874 339.244 254.564 357.241 244.184 374.564C250.759 374.867 259.491 369.046 269.918 354.519C276.618 345.184 281.6 335.429 285.079 325.906Z" fill="black"/>
</g>
</g>
<defs>
<filter id="filter0_f_5346_64569" x="187.209" y="-89.6265" width="725.222" height="722.345" filterUnits="userSpaceOnUse" color-interpolation-filters="sRGB">
<feFlood flood-opacity="0" result="BackgroundImageFix"/>
<feBlend mode="normal" in="SourceGraphic" in2="BackgroundImageFix" result="shape"/>
<feGaussianBlur stdDeviation="41.57" result="effect1_foregroundBlur_5346_64569"/>
</filter>
<filter id="filter1_f_5346_64569" x="323.004" y="384.62" width="269.354" height="267.513" filterUnits="userSpaceOnUse" color-interpolation-filters="sRGB">
<feFlood flood-opacity="0" result="BackgroundImageFix"/>
<feBlend mode="normal" in="SourceGraphic" in2="BackgroundImageFix" result="shape"/>
<feGaussianBlur stdDeviation="10.3925" result="effect1_foregroundBlur_5346_64569"/>
</filter>
<filter id="filter2_f_5346_64569" x="2.52753" y="214.119" width="440.316" height="438.566" filterUnits="userSpaceOnUse" color-interpolation-filters="sRGB">
<feFlood flood-opacity="0" result="BackgroundImageFix"/>
<feBlend mode="normal" in="SourceGraphic" in2="BackgroundImageFix" result="shape"/>
<feGaussianBlur stdDeviation="25.2389" result="effect1_foregroundBlur_5346_64569"/>
</filter>
<linearGradient id="paint0_linear_5346_64569" x1="421.469" y1="179.181" x2="60.2268" y2="305.71" gradientUnits="userSpaceOnUse">
<stop stop-color="#EDB64F"/>
<stop offset="1" stop-color="#DD26BC"/>
</linearGradient>
<linearGradient id="paint1_linear_5346_64569" x1="409.595" y1="513.226" x2="191.961" y2="381.832" gradientUnits="userSpaceOnUse">
<stop stop-color="#6B1B98"/>
<stop offset="1" stop-color="#DE0F62"/>
</linearGradient>
<linearGradient id="paint2_linear_5346_64569" x1="252.449" y1="410.646" x2="159.753" y2="536.835" gradientUnits="userSpaceOnUse">
<stop stop-color="#FFD599"/>
<stop offset="0.482372" stop-color="#D178A0"/>
<stop offset="1" stop-color="#FFCE08"/>
</linearGradient>
<linearGradient id="paint3_linear_5346_64569" x1="151.078" y1="47.503" x2="151.078" y2="631.048" gradientUnits="userSpaceOnUse">
<stop stop-color="#FDF27D" stop-opacity="0.01"/>
<stop offset="0.4936" stop-color="#FCF17B" stop-opacity="0.240234"/>
<stop offset="1" stop-color="#FBF079"/>
</linearGradient>
<linearGradient id="paint4_linear_5346_64569" x1="257.496" y1="78.5313" x2="257.496" y2="496.915" gradientUnits="userSpaceOnUse">
<stop stop-color="#FDF27D" stop-opacity="0.01"/>
<stop offset="0.4936" stop-color="#FCF17B" stop-opacity="0.240234"/>
<stop offset="1" stop-color="#FBF079"/>
</linearGradient>
<linearGradient id="paint5_linear_5346_64569" x1="408.371" y1="230.783" x2="361.034" y2="369.604" gradientUnits="userSpaceOnUse">
<stop stop-color="#FFF585"/>
<stop offset="1" stop-color="#DCC613"/>
</linearGradient>
<linearGradient id="paint6_linear_5346_64569" x1="223.959" y1="277.571" x2="323.667" y2="170.005" gradientUnits="userSpaceOnUse">
<stop stop-color="#FFF585"/>
<stop offset="1" stop-color="#DCC613"/>
</linearGradient>
<linearGradient id="paint7_linear_5346_64569" x1="394.292" y1="142.608" x2="454.095" y2="228.893" gradientUnits="userSpaceOnUse">
<stop stop-color="#FFF585"/>
<stop offset="1" stop-color="#DCC613"/>
</linearGradient>
<linearGradient id="paint8_linear_5346_64569" x1="433.847" y1="265.846" x2="212.373" y2="517.039" gradientUnits="userSpaceOnUse">
<stop stop-color="#EDB64F"/>
<stop offset="0.977895" stop-color="#E64082"/>
</linearGradient>
<linearGradient id="paint9_linear_5346_64569" x1="389.188" y1="377.45" x2="252.916" y2="377.45" gradientUnits="userSpaceOnUse">
<stop stop-color="#FFD066"/>
<stop offset="1" stop-color="#CE1D64"/>
</linearGradient>
<linearGradient id="paint10_linear_5346_64569" x1="351.931" y1="151.275" x2="223.97" y2="223.011" gradientUnits="userSpaceOnUse">
<stop stop-color="#FFD599"/>
<stop offset="0.482372" stop-color="#D178A0"/>
<stop offset="1" stop-color="#FFE26F"/>
</linearGradient>
<linearGradient id="paint11_linear_5346_64569" x1="294.54" y1="191.644" x2="228.768" y2="392.889" gradientUnits="userSpaceOnUse">
<stop stop-color="#FFD599"/>
<stop offset="1" stop-color="#A014A8"/>
</linearGradient>
<linearGradient id="paint12_linear_5346_64569" x1="968.875" y1="625.699" x2="951.906" y2="578.257" gradientUnits="userSpaceOnUse">
<stop stop-color="#FFFCF5"/>
<stop offset="1" stop-color="#FFEFAD"/>
</linearGradient>
<linearGradient id="paint13_linear_5346_64569" x1="1229.24" y1="625.699" x2="1212.27" y2="578.257" gradientUnits="userSpaceOnUse">
<stop stop-color="#FFFCF5"/>
<stop offset="1" stop-color="#FFEFAD"/>
</linearGradient>
<linearGradient id="paint14_linear_5346_64569" x1="1090.41" y1="928.451" x2="1073.44" y2="881.01" gradientUnits="userSpaceOnUse">
<stop stop-color="#FFFCF5"/>
<stop offset="1" stop-color="#FFEFAD"/>
</linearGradient>
<linearGradient id="paint15_linear_5346_64569" x1="185.087" y1="284.181" x2="207.047" y2="412.335" gradientUnits="userSpaceOnUse">
<stop stop-color="#FFF585"/>
<stop offset="1" stop-color="#DCC613"/>
</linearGradient>
</defs>
</svg>
