<svg width="74" height="70" viewBox="0 0 74 70" fill="none" xmlns="http://www.w3.org/2000/svg">
<circle cx="37" cy="25" r="25" fill="white"/>
<g filter="url(#filter0_d_4949_49136)">
<path d="M37.2393 44.0108L16.1836 21.0582L29.462 22.9708L37.2393 44.0108Z" fill="url(#paint0_linear_4949_49136)"/>
<path d="M37.2373 44.0108L58.293 21.0582L45.0146 22.9708L37.2373 44.0108Z" fill="url(#paint1_linear_4949_49136)"/>
<path fill-rule="evenodd" clip-rule="evenodd" d="M37.2426 9.29773L35.3458 11.9534L31.1726 18.4029C30.6035 19.1617 29.8447 20.1101 29.0859 21.2483L29.3843 22.9639H45.4799L44.6406 21.2483L43.1231 18.2132C42.3643 16.8854 42.1746 16.506 41.7952 15.7472C40.8468 13.8503 40.088 12.9019 37.8117 9.29773H37.2426Z" fill="url(#paint2_linear_4949_49136)"/>
<path d="M45.3945 22.9554L46.9121 9.8667L57.3451 19.9203L58.2935 21.0585L45.3945 22.9554Z" fill="url(#paint3_linear_4949_49136)"/>
<path d="M29.4688 22.9554L27.5718 9.8667L17.1526 19.8763L16.1904 21.031L29.4688 22.9554Z" fill="url(#paint4_linear_4949_49136)"/>
<path d="M29.2697 22.9555L27.5625 9.8668L28.1637 9.29773H37.2744L29.2697 22.9555Z" fill="url(#paint5_linear_4949_49136)"/>
<path d="M45.4809 22.9639L37.2812 9.29773H46.392L46.9177 9.8668L45.4809 22.9639Z" fill="url(#paint6_linear_4949_49136)"/>
<path d="M37.2461 44.0115L29.4688 22.9558H45.5644L37.2461 44.0115Z" fill="url(#paint7_linear_4949_49136)"/>
</g>
<path d="M30.1733 19.5032C29.9113 21.9352 27.815 22.908 25.7188 23.3944C27.815 23.6376 30.086 25.9885 30.1733 27.2856C30.4354 25.0968 32.9684 23.6376 34.3659 23.3944C31.4835 22.908 30.2607 20.8002 30.1733 19.5032Z" fill="white"/>
<path d="M46.3325 10.4316C46.2539 11.2423 45.625 11.5666 44.9961 11.7287C45.625 11.8098 46.3063 12.5934 46.3325 13.0258C46.4111 12.2962 47.171 11.8098 47.5902 11.7287C46.7255 11.5666 46.3587 10.864 46.3325 10.4316Z" fill="white"/>
<path d="M18.0578 4.76196C17.8417 6.92375 16.1122 7.78846 14.3828 8.22081C16.1122 8.43699 17.9858 10.5267 18.0578 11.6797C18.274 9.73406 20.3637 8.43699 21.5167 8.22081C19.1387 7.78846 18.1299 5.91491 18.0578 4.76196Z" fill="url(#paint8_linear_4949_49136)"/>
<path d="M46.9623 39.9139C46.7134 42.4811 44.7219 43.5079 42.7305 44.0213C44.7219 44.278 46.8793 46.7596 46.9623 48.1287C47.2113 45.8183 49.6176 44.278 50.9452 44.0213C48.207 43.5079 47.0453 41.2831 46.9623 39.9139Z" fill="url(#paint9_linear_4949_49136)"/>
<path d="M56.5395 29.3649C56.4609 30.1755 55.832 30.4998 55.2031 30.6619C55.832 30.743 56.5133 31.5267 56.5395 31.959C56.6181 31.2294 57.378 30.743 57.7973 30.6619C56.9326 30.4998 56.5657 29.7972 56.5395 29.3649Z" fill="url(#paint10_linear_4949_49136)"/>
<rect x="41" y="29" width="18" height="18" rx="9" fill="white"/>
<path d="M50 28C44.49 28 40 32.49 40 38C40 43.51 44.49 48 50 48C55.51 48 60 43.51 60 38C60 32.49 55.51 28 50 28ZM54.78 35.7L49.11 41.37C48.97 41.51 48.78 41.59 48.58 41.59C48.38 41.59 48.19 41.51 48.05 41.37L45.22 38.54C44.93 38.25 44.93 37.77 45.22 37.48C45.51 37.19 45.99 37.19 46.28 37.48L48.58 39.78L53.72 34.64C54.01 34.35 54.49 34.35 54.78 34.64C55.07 34.93 55.07 35.4 54.78 35.7Z" fill="#27AE60"/>
<defs>
<filter id="filter0_d_4949_49136" x="0.626577" y="4.11206" width="73.2234" height="65.8278" filterUnits="userSpaceOnUse" color-interpolation-filters="sRGB">
<feFlood flood-opacity="0" result="BackgroundImageFix"/>
<feColorMatrix in="SourceAlpha" type="matrix" values="0 0 0 0 0 0 0 0 0 0 0 0 0 0 0 0 0 0 127 0" result="hardAlpha"/>
<feOffset dy="10.3713"/>
<feGaussianBlur stdDeviation="7.77851"/>
<feColorMatrix type="matrix" values="0 0 0 0 0 0 0 0 0 0 0 0 0 0 0 0 0 0 0.15 0"/>
<feBlend mode="normal" in2="BackgroundImageFix" result="effect1_dropShadow_4949_49136"/>
<feBlend mode="normal" in="SourceGraphic" in2="effect1_dropShadow_4949_49136" result="shape"/>
</filter>
<linearGradient id="paint0_linear_4949_49136" x1="16.1836" y1="21.0582" x2="37.6189" y2="44.216" gradientUnits="userSpaceOnUse">
<stop offset="0.239583" stop-color="#A99AFF"/>
<stop offset="1" stop-color="#CABFFF"/>
</linearGradient>
<linearGradient id="paint1_linear_4949_49136" x1="44.2558" y1="25.2314" x2="50.6287" y2="34.5785" gradientUnits="userSpaceOnUse">
<stop offset="0.156278" stop-color="#9987FF"/>
<stop offset="0.916474" stop-color="#CCC3FF"/>
</linearGradient>
<linearGradient id="paint2_linear_4949_49136" x1="37.4323" y1="9.29773" x2="37.4323" y2="22.9639" gradientUnits="userSpaceOnUse">
<stop stop-color="#CDC4FF"/>
<stop offset="1" stop-color="#E5E0FF"/>
</linearGradient>
<linearGradient id="paint3_linear_4949_49136" x1="46.5327" y1="14.609" x2="57.3451" y2="19.7306" gradientUnits="userSpaceOnUse">
<stop offset="0.232812" stop-color="#B3A5FF"/>
<stop offset="1" stop-color="#D4CCFF"/>
</linearGradient>
<linearGradient id="paint4_linear_4949_49136" x1="28.1217" y1="14.488" x2="17.1526" y2="19.6839" gradientUnits="userSpaceOnUse">
<stop offset="0.232812" stop-color="#EFECFF"/>
<stop offset="0.657637" stop-color="#D4CCFF"/>
</linearGradient>
<linearGradient id="paint5_linear_4949_49136" x1="27.5625" y1="9.29773" x2="35.3398" y2="15.5575" gradientUnits="userSpaceOnUse">
<stop offset="0.296818" stop-color="#E4DFFF"/>
<stop offset="1" stop-color="#C1B6FF"/>
</linearGradient>
<linearGradient id="paint6_linear_4949_49136" x1="37.4332" y1="9.29773" x2="48.0558" y2="16.1266" gradientUnits="userSpaceOnUse">
<stop offset="0.327731" stop-color="#B5A7FF"/>
<stop offset="0.931209" stop-color="#D4CDFF"/>
</linearGradient>
<linearGradient id="paint7_linear_4949_49136" x1="29.6127" y1="22.9473" x2="44.788" y2="37.3638" gradientUnits="userSpaceOnUse">
<stop offset="0.142135" stop-color="#E7E2FF"/>
<stop offset="0.622579" stop-color="#CAC0FF"/>
</linearGradient>
<linearGradient id="paint8_linear_4949_49136" x1="19.7873" y1="9.73406" x2="16.5446" y2="6.27521" gradientUnits="userSpaceOnUse">
<stop offset="0.234375" stop-color="#C9BFFF"/>
<stop offset="0.822917" stop-color="#D9D2FF"/>
</linearGradient>
<linearGradient id="paint9_linear_4949_49136" x1="48.9538" y1="45.8183" x2="45.0973" y2="41.8294" gradientUnits="userSpaceOnUse">
<stop offset="0.234375" stop-color="#C9BFFF"/>
<stop offset="0.822917" stop-color="#D9D2FF"/>
</linearGradient>
<linearGradient id="paint10_linear_4949_49136" x1="57.1684" y1="31.2294" x2="55.9505" y2="29.9697" gradientUnits="userSpaceOnUse">
<stop offset="0.234375" stop-color="#C9BFFF"/>
<stop offset="0.822917" stop-color="#D9D2FF"/>
</linearGradient>
</defs>
</svg>
