<svg width="18" height="18" viewBox="0 0 18 18" fill="none" xmlns="http://www.w3.org/2000/svg">
<path fill-rule="evenodd" clip-rule="evenodd" d="M0.00206945 1.05062C-0.000940875 2.09908 -0.000717871 2.84006 0.00307291 4.19318L0.00507983 4.90909H0.803746H1.60237L1.61207 3.26343L1.62174 1.61777L3.21981 1.60966C4.09875 1.6052 4.83881 1.60103 4.86434 1.60036C4.90002 1.59943 4.9108 1.41382 4.9108 0.799587V0H2.45794H0.00507983L0.00206945 1.05062ZM13.087 0.799587C13.087 1.41382 13.0978 1.59943 13.1335 1.60036C13.159 1.60103 13.899 1.6052 14.778 1.60966L16.3761 1.61777L16.3857 3.26343L16.3954 4.90909H17.194H17.9927L17.9959 4.1188C17.9977 3.68416 17.9984 3.21136 17.9975 3.06818C17.9967 2.925 17.9952 2.1761 17.9943 1.40393L17.9927 0H15.5399H13.087V0.799587ZM0.00273847 13.7882C-0.000346184 14.7098 -0.000420594 16.2701 0.0026269 17.2283L0.00507983 18H2.45794H4.9108V17.2004C4.9108 16.5862 4.90002 16.4006 4.86434 16.3996C4.83881 16.399 4.09875 16.3948 3.21981 16.3903L1.62174 16.3822L1.61207 14.7366L1.60237 13.0909H0.803746H0.00507983L0.00273847 13.7882ZM16.3857 14.7366L16.3761 16.3822L14.778 16.3903C13.899 16.3948 13.159 16.399 13.1335 16.3996C13.0978 16.4006 13.087 16.5862 13.087 17.2004V18H15.5399H17.9927L17.9953 17.3027C17.9968 16.9192 17.9987 16.5384 17.9997 16.4566C18.0006 16.3748 17.9994 15.5841 17.9971 14.6994L17.9927 13.0909H17.194H16.3954L16.3857 14.7366Z" fill="#8E8EA9"/>
</svg>
