<svg width="17" height="17" viewBox="0 0 17 17" fill="none" xmlns="http://www.w3.org/2000/svg">
<path d="M15.4674 6.16671C15.4674 8.56004 13.5274 10.5 11.1341 10.5C11.0208 10.5 10.9008 10.4934 10.7875 10.4867C10.6208 8.37338 8.92744 6.68003 6.81411 6.51337C6.80744 6.40003 6.80078 6.28004 6.80078 6.16671C6.80078 3.77337 8.74078 1.83337 11.1341 1.83337C13.5274 1.83337 15.4674 3.77337 15.4674 6.16671Z" stroke="#8E8EA9" stroke-width="1.5" stroke-linecap="round" stroke-linejoin="round"/>
<path d="M10.7995 10.8333C10.7995 13.2267 8.85948 15.1667 6.46615 15.1667C4.07281 15.1667 2.13281 13.2267 2.13281 10.8333C2.13281 8.44 4.07281 6.5 6.46615 6.5C6.57948 6.5 6.69947 6.50666 6.81281 6.51333C8.92614 6.67999 10.6195 8.37334 10.7862 10.4867C10.7928 10.6 10.7995 10.72 10.7995 10.8333Z" stroke="#8E8EA9" stroke-width="1.5" stroke-linecap="round" stroke-linejoin="round"/>
<path d="M4.52614 1.83337H2.79948C2.43281 1.83337 2.13281 2.13337 2.13281 2.50004V4.2267C2.13281 4.82004 2.85281 5.12003 3.27281 4.70003L4.99947 2.97337C5.4128 2.55337 5.11948 1.83337 4.52614 1.83337Z" stroke="#8E8EA9" stroke-width="1.5" stroke-linecap="round" stroke-linejoin="round"/>
<path d="M13.0726 15.1667H14.7993C15.166 15.1667 15.466 14.8667 15.466 14.5V12.7733C15.466 12.18 14.746 11.88 14.326 12.3L12.5993 14.0267C12.186 14.4467 12.4793 15.1667 13.0726 15.1667Z" stroke="#8E8EA9" stroke-width="1.5" stroke-linecap="round" stroke-linejoin="round"/>
</svg>
