<svg width="21" height="21" viewBox="0 0 21 21" fill="none" xmlns="http://www.w3.org/2000/svg">
<path d="M9.75407 17.5838C9.75426 17.998 10.0902 18.3336 10.5044 18.3334C10.9186 18.3332 11.2543 17.9973 11.2541 17.5831L9.75407 17.5838ZM11.2506 10.0831C11.2504 9.66885 10.9144 9.33322 10.5002 9.33342C10.086 9.33361 9.75037 9.66955 9.75057 10.0838L11.2506 10.0831ZM16.9517 14.185C16.6129 14.4232 16.5313 14.891 16.7696 15.2299C17.0079 15.5687 17.4757 15.6502 17.8145 15.412L16.9517 14.185ZM15.106 8.03112L15.106 8.78112L15.1066 8.78112L15.106 8.03112ZM14.1389 8.03112L13.4124 8.21753C13.4975 8.54921 13.7965 8.78112 14.1389 8.78112V8.03112ZM8.89382 3.45725L8.97963 2.71218L8.97963 2.71218L8.89382 3.45725ZM3.03118 14.1236C3.30568 14.4338 3.77967 14.4627 4.08987 14.1882C4.40006 13.9137 4.429 13.4397 4.1545 13.1295L3.03118 14.1236ZM12.6219 12.5454C12.9148 12.8383 13.3897 12.8383 13.6826 12.5454C13.9755 12.2525 13.9755 11.7776 13.6826 11.4847L12.6219 12.5454ZM10.5006 9.36346L11.0309 8.83312C10.738 8.54024 10.2632 8.54024 9.97028 8.83312L10.5006 9.36346ZM7.31862 11.4847C7.02572 11.7776 7.02572 12.2525 7.31861 12.5454C7.6115 12.8383 8.08637 12.8383 8.37927 12.5454L7.31862 11.4847ZM11.2541 17.5831L11.2506 10.0831L9.75057 10.0838L9.75407 17.5838L11.2541 17.5831ZM17.8145 15.412C19.4516 14.2608 20.1535 12.1814 19.549 10.2736L18.1191 10.7266C18.5259 12.0106 18.0535 13.4102 16.9517 14.185L17.8145 15.412ZM19.549 10.2736C18.9207 8.29044 17.0201 7.27965 15.1054 7.28112L15.1066 8.78112C16.54 8.78002 17.7361 9.51789 18.1191 10.7266L19.549 10.2736ZM15.106 7.28112H14.1389V8.78112H15.106V7.28112ZM14.8654 7.84472C14.1559 5.07994 11.8152 3.03878 8.97963 2.71218L8.808 4.20232C11.0263 4.45782 12.8574 6.05464 13.4124 8.21753L14.8654 7.84472ZM8.97963 2.71218C6.14398 2.38558 3.40058 3.84114 2.08117 6.37228L3.4113 7.06564C4.44348 5.08552 6.58965 3.94682 8.808 4.20232L8.97963 2.71218ZM2.08117 6.37228C0.761766 8.90341 1.13957 11.986 3.03118 14.1236L4.1545 13.1295C2.67469 11.4573 2.37913 9.04576 3.4113 7.06564L2.08117 6.37228ZM13.6826 11.4847L11.0309 8.83312L9.97028 9.89379L12.6219 12.5454L13.6826 11.4847ZM9.97028 8.83312L7.31862 11.4847L8.37927 12.5454L11.0309 9.89379L9.97028 8.83312Z" fill="#C0C0CF"/>
</svg>
