<svg width="24" height="25" viewBox="0 0 24 25" fill="none" xmlns="http://www.w3.org/2000/svg">
<path opacity="0.4" d="M21.0802 9.08003V15.92C21.0802 17.04 20.4802 18.08 19.5102 18.65L13.5702 22.08C12.6002 22.64 11.4002 22.64 10.4202 22.08L4.48016 18.65C3.51016 18.09 2.91016 17.05 2.91016 15.92V9.08003C2.91016 7.96003 3.51016 6.91999 4.48016 6.34999L10.4202 2.92C11.3902 2.36 12.5902 2.36 13.5702 2.92L19.5102 6.34999C20.4802 6.91999 21.0802 7.95003 21.0802 9.08003Z" fill="#292D32"/>
<path d="M12.0019 12.4998C13.2887 12.4998 14.3319 11.4566 14.3319 10.1698C14.3319 8.88298 13.2887 7.83984 12.0019 7.83984C10.7151 7.83984 9.67188 8.88298 9.67188 10.1698C9.67188 11.4566 10.7151 12.4998 12.0019 12.4998Z" fill="#292D32"/>
<path d="M14.6811 17.1584C15.4911 17.1584 15.9611 16.2584 15.5111 15.5884C14.8311 14.5784 13.5111 13.8984 12.0011 13.8984C10.4911 13.8984 9.17114 14.5784 8.49114 15.5884C8.04114 16.2584 8.51114 17.1584 9.32114 17.1584H14.6811Z" fill="#292D32"/>
</svg>
