<svg width="24" height="24" viewBox="0 0 24 24" fill="none" xmlns="http://www.w3.org/2000/svg">
<path d="M0 12C0 5.37258 5.37258 0 12 0C18.6274 0 24 5.37258 24 12C24 18.6274 18.6274 24 12 24C5.37258 24 0 18.6274 0 12Z" fill="white"/>
<path fill-rule="evenodd" clip-rule="evenodd" d="M10.8728 6.05258C8.53289 6.34828 6.56658 7.82895 5.74228 9.91602C5.49309 10.547 5.38289 11.0852 5.35769 11.7946C5.32114 12.8236 5.52128 13.729 5.98717 14.6423C6.27898 15.2143 6.81682 15.9309 6.95454 15.9311C7.07538 15.9313 7.06726 15.8926 6.90801 15.7085C6.36344 15.0789 5.89691 14.2025 5.70078 13.4406C5.28183 11.8131 5.58354 10.1431 6.54155 8.78716C7.51798 7.40509 8.92998 6.5393 10.7044 6.23469C11.1508 6.15805 12.2457 6.15805 12.692 6.23469C14.4493 6.53634 15.8854 7.41196 16.8507 8.77026C17.2384 9.31564 17.6044 10.1274 17.737 10.7356C17.7685 10.88 17.8022 10.9977 17.8119 10.9971C17.8216 10.9966 17.8581 10.9757 17.893 10.9507C17.9549 10.9065 17.9542 10.8964 17.8659 10.5636C17.0794 7.59837 14.059 5.64997 10.8728 6.05258ZM10.803 6.36642C9.38764 6.58405 8.10087 7.24255 7.1941 8.21329C5.23075 10.3152 5.15307 13.4128 7.00911 15.5902C7.14121 15.7452 7.26596 15.863 7.28907 15.8546C7.31198 15.8463 7.38488 15.8299 7.45104 15.8182C7.51721 15.8065 7.57135 15.7908 7.57135 15.7834C7.57135 15.776 7.47436 15.6626 7.35581 15.5313C7.15041 15.3039 6.7965 14.8438 6.7965 14.8042C6.7965 14.7939 6.84579 14.786 6.90599 14.7866C7.00457 14.7875 7.0329 14.8122 7.19002 15.0332C7.286 15.1683 7.46792 15.3815 7.59429 15.507L7.82401 15.7352L8.28834 15.6025L8.75271 15.4698L8.41468 15.4607L8.07668 15.4516V14.8964V14.3411L7.29672 14.3325L6.51675 14.324L6.40508 14.0768C6.34366 13.9408 6.27099 13.7582 6.24357 13.671L6.19375 13.5124H6.29384C6.36714 13.5124 6.40113 13.5316 6.42094 13.584C6.4358 13.6234 6.49004 13.7667 6.54145 13.9023L6.6349 14.149H7.35577H8.07668V14.0183C8.07668 13.9121 8.08672 13.8912 8.12997 13.9069C8.15928 13.9175 8.19718 13.9262 8.2142 13.9262C8.23198 13.9262 8.24512 14.2099 8.24512 14.5945V15.2629L8.82625 15.2627L9.40738 15.2625L9.90908 15.0867C10.185 14.99 10.4312 14.9001 10.4561 14.8869C10.4882 14.87 10.4361 14.8165 10.2788 14.7049C10.0015 14.5081 9.68767 14.1871 9.4906 13.8987L9.34001 13.6784L8.77639 13.667C8.22642 13.6559 8.21083 13.6537 8.13237 13.5761C8.01981 13.4647 7.74845 12.6978 7.79625 12.6261C7.826 12.5815 7.91241 12.5722 8.36977 12.5648L8.90828 12.5561L8.90519 12.1033C8.90347 11.8543 8.91411 11.5969 8.92887 11.5312L8.95565 11.4119H8.2113C7.42884 11.4119 7.30844 11.3931 7.25171 11.2619C7.16553 11.0627 6.96495 10.4642 6.96495 10.4063C6.96495 10.3679 6.98893 10.3279 7.01824 10.3173C7.04755 10.3066 7.59116 10.2979 8.22626 10.2979H9.38101L9.49962 10.1291C10.0434 9.35543 10.9132 8.81771 11.8795 8.65785C12.4368 8.56565 13.1001 8.61355 13.63 8.78426C14.1355 8.94712 14.8951 9.38404 14.982 9.56189C15.0113 9.62185 15.007 9.65453 14.9611 9.7207C14.8541 9.875 14.2658 10.4252 14.2078 10.4252C14.1762 10.4252 14.0837 10.3772 14.0022 10.3184C13.4185 9.89731 12.7564 9.7377 12.1193 9.86453C11.6951 9.94896 11.3401 10.1366 11.0042 10.4539C10.5867 10.8483 10.3752 11.277 10.3155 11.8497C10.2742 12.2453 10.4095 12.7839 10.6431 13.1541C10.7921 13.3902 11.1454 13.7261 11.3954 13.8692C11.62 13.9979 12.0624 14.1494 12.2095 14.1481C12.2618 14.1477 12.6306 13.9936 13.0289 13.8058L13.7532 13.4643V13.3053V13.1464L13.1908 13.1377C12.5128 13.1272 12.5605 13.1601 12.3501 12.5578C12.2297 12.2132 12.2143 12.1414 12.2517 12.0989C12.2908 12.0544 12.4526 12.0484 13.6202 12.0484C14.7791 12.0484 14.951 12.0546 14.9973 12.0984C15.0383 12.1371 15.0503 12.2195 15.0503 12.4636V12.7787L15.4343 12.5596C15.8866 12.3015 16.6673 11.8247 16.6673 11.8065C16.6673 11.7995 16.3717 11.7938 16.0104 11.7938H15.3535L15.3533 11.945L15.3532 12.0961L15.2887 11.9962C15.2532 11.9412 15.2078 11.8867 15.1877 11.875C15.163 11.8605 15.1513 11.5538 15.1513 10.9166C15.1513 10.0402 15.1557 9.97175 15.2187 9.86067C15.2558 9.79537 15.2861 9.69104 15.2861 9.62882C15.2861 9.56663 15.2558 9.45956 15.2187 9.39088C15.1674 9.29578 15.1513 9.2032 15.1513 9.00224V8.73843H14.7224C14.3649 8.73843 14.2654 8.72742 14.1245 8.6723L13.9554 8.60616L13.9658 8.22672L13.9762 7.84729H13.6373H13.2984V7.41934V6.9914L12.9615 6.91963C12.6327 6.84958 12.6247 6.8457 12.6247 6.7584C12.6247 6.67104 12.628 6.66944 12.7678 6.6902C12.8466 6.70188 13.0323 6.74242 13.1805 6.78026L13.45 6.84907L13.4594 7.26861L13.4688 7.68815H13.8047H14.1407V8.13373V8.5793H14.7471H15.3535V9.13627V9.69323H16.1244C16.8292 9.69323 16.8968 9.69801 16.9134 9.74893C16.9233 9.77958 16.9773 9.90794 17.0333 10.0342C17.0893 10.1604 17.1501 10.3153 17.1685 10.3782C17.202 10.4925 17.2019 10.4926 17.0994 10.4828C17.0047 10.4738 16.9896 10.4544 16.9043 10.233C16.7418 9.81064 16.8362 9.85237 16.0429 9.85237H15.3535V10.0911V10.3298H15.8082H16.263V10.648V10.9663H16.4444C16.604 10.9663 16.6282 10.9749 16.6461 11.0379C16.6572 11.0773 16.6666 11.1203 16.6668 11.1334C16.6671 11.1465 16.5385 11.1573 16.381 11.1573H16.0946V10.8231V10.4889H15.724H15.3535V11.0459V11.6028L16.1704 11.6023L16.9874 11.6018L17.3158 11.3737C17.7011 11.1063 17.6908 11.1411 17.544 10.6032C17.0266 8.70731 15.5622 7.21728 13.6185 6.60878C12.9204 6.39026 12.6361 6.34685 11.8161 6.33367C11.3037 6.32543 11.0074 6.33501 10.803 6.36642ZM11.4456 7.54493C11.4456 8.09388 11.4327 8.48382 11.4146 8.48382C11.3976 8.48382 11.3597 8.49251 11.3304 8.50314C11.2825 8.52048 11.2771 8.42494 11.2771 7.56425V6.60605H11.3613H11.4456V7.54493ZM12.1193 6.70153C12.1193 6.78214 12.1062 6.79701 12.0351 6.79701C11.964 6.79701 11.9509 6.78214 11.9509 6.70153C11.9509 6.62091 11.964 6.60605 12.0351 6.60605C12.1062 6.60605 12.1193 6.62091 12.1193 6.70153ZM10.7718 6.76146C10.7718 6.83408 10.7542 6.85643 10.6876 6.86846C10.6141 6.88173 10.6033 6.8724 10.6033 6.79526C10.6033 6.74662 10.6223 6.69962 10.6454 6.69077C10.7397 6.65484 10.7718 6.67282 10.7718 6.76146ZM10.098 6.91849C10.098 6.99955 10.0797 7.01362 9.9081 7.06473C9.80363 7.09583 9.65203 7.14805 9.57121 7.1808L9.42423 7.24032V7.90979V8.5793H9.67689H9.92956V8.13373V7.68815H10.2664H10.6033V7.51683C10.6033 7.35932 10.6101 7.34427 10.6876 7.33026L10.7718 7.31505V7.58001V7.84499L10.4433 7.8541L10.1148 7.8632L10.1053 8.22125L10.0958 8.5793L10.577 8.58194L11.0581 8.58458L10.8897 8.65957C10.7226 8.73391 10.7113 8.73455 9.48318 8.73649L8.24512 8.73843V9.37497V10.0115H8.16326C8.10397 10.0115 8.0784 9.99174 8.07061 9.93989C8.06017 9.87057 8.04791 9.86828 7.68926 9.86828C7.33061 9.86828 7.31834 9.87057 7.3079 9.93989C7.30012 9.99174 7.27455 10.0115 7.21526 10.0115C7.13949 10.0115 7.13339 9.99969 7.13339 9.85237V9.69323H7.60504H8.07668V9.13627V8.5793H8.66562H9.25454L9.2636 7.83933L9.27263 7.09936L9.62636 6.96467C10.0533 6.8021 10.098 6.79771 10.098 6.91849ZM18.4023 7.01012C17.9083 7.05203 16.519 7.27657 16.4706 7.32231C16.4581 7.33418 16.7218 7.63029 17.1608 8.09728L17.291 8.23589L17.5435 8.20015C17.9562 8.14168 18.8201 8.07026 19.1157 8.07017C19.7153 8.06998 20.1993 8.19022 20.3243 8.37045C20.3687 8.43458 20.3781 8.49674 20.3646 8.63751C20.3005 9.3059 19.1735 10.4956 17.4907 11.6714C15.3873 13.1411 12.3692 14.6262 9.58432 15.5619C7.17843 16.3703 4.84151 16.7211 3.95365 16.4073C3.70586 16.3197 3.62976 16.2258 3.62976 16.0077C3.62976 15.6254 3.98568 15.088 4.68756 14.4104L5.15856 13.9556L5.0643 13.3601C5.01248 13.0325 4.96232 12.7256 4.95282 12.6779L4.93561 12.5913L4.68638 12.7861C3.65702 13.5905 2.89066 14.4113 2.53723 15.0879C2.2465 15.6444 2.18445 16.015 2.31509 16.4146C2.5082 17.0053 3.0391 17.3707 3.95614 17.5441C4.35441 17.6194 5.39573 17.6189 5.98797 17.543C10.5442 16.9595 17.1463 13.9243 20.2561 10.9836C21.0614 10.2221 21.5318 9.54655 21.6941 8.91845C21.758 8.67122 21.7625 8.60836 21.7309 8.40139C21.6184 7.66365 20.9791 7.19092 19.8846 7.03602C19.5775 6.99255 18.7745 6.97851 18.4023 7.01012ZM14.8313 7.47927C15.495 7.88656 16.1061 8.47332 16.5486 9.12831L16.6077 9.21583L16.4943 9.21526C16.3961 9.21475 16.3666 9.194 16.2738 9.05985C15.8398 8.43261 15.105 7.81005 14.3007 7.38819C14.1005 7.28319 14.0733 7.25779 14.0733 7.17578V7.08265L14.3175 7.19828C14.4519 7.26187 14.683 7.38831 14.8313 7.47927ZM12.1193 7.46537V7.68815H12.4562H12.7931V8.01791V8.3477L12.7089 8.33248C12.6281 8.31788 12.6247 8.30766 12.6247 8.08226V7.84729H12.2878H11.9509V7.54493C11.9509 7.24363 11.9512 7.24258 12.0351 7.24258C12.1169 7.24258 12.1193 7.24894 12.1193 7.46537ZM8.67789 7.62418C7.93424 8.08223 7.26138 8.77745 6.82265 9.54117C6.66488 9.81577 6.6345 9.85065 6.55226 9.85148C6.50132 9.85195 6.45962 9.84489 6.45962 9.83575C6.45962 9.82662 6.52208 9.70129 6.59841 9.55727C7.02899 8.74483 7.70162 8.02968 8.53148 7.50203L8.73361 7.37351L8.74476 7.47482C8.75335 7.5526 8.73782 7.58729 8.67789 7.62418ZM9.86218 9.2954C9.78578 9.37226 9.76829 9.37497 9.35099 9.37497H8.9189V9.69323V10.0115H8.83467H8.75045V9.61367V9.21583H9.34587H9.94132L9.86218 9.2954ZM6.66175 10.4093C6.66175 10.4806 6.64804 10.4889 6.53073 10.4889H6.39972L6.34474 10.6878C6.31449 10.7972 6.2781 10.944 6.26385 11.014C6.24206 11.1214 6.22366 11.1429 6.14668 11.1514C6.07698 11.1591 6.05535 11.1478 6.05539 11.1037C6.05545 11.0366 6.21571 10.3997 6.24307 10.3579C6.25317 10.3424 6.35151 10.3298 6.46161 10.3298C6.65262 10.3298 6.66175 10.3334 6.66175 10.4093ZM14.6797 11.1095V11.762H14.5786H14.4775V11.1893C14.4775 10.6465 14.4814 10.6125 14.551 10.5369C14.5914 10.493 14.6369 10.4571 14.6521 10.4571C14.6672 10.4571 14.6797 10.7507 14.6797 11.1095ZM17.3411 11.0618C17.3411 11.1413 17.3276 11.1573 17.2605 11.1573C17.1825 11.1573 17.139 11.105 17.139 11.0114C17.139 10.9825 17.1752 10.9663 17.24 10.9663C17.3299 10.9663 17.3411 10.9769 17.3411 11.0618ZM7.24288 11.6153C7.27532 11.6386 7.30184 11.6882 7.30184 11.7257C7.30184 11.7905 7.28634 11.7938 6.98179 11.7938H6.66175V11.6997V11.6056L6.90599 11.5947C7.04034 11.5886 7.15782 11.5813 7.16708 11.5784C7.17635 11.5754 7.21044 11.592 7.24288 11.6153ZM6.17687 11.6532C6.16562 11.6809 6.15642 11.7238 6.15642 11.7487C6.15642 11.7756 6.12243 11.7938 6.0722 11.7938C6.00108 11.7938 5.98797 11.7789 5.98797 11.6983C5.98797 11.6127 5.99879 11.6028 6.09265 11.6028C6.17424 11.6028 6.1928 11.6139 6.17687 11.6532ZM8.24512 11.9646V12.2628L7.99673 12.2779C7.81461 12.2889 7.72109 12.3113 7.6462 12.3616C7.54871 12.4272 7.50912 12.4303 6.76605 12.4303H5.98797V12.3348V12.2394H7.03233H8.07668V11.9529C8.07668 11.6686 8.07732 11.6665 8.1609 11.6665C8.24475 11.6665 8.24512 11.6678 8.24512 11.9646ZM6.25156 12.9817C6.26146 13.0634 6.25385 13.0706 6.16733 13.0613C6.09123 13.053 6.07001 13.033 6.06128 12.9611C6.05138 12.8793 6.05899 12.8721 6.1455 12.8815C6.22161 12.8897 6.24283 12.9098 6.25156 12.9817ZM7.30184 13.1942V13.5124H7.53028C7.75316 13.5124 7.75963 13.5148 7.79686 13.6079L7.83499 13.7034H7.48419H7.13339V13.3851V13.0669H6.9481C6.81062 13.0669 6.76282 13.0552 6.76282 13.0217C6.76282 12.9969 6.75362 12.9539 6.74237 12.9263C6.72468 12.8827 6.7613 12.8759 7.01188 12.8759H7.30184V13.1942ZM17.803 13.296C17.7444 13.3465 17.6918 13.4583 17.6333 13.6564C17.1155 15.41 15.5853 16.9214 13.7047 17.5369C13.5112 17.6002 13.1625 17.6903 12.9298 17.7371C12.5412 17.8153 12.4422 17.8223 11.7151 17.8236C11.0186 17.8248 10.8774 17.8161 10.5406 17.7517C10.0833 17.6642 9.72258 17.5603 9.28735 17.3906C9.00463 17.2804 8.95306 17.2695 8.86624 17.301L8.7673 17.337L8.89889 17.4013C9.15967 17.5287 9.71722 17.7218 10.0808 17.8107C10.6306 17.9451 11.0996 18 11.6982 18C12.2968 18 12.7659 17.9451 13.3153 17.8107C15.3648 17.3095 17.0149 15.861 17.7042 13.958C17.8485 13.5596 17.931 13.2635 17.9046 13.2386C17.8954 13.2298 17.8497 13.2557 17.803 13.296ZM17.0325 13.7617C16.7794 13.9134 16.5027 14.0766 16.4177 14.1243C16.3151 14.1818 16.263 14.2327 16.263 14.2755C16.263 14.327 16.241 14.3399 16.1531 14.3399C16.0766 14.3399 15.8487 14.4415 15.4035 14.674C15.0517 14.8578 14.4721 15.1458 14.1154 15.3141L13.4669 15.62V15.9825V16.345H13.1317H12.7966L12.7864 16.5121C12.7776 16.6577 12.7665 16.6805 12.7005 16.6894C12.6269 16.6992 12.6247 16.6914 12.6247 16.4268V16.1541H12.9615H13.2984V15.9313C13.2984 15.8087 13.2917 15.7085 13.2835 15.7085C13.2753 15.7085 13.0137 15.8156 12.7023 15.9466L12.1362 16.1848L12.127 16.7806C12.1177 17.3787 12.1081 17.4253 11.993 17.4266C11.9608 17.427 11.9509 17.2888 11.9509 16.8404V16.2536L11.6982 16.3532L11.4456 16.4528V16.6251C11.4456 16.7691 11.4368 16.7942 11.3923 16.7781C11.3629 16.7674 11.325 16.7588 11.308 16.7588C11.291 16.7588 11.2771 16.7039 11.2771 16.6369V16.5151L10.6865 16.7234C10.2593 16.8742 10.0985 16.9448 10.1054 16.9786C10.114 17.0205 10.2371 17.0581 10.6791 17.1537C10.7539 17.1698 10.7718 17.1914 10.7718 17.2654V17.3572L10.4868 17.2983C9.96978 17.1916 9.92956 17.175 9.92956 17.0686C9.92956 17.0067 9.91521 16.9799 9.88745 16.9897C9.8643 16.998 9.71271 17.0455 9.55056 17.0952C9.38845 17.1449 9.25578 17.1951 9.25578 17.2067C9.25578 17.2349 9.74309 17.4057 10.099 17.5022C10.828 17.6999 11.9006 17.7576 12.6415 17.6392C13.9545 17.4293 15.0725 16.8818 15.9935 15.9977C16.4576 15.5523 16.7587 15.1618 17.0508 14.6264C17.2607 14.2416 17.522 13.6041 17.5023 13.5246C17.4966 13.5018 17.3033 13.5993 17.0325 13.7617ZM8.9189 14.2763V14.6264H9.33371H9.74852L9.84534 14.7219L9.94216 14.8173H9.34631H8.75045V14.3718V13.9262H8.83467H8.9189V14.2763ZM16.804 14.4607C16.3894 15.2232 15.753 15.9237 15.0284 16.4152C14.6755 16.6545 14.646 16.6643 14.646 16.542C14.646 16.4575 14.6797 16.4236 14.9239 16.2632C15.3413 15.9889 15.999 15.3491 16.2854 14.9388C16.4159 14.7519 16.5742 14.498 16.6371 14.3747C16.7443 14.1648 16.7586 14.1505 16.8625 14.1498L16.9735 14.149L16.804 14.4607ZM15.3535 15.1197V15.4539L14.7555 15.452L14.1575 15.4501L14.4096 15.3565C14.6066 15.2834 14.7152 15.2629 14.9065 15.2629H15.1513V15.1405C15.1513 15.0591 15.1736 14.9991 15.2178 14.9613C15.2544 14.93 15.2934 14.8777 15.3043 14.845C15.343 14.73 15.3535 14.7886 15.3535 15.1197ZM14.1407 16.1829V16.9119L13.8964 17.0072C13.6669 17.0967 13.349 17.2043 13.3141 17.2043C13.3055 17.2043 13.2984 17.1623 13.2984 17.111C13.2984 17.0419 13.3181 17.012 13.3742 16.9959C13.4159 16.9839 13.5675 16.9318 13.7111 16.8801L13.9722 16.786V16.1385C13.9722 15.6503 13.9826 15.4871 14.0143 15.4749C14.1391 15.4274 14.1407 15.436 14.1407 16.1829ZM12.7931 17.2324C12.7931 17.3051 12.7755 17.3274 12.7089 17.3394C12.6354 17.3527 12.6247 17.3434 12.6247 17.2662C12.6247 17.2176 12.6436 17.1706 12.6668 17.1617C12.761 17.1258 12.7931 17.1438 12.7931 17.2324ZM11.4456 17.3316C11.4456 17.3842 11.4316 17.4271 11.4146 17.4271C11.3321 17.4271 11.2771 17.3812 11.2771 17.3123C11.2771 17.2523 11.295 17.2362 11.3613 17.2362C11.4324 17.2362 11.4456 17.251 11.4456 17.3316Z" fill="#1A203F"/>
<path d="M12 23C5.92487 23 1 18.0751 1 12H-1C-1 19.1797 4.8203 25 12 25V23ZM23 12C23 18.0751 18.0751 23 12 23V25C19.1797 25 25 19.1797 25 12H23ZM12 1C18.0751 1 23 5.92487 23 12H25C25 4.8203 19.1797 -1 12 -1V1ZM12 -1C4.8203 -1 -1 4.8203 -1 12H1C1 5.92487 5.92487 1 12 1V-1Z" fill="#EAEAEF"/>
</svg>
